<svg width="27" height="29" viewBox="0 0 27 29" fill="none"
    xmlns="http://www.w3.org/2000/svg">
    <path d="M16.0988 17.1802L24.6826 17.1802C25.6311 17.1802 26.3999 16.2873 26.3991 15.1868V13.8579C26.3991 12.7561 25.6303 11.8633 24.6825 11.8643L16.0989 11.8643L16.0996 2.89511C16.0996 1.79371 15.3308 0.900883 14.3831 0.901743L13.2379 0.900711C12.2893 0.900883 11.5205 1.79371 11.5212 2.89425V11.8643L2.93767 11.8643C1.98894 11.8643 1.22012 12.7572 1.22101 13.8579L1.22101 15.1868C1.22101 16.2882 1.98983 17.181 2.93752 17.1802H11.5214L11.5212 26.1484C11.5214 27.2499 12.2902 28.1428 13.2379 28.1419H14.3822C15.3308 28.1417 16.0996 27.2489 16.0989 26.1484L16.0988 17.1802Z" fill="currentColor" stroke="#68E6E6" stroke-width="0.5"/>
</svg>
