<svg width="117" height="153" viewBox="0 0 117 153" fill="none" xmlns="http://www.w3.org/2000/svg">
<path fill-rule="evenodd" clip-rule="evenodd" d="M14.5137 104.198L38.2218 104.531C39.8835 104.392 41.6007 105.057 43.2902 105.417C58.274 108.63 72.8422 107.716 86.6627 100.653C91.9527 97.9389 96.4672 94.283 99.32 88.9099C102.311 83.2044 102.145 77.5544 98.9045 72.0151C98.1013 70.6302 97.5474 69.3562 98.6829 67.7775C101.84 72.5413 103.945 77.6928 104.111 83.2875C104.444 94.283 104.388 105.278 104.444 116.302C104.444 120.013 104.084 123.724 104.195 127.436C104.444 135.717 100.372 141.422 93.7253 145.604C87.549 149.51 80.5972 151.061 73.4792 151.808C61.0436 153.11 48.6079 153.138 36.3938 150.091C29.0543 148.263 22.324 145.189 17.7541 138.763C15.6492 135.8 14.4306 132.615 14.5137 128.82C14.7075 120.955 14.5137 111.676 14.5137 104.198V104.198Z" fill="#92D1D9"/>
<path fill-rule="evenodd" clip-rule="evenodd" d="M57.6646 67.279C43.7056 66.9743 29.5251 64.4539 16.6463 56.7266C11.3839 53.5416 6.78633 49.581 3.71205 44.2079C-2.15959 33.8771 0.0561066 22.6878 9.3344 14.822C16.6463 8.61804 25.3152 5.2391 34.5104 3.30035C52.2638 -0.521765 70.0172 -0.355597 87.5767 4.57437C95.7748 6.87316 103.419 10.3352 109.512 16.4838C118.707 25.7898 118.957 38.7517 110.232 48.6116C104.111 55.508 96.2733 59.6625 87.7152 62.626C78.243 65.8942 68.4385 67.1682 57.6646 67.279V67.279ZM57.8308 55.785C68.7708 55.7019 78.9077 54.594 88.7399 51.409C95.4147 49.2486 101.813 46.4513 106.77 41.2167C111.811 35.9267 112.033 29.4734 106.992 24.1834C104.527 21.6353 101.73 19.4196 98.6552 17.6471C91.0941 13.188 82.7575 10.9999 74.1716 9.69821C58.2185 7.28863 42.5424 8.2857 27.254 13.5757C20.8284 15.7914 14.7906 18.838 10.1376 24.0172C5.17995 29.5565 5.04146 36.1205 10.47 41.2167C12.8519 43.4324 15.4553 45.3711 18.2803 47.0052C19.2774 47.5591 20.2745 48.0854 21.2992 48.5562C33.0148 54.1232 45.6444 55.6188 57.8308 55.785V55.785Z" fill="#92D1D9"/>
<path fill-rule="evenodd" clip-rule="evenodd" d="M97.6582 60.2164C98.129 67.002 96.0241 72.6521 91.6758 77.4435C85.5826 84.2015 77.7168 87.7466 68.9093 89.2699C56.5844 91.4025 44.7304 89.99 33.8734 83.3429C27.5863 79.4931 22.9056 74.2585 21.2716 66.8358C20.8561 64.9525 20.8838 62.9861 20.6899 60.8534C46.6137 71.4334 72.0113 71.3781 97.6582 60.2164V60.2164Z" fill="#92D1D9"/>
<path fill-rule="evenodd" clip-rule="evenodd" d="M19.499 65.9773C22.4902 78.4683 31.2977 84.7277 42.21 88.9376V99.8222C38.6095 98.9637 35.1751 97.5788 31.9901 95.7232C30.356 94.8092 28.805 93.729 27.3371 92.5935C27.1986 92.455 27.0601 92.3442 26.9216 92.2057C25.5922 90.9594 24.1797 90.2947 22.6841 91.818C21.5208 92.9812 21.7978 94.6984 23.6811 96.0278C26.7001 98.1605 29.9128 100.016 33.0425 101.955C33.7349 102.37 34.5381 102.647 35.2582 103.367H17.5048C16.5909 103.367 15.6769 103.146 14.8737 102.675C14.0705 102.204 13.4335 101.539 12.9626 100.764C11.5224 98.2712 9.80526 95.2523 8.78048 93.4521C8.30965 92.5935 8.08809 91.4579 8.08809 90.4332C8.03271 84.4507 8.03271 78.4683 8.06039 72.4859C8.08809 68.4146 9.74987 66.6974 13.7658 66.4758C15.6492 66.365 17.5326 66.1711 19.499 65.9773V65.9773Z" fill="#92D1D9"/>
<path fill-rule="evenodd" clip-rule="evenodd" d="M25.7307 93.0643C33.2364 99.3237 42.0992 102.149 51.5991 103.118C63.8686 104.364 75.6673 102.786 86.5243 96.5264C90.2356 94.3661 93.476 91.6518 95.6917 87.8851C97.9629 83.9799 98.3506 79.9362 96.6888 75.671C96.2734 74.6462 96.9935 72.209 97.2704 72.209C101.037 77.4713 101.009 84.2569 97.0212 90.0177C92.8113 96.1663 86.7181 99.8499 79.8771 102.176C64.201 107.494 48.6079 107.273 33.3749 100.487C30.1621 99.0744 27.3094 96.8033 24.4013 94.8092L25.7307 93.0643V93.0643Z" fill="#92D1D9"/>
<path fill-rule="evenodd" clip-rule="evenodd" d="M59.4649 51.2982C49.9373 50.9935 42.3208 50.1349 35.3136 46.6729C32.3225 45.1773 29.3589 43.2385 27.0047 40.8843C22.1855 36.1205 22.4348 29.7504 27.1709 24.9035C31.5746 20.389 37.1416 18.0902 43.124 16.7331C56.6675 13.6588 69.9341 14.1019 82.536 20.4998C82.8406 20.666 83.1453 20.8321 83.4222 20.9983C85.3056 22.0785 87.0228 23.4079 88.5461 24.9589C93.5037 29.9442 93.4483 36.2313 88.4907 41.2721C83.5884 46.2297 77.329 48.5008 70.7096 49.8303C66.4444 50.6888 62.0129 50.9658 59.4649 51.2982V51.2982ZM57.72 47.0052C64.201 47.0606 70.5711 46.2297 76.7197 44.1248C80.3756 42.8784 83.9208 41.2721 86.635 38.3639C89.737 34.9573 89.8478 31.0521 86.6073 27.8116C84.9179 26.1498 82.896 24.5988 80.7357 23.6572C66.6936 17.5917 52.3192 17.5363 37.9725 22.3831C34.7874 23.491 31.7408 25.5682 29.1928 27.8116C25.8138 30.7751 25.8415 34.8742 28.9435 38.0593C30.356 39.4718 31.9624 40.7181 33.6796 41.7152C34.095 41.9368 34.5381 42.1861 34.9813 42.4076C42.127 45.9805 49.8265 46.9498 57.72 47.0052V47.0052Z" fill="#92D1D9"/>
</svg>
