<svg id="Camada_1" data-name="Camada 1" xmlns="http://www.w3.org/2000/svg" viewBox="0 0 32.37 25.22"><defs><style>.cls-1{fill:#fff;}</style></defs><path class="cls-1" d="M31.71,12.76c-.36.64-.69,1.29-1.08,1.91a16.93,16.93,0,0,1-6.43,6,16.88,16.88,0,0,1-5.57,1.82,15,15,0,0,1-4.44,0c-1-.15-2-.37-3.16-.57l.25-.28,2.37-2.38a.37.37,0,0,1,.45-.11,7,7,0,0,0,8.51-3.88,6.74,6.74,0,0,0,.28-4.76.55.55,0,0,1,.16-.65c1.2-1.17,2.37-2.36,3.56-3.55a1.7,1.7,0,0,0,.18-.26A17.16,17.16,0,0,1,31.53,12a3,3,0,0,0,.18.3Z"/><path class="cls-1" d="M5.65,24.7A1.92,1.92,0,0,1,4.39,24a1.67,1.67,0,0,1,0-2l.24-.27L25.39,1A1.71,1.71,0,0,1,27.54.61,1.66,1.66,0,0,1,28,3.07a4.14,4.14,0,0,1-.35.38L7.36,23.73a2.66,2.66,0,0,1-1.58,1Z"/><path class="cls-1" d="M21.29,3.2c-.06.06-.1.12-.16.17l-2.39,2.4a.36.36,0,0,1-.43.1A7,7,0,0,0,9.8,9.74a6.63,6.63,0,0,0-.28,4.78.53.53,0,0,1-.16.63C8.16,16.33,7,17.51,5.8,18.7a2.76,2.76,0,0,0-.22.28c-.52-.48-1-.9-1.48-1.36A17.06,17.06,0,0,1,.79,12.91a.79.79,0,0,1,0-.72A17,17,0,0,1,9.19,3.9a16.1,16.1,0,0,1,4.6-1.34,15.45,15.45,0,0,1,4.4,0c1,.16,2.06.37,3.09.56Z"/><path class="cls-1" d="M20.67,12.28A4.38,4.38,0,0,1,16,16.91Z"/><path class="cls-1" d="M16.37,8.06l-4.61,4.61A4.4,4.4,0,0,1,16.37,8.06Z"/></svg>