<svg width="45" height="45" viewBox="0 0 45 45" fill="none" xmlns="http://www.w3.org/2000/svg">
<circle cx="22.5" cy="22.5" r="22" fill="black" stroke="#2B2D33"/>
<path d="M26.0473 22.8106L32.117 16.7409C32.7877 16.0703 32.7877 14.983 32.117 14.3134L31.3079 13.5042C30.637 12.8334 29.5497 12.8334 28.8801 13.5042L22.8106 19.5737L16.7409 13.503C16.0703 12.8323 14.983 12.8323 14.3134 13.503L13.503 14.3122C12.8323 14.983 12.8323 16.0703 13.503 16.7399L19.5737 22.8106L13.5042 28.8801C12.8334 29.551 12.8334 30.6383 13.5042 31.3079L14.3134 32.117C14.984 32.7877 16.0713 32.7877 16.7409 32.117L22.8106 26.0473L28.8801 32.117C29.551 32.7877 30.6383 32.7877 31.3079 32.117L32.117 31.3079C32.7877 30.637 32.7877 29.5497 32.117 28.8801L26.0473 22.8106Z" fill="white"/>
</svg>
