<svg version="1.1" viewBox="0.0 0.0 960.0 540.0" fill="none" stroke="none" stroke-linecap="square" stroke-miterlimit="10" xmlns:xlink="http://www.w3.org/1999/xlink" xmlns="http://www.w3.org/2000/svg"><clipPath id="gbdc80bbaf9_1_71.0"><path d="m0 0l960.0 0l0 540.0l-960.0 0l0 -540.0z" clip-rule="nonzero"/></clipPath><g clip-path="url(#gbdc80bbaf9_1_71.0)"><path fill="#000000" fill-opacity="0.0" d="m0 0l960.0 0l0 540.0l-960.0 0z" fill-rule="evenodd"/><path fill="#ed5250" d="m587.3211 10.760395l-214.64081 0l-151.91827 151.80841l0 214.64082l151.80841 151.91824l214.64081 0l151.91827 -151.80838l0 -214.64084l-151.80841 -151.91826z" fill-rule="evenodd"/><path fill="#ffffff" d="m587.32104 539.8929l-214.64081 0l0 0l0 0c-1.8674011 0 -3.7348022 -0.4393921 -5.49234 -1.4280396c-0.7689209 -0.4393921 -1.428009 -1.0984497 -2.0870972 -1.7575684l-151.91826 -151.80838l0 0c-0.6590729 -0.65908813 -1.318161 -1.3181763 -1.7575378 -2.19693c-0.9886322 -1.6477051 -1.428009 -3.5151062 -1.428009 -5.3825073l0 0l0 -214.64084l0 0l0 0c0 -1.8673859 0.43937683 -3.734787 1.428009 -5.49234c0.43937683 -0.7689209 1.098465 -1.428009 1.7575378 -2.087082l151.80843 -151.91826l0 0c0.6590576 -0.65908146 1.3181458 -1.3181628 2.19693 -1.7575504c1.6477051 -0.98862207 3.5151062 -1.4280096 5.3825073 -1.4280096l0 0l214.64084 0l0 0l0 0c1.8673706 0 3.7348022 0.43938756 5.4923096 1.4280096c0.7689209 0.43938756 1.4280396 1.0984689 2.0870972 1.7575504l151.91827 151.80841l0 0c0.6590576 0.6590729 1.3181763 1.318161 1.7575684 2.19693c0.9885864 1.6477051 1.4279785 3.5151062 1.4279785 5.382492l0 0l0 214.64085l0 0l0 0c0 1.8673706 -0.4393921 3.7347717 -1.4279785 5.49234c-0.4393921 0.7689209 -1.0985107 1.428009 -1.7575684 2.0870667l-151.80841 151.91824l0 0c-0.65911865 0.65911865 -1.3181763 1.3181763 -2.1969604 1.7575684c-1.6477051 0.98864746 -3.5150757 1.4280396 -5.3825073 1.4280396m-210.24692 -21.53003l205.7432 0l145.54718 -145.54712l0 -205.74324l-145.54718 -145.54713l-205.7432 0l-145.54715 145.54713l0 205.74324l145.54715 145.54712z" fill-rule="evenodd"/><path fill="#ffffff" d="m366.52896 237.59459l0 0c-1.8674011 0 -3.7348022 -0.54922485 -5.3825073 -1.428009c-1.6477051 -0.98861694 -2.9658508 -2.416626 -3.9544678 -4.064331c-0.98861694 -1.6477051 -1.428009 -3.4052582 -1.428009 -5.3825073l0 0l0 0c0 -3.734787 -0.98864746 -7.469574 -2.856018 -10.764984c-1.9772644 -3.2954102 -4.6135864 -6.04158 -7.9089966 -7.9089813c-3.2954102 -1.8674011 -7.030182 -2.856018 -10.764984 -2.856018c-3.844635 0 -7.5794373 0.98861694 -10.874847 2.856018c-3.2954102 1.8674011 -6.041565 4.613571 -7.908966 7.9089813c-1.8674011 3.2954102 -2.856018 7.030197 -2.856018 10.764984l0 0c0 1.9772491 -0.5492554 3.7348022 -1.428009 5.3825073c-0.98864746 1.6477051 -2.3067932 3.075714 -3.9544983 4.064331c-1.6477051 0.8787842 -3.5151062 1.428009 -5.3825073 1.428009c-1.9772339 0 -3.844635 -0.54922485 -5.49234 -1.428009c-1.6477051 -0.98861694 -2.9658508 -2.416626 -3.844635 -4.064331c-0.98861694 -1.6477051 -1.5378723 -3.4052582 -1.5378723 -5.3825073l0 0c0 -7.579422 1.9772644 -14.939163 5.8218994 -21.529984c3.844635 -6.5908203 9.227142 -12.08316 15.817963 -15.817947c6.59079 -3.8446503 14.060394 -5.821884 21.639832 -5.821884c7.469574 0 14.939178 1.9772339 21.529999 5.821884c6.59079 3.734787 12.08316 9.227127 15.817932 15.817947c3.7348022 6.5908203 5.712036 13.950562 5.712036 21.529984l0 0l0 0c0 1.9772491 -0.43936157 3.7348022 -1.428009 5.3825073c-0.87875366 1.6477051 -2.19693 3.075714 -3.844635 4.064331c-1.6477051 0.8787842 -3.5151062 1.428009 -5.49234 1.428009z" fill-rule="evenodd"/><path fill="#ffffff" d="m560.9584 237.59459l0 0c-1.9772339 0 -3.8446045 -0.54922485 -5.4923096 -1.428009c-1.6477051 -0.98861694 -2.9658813 -2.416626 -3.8446655 -4.064331c-0.98864746 -1.6477051 -1.4280396 -3.4052582 -1.4280396 -5.3825073l0 0l0 0c0 -3.734787 -1.0984497 -7.469574 -2.9658203 -10.764984c-1.8674316 -3.2954102 -4.6135864 -6.04158 -7.9089966 -7.9089813c-3.2954102 -1.8674011 -7.0302124 -2.856018 -10.765015 -2.856018c-3.8446045 0 -7.4695435 0.98861694 -10.764954 2.856018c-3.2954102 1.8674011 -6.0415955 4.613571 -7.9089966 7.9089813c-1.9772339 3.2954102 -2.9658508 7.030197 -2.9658508 10.764984l0 0c0 1.9772491 -0.4393921 3.7348022 -1.428009 5.3825073c-0.8787842 1.6477051 -2.3067932 3.075714 -3.9544983 4.064331c-1.6477051 0.8787842 -3.5151062 1.428009 -5.3825073 1.428009c-1.9772339 0 -3.7348022 -0.54922485 -5.3825073 -1.428009c-1.6476746 -0.98861694 -3.0756836 -2.416626 -3.9544678 -4.064331c-0.98861694 -1.6477051 -1.428009 -3.4052582 -1.428009 -5.3825073l0 0c0 -7.579422 1.9772339 -14.939163 5.712036 -21.529984c3.844635 -6.5908203 9.227142 -12.08316 15.817963 -15.817947c6.59079 -3.8446503 14.060394 -5.821884 21.639801 -5.821884c7.579468 0 15.049072 1.9772339 21.639832 5.821884c6.481018 3.734787 11.973328 9.227127 15.817993 15.817947c3.7348022 6.5908203 5.712036 13.950562 5.712036 21.529984l0 0l0 0c0 1.9772491 -0.4393921 3.7348022 -1.4280396 5.3825073c-0.9885864 1.6477051 -2.3067627 3.075714 -3.9544678 4.064331c-1.6477051 0.8787842 -3.5150757 1.428009 -5.3825073 1.428009z" fill-rule="evenodd"/><path fill="#ffffff" d="m668.9382 237.59459l0 0c-1.8674316 0 -3.7348022 -0.54922485 -5.3825073 -1.428009c-1.6477051 -0.98861694 -3.0756836 -2.416626 -4.064331 -4.064331c-0.8787842 -1.6477051 -1.4280396 -3.4052582 -1.4280396 -5.3825073l0 0l0 0c0 -3.734787 -0.9885864 -7.469574 -2.856018 -10.764984c-1.8673706 -3.2954102 -4.6135254 -6.04158 -7.9089355 -7.9089813c-3.2954102 -1.8674011 -7.0302124 -2.856018 -10.765015 -2.856018l0 0c-1.8673706 0 -3.7348022 -0.5492401 -5.3825073 -1.428009c-1.6477051 -0.98861694 -3.0756836 -2.416626 -4.064331 -4.064331c-0.8787842 -1.6477051 -1.4279785 -3.4052582 -1.4279785 -5.2726593c0 -1.9772339 0.54919434 -3.844635 1.4279785 -5.49234c0.98864746 -1.537857 2.416626 -2.965866 4.064331 -3.954483c1.6477051 -0.8787842 3.5151367 -1.428009 5.3825073 -1.428009l0 0c7.579468 0 15.049011 1.9772339 21.529968 5.821884c6.5908203 3.734787 12.083191 9.227127 15.817993 15.817947c3.8446045 6.5908203 5.8218994 13.950562 5.8218994 21.529984l0 0l0 0c0 1.9772491 -0.4393921 3.7348022 -1.4280396 5.3825073c-0.98864746 1.6477051 -2.3067627 3.075714 -3.9544678 4.064331c-1.6477051 0.8787842 -3.5151367 1.428009 -5.3825073 1.428009z" fill-rule="evenodd"/><path fill="#ffffff" d="m528.5535 377.86942l0 0c-7.5794067 0 -15.049011 -1.9772644 -21.639801 -5.712036c-6.5908203 -3.8446655 -11.973328 -9.227142 -15.817963 -15.817963c-3.7348022 -6.5908203 -5.712036 -14.060394 -5.712036 -21.639832l0 0c0 -1.8674011 0.4393921 -3.7348022 1.428009 -5.3825073c0.8787842 -1.6477051 2.3067932 -2.9658813 3.9544678 -3.9544983c1.6477051 -0.87875366 3.4052734 -1.428009 5.3825073 -1.428009c1.8674011 0 3.7348022 0.5492554 5.3825073 1.428009c1.6477051 0.98861694 3.075714 2.3067932 3.9544983 3.9544983c0.98861694 1.6477051 1.428009 3.5151062 1.428009 5.3825073l0 0l0 0c0 3.844635 0.98861694 7.469574 2.9658508 10.764984c1.8674011 3.2954102 4.6135864 6.0415955 7.9089966 7.908966c3.2954102 1.9772644 6.920349 2.9658813 10.764954 2.9658813c3.7348022 0 7.4696045 -0.98861694 10.765015 -2.9658813c3.2954102 -1.8673706 6.041565 -4.613556 7.9089966 -7.908966c1.8673706 -3.2954102 2.9658203 -6.920349 2.9658203 -10.764984l0 0c0 -1.8674011 0.4393921 -3.7348022 1.4280396 -5.3825073c0.8787842 -1.6477051 2.1969604 -2.9658813 3.8446655 -3.9544983c1.6477051 -0.87875366 3.5150757 -1.428009 5.4923096 -1.428009c1.8674316 0 3.7348022 0.5492554 5.3825073 1.428009c1.6477051 0.98861694 2.9658813 2.3067932 3.9544678 3.9544983c0.98864746 1.6477051 1.4280396 3.5151062 1.4280396 5.3825073l0 0l0 0c0 7.5794373 -1.9772339 15.049011 -5.712036 21.639832c-3.8446655 6.5908203 -9.336975 11.973297 -15.817993 15.817963c-6.5907593 3.7347717 -14.060364 5.712036 -21.639832 5.712036z" fill-rule="evenodd"/><path fill="#ffffff" d="m334.23398 377.86942l0 0c-7.6893005 0 -15.049042 -1.9772644 -21.639832 -5.712036c-6.5908203 -3.8446655 -11.973328 -9.227142 -15.817963 -15.817963c-3.844635 -6.5908203 -5.8218994 -14.060394 -5.8218994 -21.639832l0 0c0 -1.8674011 0.5492554 -3.7348022 1.5378723 -5.3825073c0.8787842 -1.6477051 2.19693 -2.9658813 3.844635 -3.9544983c1.6477051 -0.87875366 3.5151062 -1.428009 5.49234 -1.428009c1.8674011 0 3.7348022 0.5492554 5.3825073 1.428009c1.6477051 0.98861694 2.9658508 2.3067932 3.9544983 3.9544983c0.87875366 1.6477051 1.428009 3.5151062 1.428009 5.3825073l0 0l0 0c0 3.844635 0.98861694 7.469574 2.856018 10.764984c1.8674011 3.2954102 4.613556 6.0415955 7.908966 7.908966c3.2954102 1.9772644 7.0302124 2.9658813 10.874847 2.9658813c3.7348022 0 7.469574 -0.98861694 10.764984 -2.9658813c3.2954102 -1.8673706 5.931732 -4.613556 7.9089966 -7.908966c1.8673706 -3.2954102 2.856018 -6.920349 2.856018 -10.764984l0 0c0 -1.8674011 0.4393921 -3.7348022 1.428009 -5.3825073c0.98861694 -1.6477051 2.3067627 -2.9658813 3.9544678 -3.9544983c1.6477051 -0.87875366 3.5151062 -1.428009 5.3825073 -1.428009c1.9772339 0 3.844635 0.5492554 5.49234 1.428009c1.6477051 0.98861694 2.9658813 2.3067932 3.844635 3.9544983c0.98864746 1.6477051 1.428009 3.5151062 1.428009 5.3825073l0 0l0 0c0 7.5794373 -1.9772339 15.049011 -5.712036 21.639832c-3.7347717 6.5908203 -9.227142 11.973297 -15.817932 15.817963c-6.5908203 3.7347717 -14.060425 5.712036 -21.529999 5.712036z" fill-rule="evenodd"/><path fill="#ffffff" d="m366.52896 345.46432l0 0c-1.8674011 0 -3.7348022 -0.4393921 -5.3825073 -1.428009c-1.6477051 -0.8787842 -2.9658508 -2.1969604 -3.9544678 -3.8446655c-0.98861694 -1.6477051 -1.428009 -3.5150757 -1.428009 -5.49234c0 -16.037628 -13.950562 -30.207886 -28.779907 -45.256927c-16.916412 -17.026245 -36.029785 -36.469162 -36.029785 -62.722565l0 0c0 -1.8674011 0.5492554 -3.734787 1.5378723 -5.382492c0.8787842 -1.6477051 2.19693 -2.965866 3.844635 -3.9544983c1.6477051 -0.8787689 3.5151062 -1.428009 5.49234 -1.428009c1.8674011 0 3.7348022 0.5492401 5.3825073 1.428009c1.6477051 0.9886322 2.9658508 2.3067932 3.9544983 3.9544983c0.87875366 1.6477051 1.428009 3.515091 1.428009 5.382492l0 0c0 17.355804 14.389923 32.075287 29.768494 47.56372c17.136108 17.465637 34.931305 35.590393 34.931305 60.41577l0 0c0 1.9772644 -0.43936157 3.844635 -1.428009 5.49234c-0.87875366 1.6477051 -2.19693 2.9658813 -3.844635 3.8446655c-1.6477051 0.98861694 -3.5151062 1.428009 -5.49234 1.428009z" fill-rule="evenodd"/><path fill="#ffffff" d="m463.74368 205.18976l-64.80966 0l0 0c-1.8674011 0 -3.7348022 -0.5492401 -5.3825073 -1.428009c-1.6477051 -0.98861694 -2.9658813 -2.416626 -3.9544983 -4.064331c-0.98861694 -1.6477051 -1.428009 -3.4052582 -1.428009 -5.2726593c0 -1.9772339 0.4393921 -3.844635 1.428009 -5.49234c0.98861694 -1.537857 2.3067932 -2.965866 3.9544983 -3.954483c1.6477051 -0.8787842 3.5151062 -1.428009 5.3825073 -1.428009l64.80966 0l0 0c1.8674011 0 3.7347717 0.54922485 5.382477 1.428009c1.6477051 0.98861694 3.075714 2.416626 3.9544983 3.954483c0.98861694 1.6477051 1.428009 3.5151062 1.428009 5.49234c0 1.8674011 -0.4393921 3.6249542 -1.428009 5.2726593c-0.8787842 1.6477051 -2.3067932 3.075714 -3.9544983 4.064331c-1.6477051 0.8787689 -3.5150757 1.428009 -5.382477 1.428009z" fill-rule="evenodd"/><path fill="#ffffff" d="m431.3389 377.86908l0 0c-1.8673706 0 -3.7347717 -0.4393921 -5.382477 -1.428009c-1.6477051 -0.98861694 -3.075714 -2.19693 -3.9544983 -3.844635c-0.98861694 -1.7575684 -1.428009 -3.6249695 -1.428009 -5.49234l0 -172.67934l0 0c0 -1.9772339 0.4393921 -3.844635 1.428009 -5.49234c0.8787842 -1.537857 2.3067932 -2.965866 3.9544983 -3.954483c1.6477051 -0.8787842 3.5151062 -1.428009 5.382477 -1.428009c1.9772644 0 3.7348022 0.54922485 5.3825073 1.428009c1.6477051 0.98861694 3.075714 2.416626 3.9544983 3.954483c0.98861694 1.6477051 1.428009 3.5151062 1.428009 5.49234l0 0l0 172.67934l0 0c0 1.8673706 -0.4393921 3.7347717 -1.428009 5.49234c-0.8787842 1.6477051 -2.3067932 2.856018 -3.9544983 3.844635c-1.6477051 0.98861694 -3.405243 1.428009 -5.3825073 1.428009z" fill-rule="evenodd"/><path fill="#ffffff" d="m496.1487 345.46432l0 0c-1.8674011 0 -3.7348022 -0.4393921 -5.3825073 -1.428009c-1.6476746 -0.8787842 -3.0756836 -2.1969604 -3.9544678 -3.8446655c-0.98861694 -1.6477051 -1.428009 -3.5150757 -1.428009 -5.49234l0 -107.97949l0 0c0 -1.8674011 0.4393921 -3.734787 1.428009 -5.382492c0.8787842 -1.6477051 2.3067932 -2.965866 3.9544678 -3.9544983c1.6477051 -0.8787689 3.4052734 -1.428009 5.3825073 -1.428009c1.8674011 0 3.7348022 0.5492401 5.3825073 1.428009c1.6477051 0.9886322 3.075714 2.3067932 3.9544983 3.9544983c0.98861694 1.6477051 1.428009 3.515091 1.428009 5.382492l0 0l0 107.97949l0 0c0 1.9772644 -0.4393921 3.844635 -1.428009 5.49234c-0.8787842 1.6477051 -2.3067932 2.9658813 -3.9544983 3.8446655c-1.6477051 0.98861694 -3.5151062 1.428009 -5.3825073 1.428009z" fill-rule="evenodd"/><path fill="#ffffff" d="m560.9586 345.46432l0 0c-1.9772339 0 -3.8446045 -0.4393921 -5.4923096 -1.428009c-1.6477051 -0.8787842 -2.9658813 -2.1969604 -3.8446655 -3.8446655c-0.9885864 -1.6477051 -1.4279785 -3.5150757 -1.4279785 -5.49234l0 -107.97949l0 0c0 -1.8674011 0.4393921 -3.734787 1.4279785 -5.382492c0.8787842 -1.6477051 2.1969604 -2.965866 3.8446655 -3.9544983c1.6477051 -0.8787689 3.5150757 -1.428009 5.4923096 -1.428009c1.8674316 0 3.7348022 0.5492401 5.3825073 1.428009c1.6477051 0.9886322 2.9658813 2.3067932 3.9545288 3.9544983c0.9885864 1.6477051 1.4279785 3.515091 1.4279785 5.382492l0 0l0 107.97949l0 0c0 1.9772644 -0.4393921 3.844635 -1.4279785 5.49234c-0.98864746 1.6477051 -2.3068237 2.9658813 -3.9545288 3.8446655c-1.6477051 0.98861694 -3.5150757 1.428009 -5.3825073 1.428009z" fill-rule="evenodd"/><path fill="#ffffff" d="m636.5333 205.18976l-32.404846 0l0 0c-1.8674316 0 -3.7348022 -0.5492401 -5.3825073 -1.428009c-1.6477051 -0.98861694 -2.9658813 -2.416626 -3.9544678 -4.064331c-0.98864746 -1.6477051 -1.4280396 -3.4052582 -1.4280396 -5.2726593c0 -1.9772339 0.4393921 -3.844635 1.4280396 -5.49234c0.9885864 -1.537857 2.3067627 -2.965866 3.9544678 -3.954483c1.6477051 -0.8787842 3.5150757 -1.428009 5.3825073 -1.428009l32.404846 0l0 0c1.8673706 0 3.7348022 0.54922485 5.3825073 1.428009c1.6477051 0.98861694 2.9658203 2.416626 3.9544678 3.954483c0.9885864 1.6477051 1.4279785 3.5151062 1.4279785 5.49234c0 1.8674011 -0.4393921 3.6249542 -1.4279785 5.2726593c-0.98864746 1.6477051 -2.3067627 3.075714 -3.9544678 4.064331c-1.6477051 0.8787689 -3.5151367 1.428009 -5.3825073 1.428009z" fill-rule="evenodd"/><path fill="#ffffff" d="m636.5333 302.29456l0 0c-1.8673706 0 -3.7348022 -0.4393921 -5.3825073 -1.428009c-1.6477051 -0.8787842 -3.0756836 -2.3067932 -4.064331 -3.9544983c-0.8787842 -1.6477051 -1.4279785 -3.5151062 -1.4279785 -5.382477c0 -1.8674011 0.54919434 -3.7348022 1.4279785 -5.3825073c0.98864746 -1.6477051 2.416626 -2.9658813 4.064331 -3.9544983c1.6477051 -0.98861694 3.5151367 -1.428009 5.3825073 -1.428009l0 0c3.7348022 0 7.4696045 -0.98861694 10.765015 -2.9658508c3.2954102 -1.8674011 6.041565 -4.6135864 7.9089355 -7.7991333c1.8674316 -3.2954102 2.856018 -7.0302124 2.856018 -10.874847l0 0c0 -1.8674011 0.5492554 -3.7348022 1.4280396 -5.3825073c0.98864746 -1.6476898 2.416626 -2.965866 4.064331 -3.954483c1.6477051 -0.98861694 3.5150757 -1.428009 5.3825073 -1.428009c1.8673706 0 3.7348022 0.4393921 5.3825073 1.428009c1.6477051 0.98861694 2.9658203 2.3067932 3.9544678 3.954483c0.98864746 1.6477051 1.4280396 3.5151062 1.4280396 5.3825073l0 0l0 0c0 7.5794373 -1.9772949 15.049011 -5.8218994 21.639832c-3.7348022 6.5908203 -9.227173 11.973328 -15.817993 15.817963c-6.480957 3.844635 -13.9505005 5.712036 -21.529968 5.712036z" fill-rule="evenodd"/><path fill="#ffffff" d="m636.5333 302.29462l-32.404846 0l0 0c-1.8674316 0 -3.7348022 -0.4393921 -5.3825073 -1.428009c-1.6477051 -0.8787842 -2.9658813 -2.3067932 -3.9544678 -3.9544678c-0.98864746 -1.6477051 -1.4280396 -3.5151062 -1.4280396 -5.3825073c0 -1.8674011 0.4393921 -3.7348022 1.4280396 -5.3825073c0.9885864 -1.6477051 2.3067627 -2.9658508 3.9544678 -3.9544983c1.6477051 -0.98861694 3.5150757 -1.428009 5.3825073 -1.428009l32.404846 0l0 0c1.8673706 0 3.7348022 0.4393921 5.3825073 1.428009c1.6477051 0.98864746 2.9658203 2.3067932 3.9544678 3.9544983c0.9885864 1.6477051 1.4279785 3.5151062 1.4279785 5.3825073c0 1.8674011 -0.4393921 3.7348022 -1.4279785 5.3825073c-0.98864746 1.6476746 -2.3067627 3.0756836 -3.9544678 3.9544678c-1.6477051 0.98861694 -3.5151367 1.428009 -5.3825073 1.428009z" fill-rule="evenodd"/><path fill="#ffffff" d="m604.1285 377.86908l0 0c-1.8674316 0 -3.7348022 -0.4393921 -5.3825073 -1.428009c-1.6477051 -0.98861694 -2.9658813 -2.19693 -3.9544678 -3.844635c-0.98864746 -1.7575684 -1.4280396 -3.6249695 -1.4280396 -5.49234l0 -172.67934l0 0c0 -1.9772339 0.4393921 -3.844635 1.4280396 -5.49234c0.9885864 -1.537857 2.3067627 -2.965866 3.9544678 -3.954483c1.6477051 -0.8787842 3.5150757 -1.428009 5.3825073 -1.428009c1.8673706 0 3.7348022 0.54922485 5.3825073 1.428009c1.6477051 0.98861694 2.9658203 2.416626 3.9544678 3.954483c0.98864746 1.6477051 1.4280396 3.5151062 1.4280396 5.49234l0 0l0 172.67934l0 0c0 1.8673706 -0.4393921 3.7347717 -1.4280396 5.49234c-0.98864746 1.6477051 -2.3067627 2.856018 -3.9544678 3.844635c-1.6477051 0.98861694 -3.5151367 1.428009 -5.3825073 1.428009z" fill-rule="evenodd"/><path fill="#ffffff" d="m668.93823 269.99948l0 0c-1.8673706 0 -3.7348022 -0.54922485 -5.3825073 -1.5378418c-1.6477051 -0.8787842 -3.0756836 -2.3067932 -4.064331 -3.9544983c-0.8787842 -1.6477051 -1.4279785 -3.405243 -1.4279785 -5.382477l0 -32.404846l0 0c0 -1.8674011 0.54919434 -3.734787 1.4279785 -5.382492c0.98864746 -1.6477051 2.416626 -2.965866 4.064331 -3.9544983c1.6477051 -0.8787689 3.5151367 -1.428009 5.3825073 -1.428009c1.8673706 0 3.7348022 0.5492401 5.3825073 1.428009c1.6477051 0.9886322 2.9658813 2.3067932 3.9544678 3.9544983c0.98864746 1.6477051 1.4280396 3.515091 1.4280396 5.382492l0 0l0 32.404846l0 0c0 1.9772339 -0.4393921 3.7347717 -1.4280396 5.382477c-0.9885864 1.6477051 -2.3067627 3.075714 -3.9544678 3.9544983c-1.6477051 0.98861694 -3.5151367 1.5378418 -5.3825073 1.5378418z" fill-rule="evenodd"/></g></svg>