<svg width="22" height="29" viewBox="0 0 22 29" fill="none" xmlns="http://www.w3.org/2000/svg">
<path d="M8.62195 1.75055H13.3401V2.56609H15.044V1.63638C15.0442 0.734116 14.33 0 13.4521 0H8.50995C7.63205 0 6.91785 0.734116 6.91785 1.63638V2.56609H8.62195V1.75055Z" fill="#FF0031"/>
<path d="M18.9791 9.50146H2.98306C2.54475 9.50146 2.19971 9.88556 2.23503 10.3345L3.57234 27.3214C3.64686 28.2696 4.41686 29 5.34192 29H16.62C17.545 29 18.315 28.2696 18.3896 27.3211L19.7269 10.3345C19.7624 9.88556 19.4174 9.50146 18.9791 9.50146ZM6.85627 27.1882C6.8384 27.1893 6.82052 27.1899 6.80286 27.1899C6.35616 27.1899 5.98118 26.8326 5.95339 26.3684L5.11534 12.4231C5.08648 11.9406 5.4438 11.5253 5.91333 11.4956C6.38136 11.4664 6.78735 11.8326 6.81621 12.3154L7.65405 26.2607C7.68313 26.7432 7.32581 27.1583 6.85627 27.1882ZM11.8426 26.3147C11.8426 26.7979 11.4611 27.1897 10.9905 27.1897C10.5199 27.1897 10.1385 26.7979 10.1385 26.3147V12.3691C10.1385 11.8857 10.5199 11.4938 10.9905 11.4938C11.4609 11.4938 11.8426 11.8857 11.8426 12.3691V26.3147ZM16.8468 12.4207L16.0466 26.366C16.0201 26.8311 15.6445 27.1897 15.1969 27.1897C15.1802 27.1897 15.1631 27.1893 15.1461 27.1884C14.6764 27.1598 14.318 26.7457 14.3458 26.2631L15.1457 12.3176C15.1733 11.835 15.5752 11.4669 16.0462 11.4954C16.516 11.5237 16.8743 11.9381 16.8468 12.4207Z" fill="#FF0031"/>
<path d="M21.9254 6.48378L21.3659 4.76067C21.2183 4.30643 20.8044 4 20.3381 4H1.62374C1.15765 4 0.74347 4.30643 0.596149 4.76067L0.0365859 6.48378C-0.0713205 6.8161 0.0691087 7.15506 0.331229 7.3241C0.438058 7.39291 0.564488 7.43428 0.703409 7.43428H21.2586C21.3975 7.43428 21.5242 7.39291 21.6308 7.32388C21.8929 7.15484 22.0334 6.81588 21.9254 6.48378Z" fill="#FF0031"/>
</svg>
