<svg id="Camada_1" data-name="Camada 1" xmlns="http://www.w3.org/2000/svg" viewBox="0 0 33 13.42"><defs><style>.cls-1,.cls-2{fill:#fff;}.cls-1{opacity:0.6;}</style></defs><rect class="cls-1" x="0.31" y="0.37" width="32.37" height="12.68" rx="6.34"/><path class="cls-2" d="M19.59,5.59c0,.5,0,1,0,1.49,0,.06,0,.1-.09.09a.58.58,0,0,0-.5.29,4,4,0,0,0-.55,1c-.07.15-.13.31-.19.46a.91.91,0,0,1-.32.4,1.54,1.54,0,0,0-.66,1.1c0,.27-.08.55-.11.83,0,.07,0,.12-.1.12a1,1,0,0,1-.3,0,.88.88,0,0,1-.61-.76,1.93,1.93,0,0,1,.23-1.2,3,3,0,0,0,.32-.76,1.69,1.69,0,0,0,0-.23c0-.07,0-.09-.11-.09-.32,0-.64,0-1,0s-.59,0-.89,0a.45.45,0,0,1-.3-.16,1.15,1.15,0,0,1-.34-.57.25.25,0,0,1,0-.15,2.2,2.2,0,0,1,.17-.25.23.23,0,0,0,0-.26,2.54,2.54,0,0,0-.16-.28c-.08-.14-.08-.2,0-.32L14.38,6a.25.25,0,0,0,0-.25l-.12-.32a.31.31,0,0,1,.06-.34l.27-.28a.28.28,0,0,0,.08-.21,1.21,1.21,0,0,0,0-.19.39.39,0,0,1,.09-.29,1.33,1.33,0,0,1,.49-.39,1.11,1.11,0,0,1,.37-.08,8.19,8.19,0,0,1,1.4,0c.28,0,.56,0,.83.06s.41.07.62.1l1,.19c.07,0,.09,0,.09.11,0,.49,0,1,0,1.48Z"/><path class="cls-2" d="M21.42,5.56c0,.49,0,1,0,1.47a.31.31,0,0,1-.28.29c-.24,0-.47,0-.7,0H20.2A.3.3,0,0,1,19.91,7v-3a.3.3,0,0,1,.29-.29c.31,0,.62,0,.93,0a.31.31,0,0,1,.29.29c0,.5,0,1,0,1.49Z"/></svg>