<svg width="17" height="23" viewBox="0 0 17 23" fill="none"
    xmlns="http://www.w3.org/2000/svg">
    <path fill-rule="evenodd" clip-rule="evenodd" d="M11.0097 12.5961H15.9616C16.2953 12.5961 16.5971 12.7945 16.7295 13.1008C16.8619 13.4072 16.7996 13.763 16.5708 14.0059L9.10915 21.7464C8.95107 21.9143 8.73066 22.0096 8.50002 22.0096C8.26938 22.0096 8.04897 21.9143 7.89089 21.7464L0.429343 14.0059C0.200573 13.763 0.13816 13.4072 0.27053 13.1008C0.4029 12.7945 0.704694 12.5961 1.03847 12.5961H5.9905L5.99038 1.00001C5.99037 0.447721 6.4381 3.2e-06 6.99038 0L10.0095 1.71661e-05C10.5618 1.71661e-05 11.0095 0.447725 11.0095 1.00001L11.0097 12.5961Z" fill="currentColor"/>
</svg>
