<svg width="60" height="60" viewBox="0 0 60 60" fill="none" xmlns="http://www.w3.org/2000/svg">
<circle cx="30" cy="30" r="29.5" fill="#1B1C1F" stroke="#2B2D33"/>
<path d="M30 18C22.3576 18 15.427 22.2086 10.313 29.0446C9.89567 29.6047 9.89567 30.3871 10.313 30.9472C15.427 37.7914 22.3576 42 30 42C37.6424 42 44.573 37.7914 49.687 30.9554C50.1043 30.3953 50.1043 29.6129 49.687 29.0528C44.573 22.2086 37.6424 18 30 18ZM30.5482 38.4502C25.4751 38.7714 21.2857 34.5628 21.6048 29.4482C21.8666 25.2313 25.2624 21.8133 29.4518 21.5498C34.5249 21.2286 38.7143 25.4372 38.3952 30.5518C38.1252 34.7605 34.7295 38.1784 30.5482 38.4502ZM30.2946 34.5463C27.5616 34.7193 25.3033 32.4544 25.4833 29.7035C25.6224 27.4303 27.4553 25.5937 29.7136 25.4454C32.4466 25.2725 34.7049 27.5374 34.5249 30.2883C34.3776 32.5697 32.5447 34.4063 30.2946 34.5463Z" fill="#68E6E6"/>
</svg>
