<svg width="184" height="20" viewBox="0 0 184 20" fill="none" xmlns="http://www.w3.org/2000/svg">
<path d="M97.4375 5.31086C96.3871 4.47055 95.3368 3.84031 94.2864 3C94.0763 3 93.8662 3 93.8662 3C92.8158 3.84031 91.7654 4.47055 90.715 5.31086C90.2949 5.73101 90.7151 6.57132 91.1352 6.15116C92.1856 5.31085 93.236 4.68062 94.2864 3.84031C94.0763 3.84031 93.8662 3.84031 93.8662 3.84031C94.9166 4.68062 95.967 5.31085 97.0174 6.15116C97.6476 6.57132 98.0678 5.73101 97.4375 5.31086Z" fill="white"/>
<path d="M90.7129 14.9746C91.7633 15.8149 92.8137 16.4451 93.8641 17.2854C94.0742 17.2854 94.2842 17.2854 94.2842 17.2854C95.3346 16.4451 96.385 15.8149 97.4354 14.9746C97.8555 14.5544 97.4354 13.7141 97.0152 14.1343C95.9649 14.9746 94.9145 15.6048 93.8641 16.4451C94.0742 16.4451 94.2842 16.4451 94.2842 16.4451C93.2338 15.6048 92.1835 14.9746 91.1331 14.1343C90.7129 13.7141 90.0827 14.5544 90.7129 14.9746Z" fill="white"/>
<path d="M105.419 11.613H81.4705C80.6302 11.613 80 10.9827 80 10.1424C80 9.30211 80.6302 8.67188 81.4705 8.67188H105.629C106.47 8.67188 107.1 9.30211 107.1 10.1424C107.1 10.9827 106.26 11.613 105.419 11.613Z" fill="white"/>
<path opacity="0.5" d="M9 10H175" stroke="white" stroke-width="2" stroke-dasharray="4 4"/>
<g opacity="0.8">
<path opacity="0.8" d="M175.2 12.4C176.415 12.4 177.4 11.415 177.4 10.2C177.4 8.98497 176.415 8 175.2 8C173.985 8 173 8.98497 173 10.2C173 11.415 173.985 12.4 175.2 12.4Z" fill="white"/>
</g>
<g opacity="0.8">
<g opacity="0.8">
<g opacity="0.8">
<g opacity="0.8">
<path opacity="0.8" d="M88.9053 10.0999V9.3999H89.5053V10.0999H88.9053Z" fill="white"/>
</g>
</g>
</g>
</g>
</svg>
