<svg id="Camada_1" data-name="Camada 1" xmlns="http://www.w3.org/2000/svg" viewBox="0 0 33 13.42"><defs><style>.cls-1,.cls-2{fill:#fff;}.cls-1{opacity:0.6;}</style></defs><rect class="cls-1" x="0.31" y="0.37" width="32.37" height="12.68" rx="6.34"/><path class="cls-2" d="M13.92,7.69c0-.49,0-1,0-1.48,0-.07,0-.1.09-.1a.58.58,0,0,0,.5-.28,4,4,0,0,0,.55-1c.07-.15.13-.3.19-.46a1,1,0,0,1,.32-.4,1.52,1.52,0,0,0,.66-1.09c.05-.28.08-.56.11-.84,0-.07,0-.11.1-.11a1,1,0,0,1,.3,0,.88.88,0,0,1,.61.75,1.85,1.85,0,0,1-.23,1.2,3.06,3.06,0,0,0-.32.77,1.62,1.62,0,0,0,0,.22c0,.07,0,.1.11.1.32,0,.64,0,1,0s.6,0,.89.06A.46.46,0,0,1,19,5.2a1.21,1.21,0,0,1,.35.61.16.16,0,0,1,0,.12,1.51,1.51,0,0,1-.18.26.24.24,0,0,0,0,.27l.16.28c.08.14.08.19,0,.32l-.18.22a.23.23,0,0,0-.05.24l.12.33a.31.31,0,0,1-.06.33l-.27.28a.29.29,0,0,0-.08.22,1.2,1.2,0,0,0,0,.19.37.37,0,0,1-.09.27,1.3,1.3,0,0,1-.49.41,1.14,1.14,0,0,1-.32.07,6.1,6.1,0,0,1-1.28,0c-.34,0-.67,0-1-.06s-.41-.07-.62-.11l-1-.18c-.07,0-.09,0-.09-.11,0-.5,0-1,0-1.49Z"/><path class="cls-2" d="M12.09,7.73c0-.49,0-1,0-1.48A.3.3,0,0,1,12.37,6h.93a.29.29,0,0,1,.29.29v3a.29.29,0,0,1-.28.28h-.94a.31.31,0,0,1-.29-.29c0-.49,0-1,0-1.48Z"/></svg>