<svg width="139" height="155" viewBox="0 0 139 155" fill="none" xmlns="http://www.w3.org/2000/svg">
<path fill-rule="evenodd" clip-rule="evenodd" d="M63.8422 132.738H24.4493C22.4656 132.738 20.51 132.208 18.8057 131.202C17.0735 130.224 15.6487 128.799 14.6709 127.067C13.6651 125.363 13.1622 123.407 13.1622 121.451V112.036H18.0514C18.4984 112.036 18.9175 111.924 19.3086 111.701C19.6718 111.477 20.0071 111.142 20.2306 110.779C20.4541 110.388 20.5658 109.969 20.5658 109.522C20.5658 109.075 20.4541 108.656 20.2306 108.264C20.0071 107.901 19.6718 107.566 19.3086 107.342C18.9175 107.119 18.4984 107.007 18.0514 107.007H13.1622V104.018C13.1622 103.571 13.0225 103.124 12.8269 102.761C12.6034 102.369 12.2682 102.062 11.905 101.839C11.5138 101.615 11.0668 101.503 10.6478 101.503C10.2007 101.503 9.78166 101.615 9.39053 101.839C8.99939 102.062 8.69208 102.369 8.46857 102.761C8.24506 103.124 8.13332 103.571 8.13332 104.018V107.007H3.24411C2.7971 107.007 2.35008 107.119 1.98689 107.342C1.59575 107.566 1.28844 107.901 1.06493 108.264C0.841415 108.656 0.729675 109.075 0.729675 109.522C0.729675 109.969 0.841415 110.388 1.06493 110.779C1.28844 111.142 1.59575 111.477 1.98689 111.701C2.35008 111.924 2.7971 112.036 3.24411 112.036H8.13332V121.451C8.13332 124.301 8.88765 127.095 10.3404 129.581C11.7653 132.068 13.8327 134.135 16.2913 135.56C18.7778 136.985 21.5716 137.739 24.4493 137.739H63.8422C64.2892 137.739 64.7083 137.628 65.0994 137.404C65.4906 137.181 65.7979 136.873 66.0214 136.482C66.2449 136.119 66.3567 135.672 66.3567 135.225C66.3567 134.806 66.2449 134.359 66.0214 133.996C65.7979 133.604 65.4906 133.297 65.0994 133.074C64.7083 132.85 64.2892 132.738 63.8422 132.738V132.738Z" fill="#92D1D9"/>
<path fill-rule="evenodd" clip-rule="evenodd" d="M106.727 83.8185V68.8435C106.727 68.3965 106.588 67.9495 106.392 67.5863C106.169 67.1952 105.833 66.8878 105.47 66.6643C105.079 66.4408 104.632 66.3291 104.213 66.3291C103.766 66.3291 103.347 66.4408 102.956 66.6643C102.565 66.8878 102.257 67.1952 102.034 67.5863C101.81 67.9495 101.699 68.3965 101.699 68.8435V83.8185C101.699 84.2375 101.81 84.6845 102.034 85.0477C102.257 85.4389 102.565 85.7462 102.956 85.9697C103.347 86.1932 103.766 86.3049 104.213 86.3049C104.632 86.3049 105.079 86.1932 105.47 85.9697C105.833 85.7462 106.169 85.4389 106.392 85.0477C106.588 84.6845 106.727 84.2375 106.727 83.8185Z" fill="#92D1D9"/>
<path fill-rule="evenodd" clip-rule="evenodd" d="M138.549 57.4727L122.457 29.5903L106.392 1.73581C106.169 1.34467 105.861 1.03735 105.47 0.813843C105.107 0.590332 104.66 0.478607 104.213 0.478607C103.766 0.478607 103.347 0.590332 102.956 0.813843C102.593 1.03735 102.285 1.34467 102.062 1.73581L85.9414 29.5903L69.8769 57.4727C69.6534 57.8638 69.5416 58.2829 69.5416 58.7299C69.5416 59.149 69.6534 59.596 69.8769 59.9592C70.1004 60.3503 70.4077 60.6576 70.7988 60.8811C71.162 61.1046 71.6091 61.2164 72.0561 61.2164H136.398C136.817 61.2164 137.264 61.1046 137.655 60.8811C138.018 60.6576 138.354 60.3503 138.577 59.9592C138.745 59.6519 138.856 59.3166 138.884 58.9534V58.5064C138.856 58.1432 138.745 57.78 138.577 57.4727H138.549V57.4727ZM76.3865 56.2154L90.2718 32.1047L104.213 7.99399L118.126 32.1047L132.04 56.2154H76.3865H76.3865Z" fill="#92D1D9"/>
<path fill-rule="evenodd" clip-rule="evenodd" d="M104.213 92.2278C98.793 92.2278 93.4288 93.6806 88.7352 96.3907C84.0136 99.1007 80.1302 103.012 77.4202 107.734C74.6823 112.427 73.2574 117.763 73.2574 123.183C73.2574 128.631 74.6823 133.968 77.4202 138.661C80.1302 143.383 84.0136 147.294 88.7352 150.004C93.4288 152.714 98.7651 154.139 104.213 154.139C109.633 154.139 114.969 152.714 119.691 150.004C124.384 147.294 128.296 143.383 131.006 138.661C133.716 133.968 135.169 128.631 135.169 123.183C135.141 117.763 133.716 112.427 131.006 107.734C128.296 103.04 124.384 99.1286 119.663 96.3907C114.969 93.6806 109.633 92.2558 104.213 92.2278V92.2278ZM91.2496 145.646C87.3104 143.383 84.0136 140.114 81.7506 136.147C79.4597 132.208 78.2584 127.737 78.2584 123.183C78.2584 118.63 79.4597 114.159 81.7506 110.22C84.0136 106.281 87.3104 103.012 91.2496 100.721C95.1889 98.4581 99.6591 97.2567 104.213 97.2567C108.767 97.2567 113.237 98.4581 117.176 100.721C121.116 103.012 124.412 106.281 126.675 110.22C128.938 114.159 130.14 118.63 130.14 123.183C130.14 127.737 128.938 132.208 126.675 136.147C124.384 140.086 121.116 143.383 117.148 145.646C113.237 147.937 108.767 149.138 104.213 149.138C99.6591 149.138 95.1889 147.937 91.2496 145.646V145.646Z" fill="#92D1D9"/>
<path fill-rule="evenodd" clip-rule="evenodd" d="M18.0514 51.9409C18.4984 51.9409 18.9175 51.8291 19.3086 51.6056C19.6718 51.3821 20.0071 51.0748 20.2306 50.6837C20.4541 50.2925 20.5658 49.8734 20.5658 49.4264C20.5658 48.9794 20.4541 48.5603 20.2306 48.1692C20.0071 47.806 19.6718 47.4708 19.3086 47.2473C18.9175 47.0237 18.4984 46.912 18.0514 46.912H13.1622V36.2675C13.1622 34.2839 13.6651 32.3282 14.6709 30.624C15.6487 28.8918 17.0735 27.4669 18.8057 26.4891C20.51 25.4833 22.4656 24.9525 24.4493 24.9525H82.8961C83.3431 24.9525 83.7901 24.8408 84.1533 24.6452C84.5445 24.4217 84.8518 24.0864 85.0753 23.7232C85.2988 23.3321 85.4106 22.8851 85.4106 22.466C85.4106 22.019 85.2988 21.5999 85.0753 21.2088C84.8518 20.8177 84.5445 20.5103 84.1533 20.2868C83.7901 20.0633 83.3431 19.9516 82.8961 19.9516H24.4493C21.5716 19.9516 18.7778 20.7059 16.2913 22.1587C13.8327 23.5835 11.7653 25.651 10.3404 28.1095C8.88765 30.596 8.13332 33.3899 8.13332 36.2675V46.912H3.24411C2.7971 46.912 2.35008 47.0237 1.98689 47.2473C1.59575 47.4708 1.28844 47.806 1.06493 48.1692C0.841415 48.5603 0.729675 48.9794 0.729675 49.4264C0.729675 49.8734 0.841415 50.2925 1.06493 50.6837C1.28844 51.0748 1.59575 51.3821 1.98689 51.6056C2.35008 51.8291 2.7971 51.9409 3.24411 51.9409H18.0514V51.9409Z" fill="#92D1D9"/>
<path fill-rule="evenodd" clip-rule="evenodd" d="M3.24411 66.9437H18.0514C18.4984 66.9437 18.9175 66.832 19.3086 66.6085C19.6718 66.4129 20.0071 66.0776 20.2306 65.7144C20.4541 65.3233 20.5658 64.9042 20.5658 64.4572C20.5658 64.0102 20.4541 63.5911 20.2306 63.2C20.0071 62.8089 19.6718 62.5016 19.3086 62.278C18.9175 62.0545 18.4984 61.9428 18.0514 61.9428H13.1622V58.7299C13.1622 58.2829 13.0225 57.8358 12.8269 57.4727C12.6034 57.0815 12.2682 56.7742 11.905 56.5507C11.5138 56.3272 11.0668 56.2154 10.6478 56.2154C10.2007 56.2154 9.78166 56.3272 9.39053 56.5507C8.99939 56.7742 8.69208 57.0815 8.46857 57.4727C8.24506 57.8358 8.13332 58.2829 8.13332 58.7299V61.9428H3.24411C2.7971 61.9428 2.35008 62.0545 1.98689 62.278C1.59575 62.5016 1.28844 62.8089 1.06493 63.2C0.841415 63.5911 0.729675 64.0102 0.729675 64.4572C0.729675 64.9042 0.841415 65.3233 1.06493 65.7144C1.28844 66.0776 1.59575 66.4129 1.98689 66.6085C2.35008 66.832 2.7971 66.9437 3.24411 66.9437V66.9437Z" fill="#92D1D9"/>
<path fill-rule="evenodd" clip-rule="evenodd" d="M3.24411 81.9745H18.0514C18.4984 81.9745 18.9175 81.8628 19.3086 81.6393C19.6718 81.4157 20.0071 81.1084 20.2306 80.7173C20.4541 80.3541 20.5658 79.935 20.5658 79.488C20.5658 79.041 20.4541 78.594 20.2306 78.2308C20.0071 77.8397 19.6718 77.5323 19.3086 77.3088C18.9175 77.0853 18.4984 76.9736 18.0514 76.9736H13.1622V73.5092C13.1622 73.0901 13.0225 72.6431 12.8269 72.252C12.6034 71.8888 12.2682 71.5536 11.905 71.33C11.5138 71.1345 11.0668 71.0227 10.6478 71.0227C10.2007 71.0227 9.78166 71.1345 9.39053 71.33C8.99939 71.5536 8.69208 71.8888 8.46857 72.252C8.24506 72.6431 8.13332 73.0901 8.13332 73.5092V76.9736H3.24411C2.7971 76.9736 2.35008 77.0853 1.98689 77.3088C1.59575 77.5323 1.28844 77.8397 1.06493 78.2308C0.841415 78.594 0.729675 79.041 0.729675 79.488C0.729675 79.935 0.841415 80.3541 1.06493 80.7173C1.28844 81.1084 1.59575 81.4157 1.98689 81.6393C2.35008 81.8628 2.7971 81.9745 3.24411 81.9745V81.9745Z" fill="#92D1D9"/>
<path fill-rule="evenodd" clip-rule="evenodd" d="M3.24411 97.0053H18.0514C18.4984 97.0053 18.9175 96.8936 19.3086 96.67C19.6718 96.4465 20.0071 96.1392 20.2306 95.7481C20.4541 95.3849 20.5658 94.9379 20.5658 94.4909C20.5658 94.0439 20.4541 93.6248 20.2306 93.2336C20.0071 92.8705 19.6718 92.5352 19.3086 92.3396C18.9175 92.1161 18.4984 92.0044 18.0514 92.0044H13.1622V88.3445C13.1622 87.8974 13.0225 87.4784 12.8269 87.0872C12.6034 86.6961 12.2682 86.3888 11.905 86.1653C11.5138 85.9417 11.0668 85.83 10.6478 85.83C10.2007 85.83 9.78166 85.9417 9.39053 86.1653C8.99939 86.3888 8.69208 86.6961 8.46857 87.0872C8.24506 87.4784 8.13332 87.8974 8.13332 88.3445V92.0044H3.24411C2.7971 92.0044 2.35008 92.1161 1.98689 92.3396C1.59575 92.5352 1.28844 92.8705 1.06493 93.2336C0.841415 93.6248 0.729675 94.0439 0.729675 94.4909C0.729675 94.9379 0.841415 95.3849 1.06493 95.7481C1.28844 96.1392 1.59575 96.4465 1.98689 96.67C2.35008 96.8936 2.7971 97.0053 3.24411 97.0053V97.0053Z" fill="#92D1D9"/>
<path fill-rule="evenodd" clip-rule="evenodd" d="M117.847 109.522C117.679 109.382 117.512 109.242 117.316 109.131C116.953 108.907 116.506 108.795 116.087 108.795C115.64 108.795 115.193 108.907 114.83 109.131C114.634 109.242 114.466 109.382 114.299 109.522L104.213 119.635L94.1273 109.522C93.9597 109.382 93.792 109.242 93.5965 109.131C93.2333 108.907 92.7862 108.795 92.3672 108.795C91.9202 108.795 91.4731 108.907 91.082 109.131C90.7188 109.354 90.4115 109.661 90.188 110.052C89.9645 110.416 89.8527 110.863 89.8527 111.31C89.8527 111.729 89.9645 112.176 90.188 112.539C90.2718 112.735 90.4115 112.902 90.5791 113.07L100.665 123.183L90.5791 133.297C90.4115 133.437 90.2718 133.632 90.188 133.8C89.9645 134.191 89.8527 134.61 89.8527 135.057C89.8527 135.504 89.9645 135.923 90.188 136.314C90.4115 136.706 90.7188 137.013 91.082 137.236C91.4731 137.46 91.9202 137.572 92.3672 137.572C92.7862 137.572 93.2333 137.46 93.5965 137.236C93.792 137.125 93.9597 136.985 94.1273 136.845L104.213 126.732L114.299 136.845C114.466 136.985 114.634 137.125 114.83 137.236C115.221 137.46 115.64 137.572 116.087 137.572C116.506 137.572 116.953 137.46 117.316 137.236C117.707 137.013 118.015 136.706 118.238 136.314C118.462 135.923 118.573 135.504 118.573 135.057C118.573 134.61 118.462 134.191 118.238 133.8C118.126 133.604 118.015 133.437 117.847 133.297L107.761 123.183L117.847 113.07C118.015 112.902 118.126 112.735 118.238 112.539C118.462 112.176 118.573 111.729 118.573 111.31C118.573 110.863 118.462 110.416 118.238 110.052C118.126 109.857 118.015 109.689 117.847 109.522V109.522Z" fill="#92D1D9"/>
<path fill-rule="evenodd" clip-rule="evenodd" d="M104.213 19.6163C103.766 19.6163 103.347 19.756 102.956 19.9795C102.565 20.203 102.257 20.5103 102.034 20.8735C101.81 21.2646 101.699 21.6837 101.699 22.1307V40.5979C101.699 41.045 101.81 41.464 102.034 41.8552C102.257 42.2184 102.565 42.5536 102.956 42.7492C103.347 42.9727 103.766 43.0844 104.213 43.0844C104.632 43.0844 105.079 42.9727 105.47 42.7492C105.833 42.5536 106.169 42.2184 106.392 41.8552C106.588 41.464 106.727 41.045 106.727 40.5979V22.1307C106.727 21.6837 106.588 21.2646 106.392 20.8735C106.169 20.5103 105.833 20.203 105.47 19.9795C105.079 19.756 104.632 19.6163 104.213 19.6163Z" fill="#92D1D9"/>
<path fill-rule="evenodd" clip-rule="evenodd" d="M106.532 48.8398C106.476 48.7559 106.42 48.6442 106.364 48.5604C106.364 48.5045 106.336 48.4486 106.28 48.4207C106.113 48.1413 105.861 47.8898 105.61 47.7222C105.554 47.6943 105.526 47.6664 105.47 47.6384C105.358 47.5825 105.275 47.5266 105.163 47.4987C105.023 47.4428 104.856 47.387 104.688 47.359C104.548 47.3031 104.381 47.3031 104.213 47.3031C104.045 47.3031 103.878 47.3031 103.71 47.359C103.57 47.387 103.403 47.4428 103.263 47.4987C103.151 47.5266 103.068 47.5825 102.956 47.6384C102.9 47.6664 102.872 47.6943 102.816 47.7222C102.537 47.8898 102.313 48.1413 102.118 48.4207C102.09 48.4486 102.062 48.5045 102.034 48.5604C102.006 48.6442 101.95 48.7559 101.894 48.8398C101.838 49.0074 101.782 49.1471 101.754 49.3147C101.727 49.4823 101.699 49.65 101.699 49.7896C101.699 50.2367 101.838 50.6837 102.034 51.0748C102.146 51.2424 102.285 51.4101 102.453 51.5777C102.565 51.6895 102.676 51.8012 102.816 51.885C102.872 51.913 102.9 51.9409 102.956 51.9688C103.068 52.0247 103.151 52.0806 103.263 52.1085C103.403 52.1924 103.57 52.2203 103.71 52.2482C103.878 52.3041 104.045 52.3041 104.213 52.3041C104.381 52.3041 104.548 52.3041 104.688 52.2482C104.856 52.2203 105.023 52.1924 105.163 52.1085C105.275 52.0806 105.358 52.0247 105.47 51.9688C105.526 51.9409 105.554 51.913 105.61 51.885C105.75 51.8012 105.861 51.6895 105.973 51.5777C106.141 51.4101 106.253 51.2424 106.364 51.0748C106.588 50.6837 106.727 50.2367 106.727 49.7896C106.727 49.65 106.699 49.4823 106.672 49.3147C106.644 49.1471 106.588 49.0074 106.532 48.8398V48.8398Z" fill="#92D1D9"/>
</svg>
