<svg width="86" height="86" viewBox="0 0 86 86" fill="none" xmlns="http://www.w3.org/2000/svg">
<path d="M85.5 43C85.5 66.4721 66.4721 85.5 43 85.5C19.5279 85.5 0.5 66.4721 0.5 43C0.5 19.5279 19.5279 0.5 43 0.5C66.4721 0.5 85.5 19.5279 85.5 43Z" fill="black" stroke="#2B2D33"/>
<path d="M47.5646 43.0001L36.6554 31.9562C35.7815 31.0674 35.7815 29.6265 36.6554 28.7391L37.7098 27.6668C38.584 26.7777 40.0007 26.7777 40.8733 27.6668L51.7822 38.7104L54.2076 41.1772C55.2024 42.1889 55.2023 43.8113 54.2075 44.823L51.7822 47.2895L40.8733 58.3334C39.9991 59.2222 38.5823 59.2222 37.7098 58.3334L36.6554 57.2611C35.7815 56.372 35.7815 54.9311 36.6554 54.0437L47.5646 43.0001Z" fill="white"/>
</svg>
