<svg width="86" height="86" viewBox="0 0 86 86" fill="none" xmlns="http://www.w3.org/2000/svg">
<path d="M85.5 43C85.5 66.4721 66.4721 85.5 43 85.5C19.5279 85.5 0.5 66.4721 0.5 43C0.5 19.5279 19.5279 0.5 43 0.5C66.4721 0.5 85.5 19.5279 85.5 43Z" fill="black" stroke="#2B2D33"/>
<path d="M38.3891 43.0001L49.2982 31.9562C50.1721 31.0674 50.1721 29.6265 49.2982 28.7391L48.2438 27.6668C47.3697 26.7777 45.9529 26.7777 45.0804 27.6668L34.1715 38.7104L31.7461 41.1772C30.7513 42.1889 30.7513 43.8113 31.7461 44.823L34.1715 47.2895L45.0804 58.3334C45.9545 59.2222 47.3713 59.2222 48.2438 58.3334L49.2982 57.2611C50.1721 56.372 50.1721 54.9311 49.2982 54.0437L38.3891 43.0001Z" fill="white"/>
</svg>
