<svg width="86" height="86" viewBox="0 0 86 86" fill="none" xmlns="http://www.w3.org/2000/svg">
<circle cx="43" cy="43" r="42.5" fill="black" stroke="#2B2D33"/>
<path d="M43 22.0667C43 20.9621 42.1028 20.0576 41.0024 20.1538C36.7941 20.5217 32.7548 22.0468 29.3406 24.5783C25.3892 27.5082 22.4846 31.631 21.0556 36.338C19.6266 41.045 19.749 46.0868 21.4047 50.7189C23.0604 55.3511 26.1617 59.3281 30.2506 62.0628C34.3395 64.7975 39.1994 66.145 44.1128 65.9063C49.0261 65.6676 53.7325 63.8554 57.5371 60.7372C61.3417 57.619 64.0429 53.3601 65.2418 48.5893C66.2777 44.4672 66.1446 40.1517 64.8776 36.1217C64.5463 35.068 63.3677 34.5842 62.3468 35.006L60.7449 35.668C59.724 36.0898 59.2506 37.2575 59.5512 38.3204C60.3665 41.2041 60.4173 44.2632 59.6813 47.192C58.7821 50.7701 56.7563 53.9643 53.9028 56.3029C51.0494 58.6416 47.5196 60.0007 43.8346 60.1797C40.1496 60.3588 36.5046 59.3481 33.4379 57.2971C30.3712 55.2461 28.0453 52.2633 26.8035 48.7892C25.5618 45.3151 25.47 41.5338 26.5417 38.0035C27.6134 34.4732 29.7919 31.3811 32.7555 29.1837C35.1813 27.385 38.0279 26.2638 41.0044 25.9161C42.1015 25.788 43 24.9046 43 23.8V22.0667Z" fill="white"/>
<path d="M40.0483 17.4732C40.0483 16.5494 41.0483 15.972 41.8483 16.4339L52.2233 22.4239C53.0233 22.8858 53.0233 24.0405 52.2233 24.5024L41.8483 30.4924C41.0483 30.9543 40.0483 30.3769 40.0483 29.4532L40.0483 17.4732Z" fill="white"/>
</svg>
