<svg width="120" height="119" viewBox="0 0 120 119" fill="none" xmlns="http://www.w3.org/2000/svg">
<path fill-rule="evenodd" clip-rule="evenodd" d="M41.9823 90.5191C41.9823 83.3827 36.2039 77.6043 29.0674 77.6043C21.9599 77.6043 16.1525 83.3827 16.1525 90.5191C16.1525 97.6265 21.9599 103.434 29.0674 103.434C36.2039 103.434 41.9823 97.6265 41.9823 90.5191ZM21.3243 90.5191C21.3243 86.243 24.7913 82.776 29.0674 82.776C33.3435 82.776 36.8106 86.243 36.8106 90.5191C36.8106 94.7951 33.3435 98.2621 29.0674 98.2621C24.7913 98.2621 21.3243 94.7951 21.3243 90.5191Z" fill="#92D1D9"/>
<path fill-rule="evenodd" clip-rule="evenodd" d="M116.958 25.916H57.3531C56.053 11.441 43.8604 0.0575256 29.0675 0.0575256C13.4078 0.0575256 0.63739 12.8279 0.63739 28.4874V90.5188C0.63739 106.178 13.4078 118.949 29.0675 118.949H116.958C118.374 118.949 119.53 117.793 119.53 116.377V28.4874C119.53 27.0428 118.374 25.916 116.958 25.916V25.916ZM5.80908 28.4874C5.80908 15.6593 16.2392 5.22922 29.0674 5.22922C41.8956 5.22922 52.3258 15.6593 52.3258 28.4874V74.2236C47.183 66.885 38.6886 62.0889 29.0674 62.0889C19.4752 62.0889 10.9519 66.885 5.80908 74.2236V28.4874V28.4874ZM5.80908 90.5188C5.80908 77.6907 16.2392 67.2606 29.0674 67.2606C41.8956 67.2606 52.3258 77.6907 52.3258 90.5188C52.3258 103.347 41.8956 113.777 29.0674 113.777C16.2392 113.777 5.80908 103.347 5.80908 90.5188ZM114.358 113.777H104.014V80.1754C104.014 78.7597 102.859 77.604 101.443 77.604C99.9982 77.604 98.8425 78.7597 98.8425 80.1754V113.777H45.3627C52.7014 108.634 57.4976 100.14 57.4976 90.5188V31.0877H98.8425V64.6603C98.8425 66.1049 99.9982 67.2606 101.443 67.2606C102.859 67.2606 104.014 66.1049 104.014 64.6603V31.0877H114.358V113.777Z" fill="#92D1D9"/>
</svg>
