<svg width="81" height="116" viewBox="0 0 81 116" fill="none" xmlns="http://www.w3.org/2000/svg">
<path fill-rule="evenodd" clip-rule="evenodd" d="M61.0865 17.0381V9.6886H51.6487C51.3876 8.66449 50.986 7.70062 50.4438 6.77689C49.4197 4.96964 47.9136 3.46359 46.1064 2.4194C44.2991 1.37521 42.271 0.833038 40.1826 0.833038C38.0942 0.833038 36.046 1.37521 34.2589 2.4194C32.4516 3.46359 30.9455 4.96964 29.9214 6.77689C29.3792 7.70062 28.9776 8.66449 28.7166 9.6886H19.2787V17.0381H8.75641C7.29053 17.0381 5.82465 17.4196 4.55957 18.1626C3.27441 18.8855 2.23022 19.9498 1.48724 21.235C0.744263 22.5 0.362732 23.9458 0.362732 25.4117V107.401C0.362732 108.887 0.744263 110.333 1.48724 111.598C2.23022 112.883 3.27441 113.947 4.55957 114.69C5.70416 115.353 7.0094 115.734 8.31464 115.795H72.0506C73.3759 115.734 74.6611 115.353 75.8057 114.69C77.0908 113.947 78.1551 112.883 78.8981 111.598C79.5607 110.453 79.9222 109.168 80.0025 107.843V66.4364V25.0302C79.9222 23.6848 79.5607 22.3795 78.8981 21.235C78.1551 19.9498 77.0908 18.8855 75.8057 18.1626C74.5406 17.4196 73.0948 17.0381 71.6088 17.0381H61.0865ZM43.1144 7.6203C43.9578 8.12231 44.7007 8.84521 45.2228 9.6886H35.1424C35.6645 8.84521 36.3874 8.12231 37.2509 7.6203C38.1344 7.09821 39.1585 6.83716 40.1826 6.83716C41.2067 6.83716 42.2108 7.09821 43.1144 7.6203ZM25.2828 15.6927H55.0825V25.5121H25.2828V15.6927ZM73.9984 107.401C73.9984 107.823 73.898 108.244 73.6771 108.606C73.4763 108.967 73.1751 109.268 72.7936 109.489C72.4321 109.69 72.0305 109.811 71.6088 109.811H8.75641C8.33472 109.811 7.91302 109.69 7.55157 109.489C7.19012 109.268 6.88892 108.967 6.66803 108.606C6.46722 108.244 6.36682 107.823 6.36682 107.401V25.4117C6.36682 24.9699 6.46722 24.5683 6.66803 24.2069C6.88892 23.8454 7.19012 23.5241 7.55157 23.3233C7.91302 23.1024 8.33472 23.002 8.75641 23.002H19.2787V31.4962H61.0865V23.0221H71.6088C72.0305 23.0221 72.4522 23.1426 72.8137 23.3434C73.1751 23.5643 73.4763 23.8655 73.6771 24.227C73.898 24.5884 74.0185 24.99 74.0185 25.4117L73.9984 107.401Z" fill="#92D1D9"/>
<path fill-rule="evenodd" clip-rule="evenodd" d="M38.6757 38.7847H33.6578V46.1926H26.921V38.7847H21.8566V46.1926H16.4671V50.2021H21.8566V56.8081H16.4671V60.8175H21.8566V67.8436H26.921V60.7794H33.6578V67.8054H38.6757V60.7794H44.1582V56.8081H38.7222V50.1639H44.1582V46.1544H38.7222L38.6757 38.7847V38.7847ZM33.6578 56.8081H26.921V50.1639H33.6578V56.8081Z" fill="#92D1D9"/>
</svg>
