<?xml version="1.0" encoding="utf-8"?>
<!-- Generator: Adobe Illustrator 25.3.1, SVG Export Plug-In . SVG Version: 6.00 Build 0)  -->
<svg version="1.1" xmlns="http://www.w3.org/2000/svg" xmlns:xlink="http://www.w3.org/1999/xlink" x="0px" y="0px"
	 viewBox="0 0 33 33" style="enable-background:new 0 0 33 33;" xml:space="preserve">
<style type="text/css">
	.st0{display:none;}
	.st1{display:inline;fill:#616160;}
	.st2{display:inline;fill:#575756;stroke:#FFFFFF;stroke-width:0.6467;stroke-miterlimit:10;}
	.st3{fill:#FFFFFF;}
	.st4{fill:#30343F;}
	.st5{opacity:0.76;fill:#30343F;}
	.st6{opacity:0.3;fill:#30343F;}
	.st7{opacity:0.75;}
	.st8{fill:#55575F;}
	.st9{fill:none;stroke:#30343F;stroke-width:1.7954;stroke-miterlimit:10;}
	.st10{opacity:0.76;fill:#FFFFFF;stroke:#FFFFFF;stroke-width:0.3681;stroke-miterlimit:10;}
	.st11{fill:#FFFFFF;stroke:#FFFFFF;stroke-width:0.3681;stroke-miterlimit:10;}
	.st12{opacity:0.3;fill:#FFFFFF;stroke:#FFFFFF;stroke-width:0.3681;stroke-miterlimit:10;}
	.st13{fill:#FFFFFF;stroke:#FFFFFF;stroke-width:0.3133;stroke-miterlimit:10;}
	.st14{fill:#A0666C;}
	.st15{opacity:0.5;}
	.st16{clip-path:url(#SVGID_2_);fill:#7D9ED2;}
	.st17{clip-path:url(#SVGID_2_);fill:#7C9DD1;}
	.st18{clip-path:url(#SVGID_2_);fill:#7C9CD1;}
	.st19{clip-path:url(#SVGID_2_);fill:#7B9BD0;}
	.st20{clip-path:url(#SVGID_2_);fill:#7A9ACF;}
	.st21{clip-path:url(#SVGID_2_);fill:#7A99CF;}
	.st22{clip-path:url(#SVGID_2_);fill:#7998CE;}
	.st23{clip-path:url(#SVGID_2_);fill:#7897CD;}
	.st24{clip-path:url(#SVGID_2_);fill:#7896CC;}
	.st25{clip-path:url(#SVGID_2_);fill:#7795CC;}
	.st26{clip-path:url(#SVGID_2_);fill:#7794CB;}
	.st27{clip-path:url(#SVGID_2_);fill:#7693CA;}
	.st28{clip-path:url(#SVGID_2_);fill:#7592CA;}
	.st29{clip-path:url(#SVGID_2_);fill:#7591C9;}
	.st30{clip-path:url(#SVGID_2_);fill:#7490C8;}
	.st31{clip-path:url(#SVGID_2_);fill:#738FC8;}
	.st32{clip-path:url(#SVGID_2_);fill:#738EC7;}
	.st33{clip-path:url(#SVGID_2_);fill:#728DC6;}
	.st34{clip-path:url(#SVGID_2_);fill:#718CC6;}
	.st35{clip-path:url(#SVGID_2_);fill:#718BC5;}
	.st36{clip-path:url(#SVGID_2_);fill:#708AC4;}
	.st37{clip-path:url(#SVGID_2_);fill:#6F89C3;}
	.st38{clip-path:url(#SVGID_2_);fill:#6F88C3;}
	.st39{clip-path:url(#SVGID_2_);fill:#6E87C2;}
	.st40{clip-path:url(#SVGID_2_);fill:#6E86C1;}
	.st41{clip-path:url(#SVGID_2_);fill:#6D85C1;}
	.st42{clip-path:url(#SVGID_2_);fill:#6C84C0;}
	.st43{clip-path:url(#SVGID_2_);fill:#6C83BF;}
	.st44{clip-path:url(#SVGID_2_);fill:#6B82BF;}
	.st45{clip-path:url(#SVGID_2_);fill:#6A81BE;}
	.st46{clip-path:url(#SVGID_2_);fill:#6A80BD;}
	.st47{clip-path:url(#SVGID_2_);fill:#697FBD;}
	.st48{clip-path:url(#SVGID_2_);fill:#687DBC;}
	.st49{clip-path:url(#SVGID_2_);fill:#687CBB;}
	.st50{clip-path:url(#SVGID_2_);fill:#677BBA;}
	.st51{clip-path:url(#SVGID_2_);fill:#667ABA;}
	.st52{clip-path:url(#SVGID_2_);fill:#6679B9;}
	.st53{clip-path:url(#SVGID_2_);fill:#6578B8;}
	.st54{clip-path:url(#SVGID_2_);fill:#6477B8;}
	.st55{clip-path:url(#SVGID_2_);fill:#6476B7;}
	.st56{clip-path:url(#SVGID_2_);fill:#6375B6;}
	.st57{clip-path:url(#SVGID_2_);fill:#6374B6;}
	.st58{clip-path:url(#SVGID_2_);fill:#6273B5;}
	.st59{clip-path:url(#SVGID_2_);fill:#6172B4;}
	.st60{clip-path:url(#SVGID_2_);fill:#6171B3;}
	.st61{clip-path:url(#SVGID_2_);fill:#6070B3;}
	.st62{clip-path:url(#SVGID_2_);fill:#5F6FB2;}
	.st63{clip-path:url(#SVGID_2_);fill:#5F6EB1;}
	.st64{clip-path:url(#SVGID_2_);fill:#5E6DB1;}
	.st65{clip-path:url(#SVGID_2_);fill:#5D6CB0;}
	.st66{clip-path:url(#SVGID_2_);fill:#5D6BAF;}
	.st67{clip-path:url(#SVGID_2_);fill:#5C6AAF;}
	.st68{clip-path:url(#SVGID_2_);fill:#5B69AE;}
	.st69{clip-path:url(#SVGID_2_);fill:#5B68AD;}
	.st70{clip-path:url(#SVGID_2_);fill:#5A67AD;}
	.st71{clip-path:url(#SVGID_2_);fill:#5A66AC;}
	.st72{clip-path:url(#SVGID_2_);fill:#5965AB;}
	.st73{clip-path:url(#SVGID_2_);fill:#5864AA;}
	.st74{clip-path:url(#SVGID_2_);fill:#5863AA;}
	.st75{clip-path:url(#SVGID_2_);fill:#5762A9;}
	.st76{clip-path:url(#SVGID_2_);fill:#5661A8;}
	.st77{clip-path:url(#SVGID_2_);fill:#5660A8;}
	.st78{clip-path:url(#SVGID_2_);fill:#555FA7;}
	.st79{clip-path:url(#SVGID_4_);fill:#7D9ED2;}
	.st80{clip-path:url(#SVGID_4_);fill:#7C9DD1;}
	.st81{clip-path:url(#SVGID_4_);fill:#7C9CD1;}
	.st82{clip-path:url(#SVGID_4_);fill:#7B9BD0;}
	.st83{clip-path:url(#SVGID_4_);fill:#7A9ACF;}
	.st84{clip-path:url(#SVGID_4_);fill:#7A99CF;}
	.st85{clip-path:url(#SVGID_4_);fill:#7998CE;}
	.st86{clip-path:url(#SVGID_4_);fill:#7897CD;}
	.st87{clip-path:url(#SVGID_4_);fill:#7896CC;}
	.st88{clip-path:url(#SVGID_4_);fill:#7795CC;}
	.st89{clip-path:url(#SVGID_4_);fill:#7794CB;}
	.st90{clip-path:url(#SVGID_4_);fill:#7693CA;}
	.st91{clip-path:url(#SVGID_4_);fill:#7592CA;}
	.st92{clip-path:url(#SVGID_4_);fill:#7591C9;}
	.st93{clip-path:url(#SVGID_4_);fill:#7490C8;}
	.st94{clip-path:url(#SVGID_4_);fill:#738FC8;}
	.st95{clip-path:url(#SVGID_4_);fill:#738EC7;}
	.st96{clip-path:url(#SVGID_4_);fill:#728DC6;}
	.st97{clip-path:url(#SVGID_4_);fill:#718CC6;}
	.st98{clip-path:url(#SVGID_4_);fill:#718BC5;}
	.st99{clip-path:url(#SVGID_4_);fill:#708AC4;}
	.st100{clip-path:url(#SVGID_4_);fill:#6F89C3;}
	.st101{clip-path:url(#SVGID_4_);fill:#6F88C3;}
	.st102{clip-path:url(#SVGID_4_);fill:#6E87C2;}
	.st103{clip-path:url(#SVGID_4_);fill:#6E86C1;}
	.st104{clip-path:url(#SVGID_4_);fill:#6D85C1;}
	.st105{clip-path:url(#SVGID_4_);fill:#6C84C0;}
	.st106{clip-path:url(#SVGID_4_);fill:#6C83BF;}
	.st107{clip-path:url(#SVGID_4_);fill:#6B82BF;}
	.st108{clip-path:url(#SVGID_4_);fill:#6A81BE;}
	.st109{clip-path:url(#SVGID_4_);fill:#6A80BD;}
	.st110{clip-path:url(#SVGID_4_);fill:#697FBD;}
	.st111{clip-path:url(#SVGID_4_);fill:#687DBC;}
	.st112{clip-path:url(#SVGID_4_);fill:#687CBB;}
	.st113{clip-path:url(#SVGID_4_);fill:#677BBA;}
	.st114{clip-path:url(#SVGID_4_);fill:#667ABA;}
	.st115{clip-path:url(#SVGID_4_);fill:#6679B9;}
	.st116{clip-path:url(#SVGID_4_);fill:#6578B8;}
	.st117{clip-path:url(#SVGID_4_);fill:#6477B8;}
	.st118{clip-path:url(#SVGID_4_);fill:#6476B7;}
	.st119{clip-path:url(#SVGID_4_);fill:#6375B6;}
	.st120{clip-path:url(#SVGID_4_);fill:#6374B6;}
	.st121{clip-path:url(#SVGID_4_);fill:#6273B5;}
	.st122{clip-path:url(#SVGID_4_);fill:#6172B4;}
	.st123{clip-path:url(#SVGID_4_);fill:#6171B3;}
	.st124{clip-path:url(#SVGID_4_);fill:#6070B3;}
	.st125{clip-path:url(#SVGID_4_);fill:#5F6FB2;}
	.st126{clip-path:url(#SVGID_4_);fill:#5F6EB1;}
	.st127{clip-path:url(#SVGID_4_);fill:#5E6DB1;}
	.st128{clip-path:url(#SVGID_4_);fill:#5D6CB0;}
	.st129{clip-path:url(#SVGID_4_);fill:#5D6BAF;}
	.st130{clip-path:url(#SVGID_4_);fill:#5C6AAF;}
	.st131{clip-path:url(#SVGID_4_);fill:#5B69AE;}
	.st132{clip-path:url(#SVGID_4_);fill:#5B68AD;}
	.st133{clip-path:url(#SVGID_4_);fill:#5A67AD;}
	.st134{clip-path:url(#SVGID_4_);fill:#5A66AC;}
	.st135{clip-path:url(#SVGID_4_);fill:#5965AB;}
	.st136{clip-path:url(#SVGID_4_);fill:#5864AA;}
	.st137{clip-path:url(#SVGID_4_);fill:#5863AA;}
	.st138{clip-path:url(#SVGID_4_);fill:#5762A9;}
	.st139{clip-path:url(#SVGID_4_);fill:#5661A8;}
	.st140{clip-path:url(#SVGID_4_);fill:#5660A8;}
	.st141{clip-path:url(#SVGID_4_);fill:#555FA7;}
	.st142{clip-path:url(#SVGID_6_);fill:#7D9ED2;}
	.st143{clip-path:url(#SVGID_6_);fill:#7C9DD1;}
	.st144{clip-path:url(#SVGID_6_);fill:#7C9CD1;}
	.st145{clip-path:url(#SVGID_6_);fill:#7B9BD0;}
	.st146{clip-path:url(#SVGID_6_);fill:#7A9ACF;}
	.st147{clip-path:url(#SVGID_6_);fill:#7A99CF;}
	.st148{clip-path:url(#SVGID_6_);fill:#7998CE;}
	.st149{clip-path:url(#SVGID_6_);fill:#7897CD;}
	.st150{clip-path:url(#SVGID_6_);fill:#7896CC;}
	.st151{clip-path:url(#SVGID_6_);fill:#7795CC;}
	.st152{clip-path:url(#SVGID_6_);fill:#7794CB;}
	.st153{clip-path:url(#SVGID_6_);fill:#7693CA;}
	.st154{clip-path:url(#SVGID_6_);fill:#7592CA;}
	.st155{clip-path:url(#SVGID_6_);fill:#7591C9;}
	.st156{clip-path:url(#SVGID_6_);fill:#7490C8;}
	.st157{clip-path:url(#SVGID_6_);fill:#738FC8;}
	.st158{clip-path:url(#SVGID_6_);fill:#738EC7;}
	.st159{clip-path:url(#SVGID_6_);fill:#728DC6;}
	.st160{clip-path:url(#SVGID_6_);fill:#718CC6;}
	.st161{clip-path:url(#SVGID_6_);fill:#718BC5;}
	.st162{clip-path:url(#SVGID_6_);fill:#708AC4;}
	.st163{clip-path:url(#SVGID_6_);fill:#6F89C3;}
	.st164{clip-path:url(#SVGID_6_);fill:#6F88C3;}
	.st165{clip-path:url(#SVGID_6_);fill:#6E87C2;}
	.st166{clip-path:url(#SVGID_6_);fill:#6E86C1;}
	.st167{clip-path:url(#SVGID_6_);fill:#6D85C1;}
	.st168{clip-path:url(#SVGID_6_);fill:#6C84C0;}
	.st169{clip-path:url(#SVGID_6_);fill:#6C83BF;}
	.st170{clip-path:url(#SVGID_6_);fill:#6B82BF;}
	.st171{clip-path:url(#SVGID_6_);fill:#6A81BE;}
	.st172{clip-path:url(#SVGID_6_);fill:#6A80BD;}
	.st173{clip-path:url(#SVGID_6_);fill:#697FBD;}
	.st174{clip-path:url(#SVGID_6_);fill:#687DBC;}
	.st175{clip-path:url(#SVGID_6_);fill:#687CBB;}
	.st176{clip-path:url(#SVGID_6_);fill:#677BBA;}
	.st177{clip-path:url(#SVGID_6_);fill:#667ABA;}
	.st178{clip-path:url(#SVGID_6_);fill:#6679B9;}
	.st179{clip-path:url(#SVGID_6_);fill:#6578B8;}
	.st180{clip-path:url(#SVGID_6_);fill:#6477B8;}
	.st181{clip-path:url(#SVGID_6_);fill:#6476B7;}
	.st182{clip-path:url(#SVGID_6_);fill:#6375B6;}
	.st183{clip-path:url(#SVGID_6_);fill:#6374B6;}
	.st184{clip-path:url(#SVGID_6_);fill:#6273B5;}
	.st185{clip-path:url(#SVGID_6_);fill:#6172B4;}
	.st186{clip-path:url(#SVGID_6_);fill:#6171B3;}
	.st187{clip-path:url(#SVGID_6_);fill:#6070B3;}
	.st188{clip-path:url(#SVGID_6_);fill:#5F6FB2;}
	.st189{clip-path:url(#SVGID_6_);fill:#5F6EB1;}
	.st190{clip-path:url(#SVGID_6_);fill:#5E6DB1;}
	.st191{clip-path:url(#SVGID_6_);fill:#5D6CB0;}
	.st192{clip-path:url(#SVGID_6_);fill:#5D6BAF;}
	.st193{clip-path:url(#SVGID_6_);fill:#5C6AAF;}
	.st194{clip-path:url(#SVGID_6_);fill:#5B69AE;}
	.st195{clip-path:url(#SVGID_6_);fill:#5B68AD;}
	.st196{clip-path:url(#SVGID_6_);fill:#5A67AD;}
	.st197{clip-path:url(#SVGID_6_);fill:#5A66AC;}
	.st198{clip-path:url(#SVGID_6_);fill:#5965AB;}
	.st199{clip-path:url(#SVGID_6_);fill:#5864AA;}
	.st200{clip-path:url(#SVGID_6_);fill:#5863AA;}
	.st201{clip-path:url(#SVGID_6_);fill:#5762A9;}
	.st202{clip-path:url(#SVGID_6_);fill:#5661A8;}
	.st203{clip-path:url(#SVGID_6_);fill:#5660A8;}
	.st204{clip-path:url(#SVGID_6_);fill:#555FA7;}
	.st205{clip-path:url(#SVGID_8_);fill:#7D9ED2;}
	.st206{clip-path:url(#SVGID_8_);fill:#7C9DD1;}
	.st207{clip-path:url(#SVGID_8_);fill:#7C9CD1;}
	.st208{clip-path:url(#SVGID_8_);fill:#7B9BD0;}
	.st209{clip-path:url(#SVGID_8_);fill:#7A9ACF;}
	.st210{clip-path:url(#SVGID_8_);fill:#7A99CF;}
	.st211{clip-path:url(#SVGID_8_);fill:#7998CE;}
	.st212{clip-path:url(#SVGID_8_);fill:#7897CD;}
	.st213{clip-path:url(#SVGID_8_);fill:#7896CC;}
	.st214{clip-path:url(#SVGID_8_);fill:#7795CC;}
	.st215{clip-path:url(#SVGID_8_);fill:#7794CB;}
	.st216{clip-path:url(#SVGID_8_);fill:#7693CA;}
	.st217{clip-path:url(#SVGID_8_);fill:#7592CA;}
	.st218{clip-path:url(#SVGID_8_);fill:#7591C9;}
	.st219{clip-path:url(#SVGID_8_);fill:#7490C8;}
	.st220{clip-path:url(#SVGID_8_);fill:#738FC8;}
	.st221{clip-path:url(#SVGID_8_);fill:#738EC7;}
	.st222{clip-path:url(#SVGID_8_);fill:#728DC6;}
	.st223{clip-path:url(#SVGID_8_);fill:#718CC6;}
	.st224{clip-path:url(#SVGID_8_);fill:#718BC5;}
	.st225{clip-path:url(#SVGID_8_);fill:#708AC4;}
	.st226{clip-path:url(#SVGID_8_);fill:#6F89C3;}
	.st227{clip-path:url(#SVGID_8_);fill:#6F88C3;}
	.st228{clip-path:url(#SVGID_8_);fill:#6E87C2;}
	.st229{clip-path:url(#SVGID_8_);fill:#6E86C1;}
	.st230{clip-path:url(#SVGID_8_);fill:#6D85C1;}
	.st231{clip-path:url(#SVGID_8_);fill:#6C84C0;}
	.st232{clip-path:url(#SVGID_8_);fill:#6C83BF;}
	.st233{clip-path:url(#SVGID_8_);fill:#6B82BF;}
	.st234{clip-path:url(#SVGID_8_);fill:#6A81BE;}
	.st235{clip-path:url(#SVGID_8_);fill:#6A80BD;}
	.st236{clip-path:url(#SVGID_8_);fill:#697FBD;}
	.st237{clip-path:url(#SVGID_8_);fill:#687DBC;}
	.st238{clip-path:url(#SVGID_8_);fill:#687CBB;}
	.st239{clip-path:url(#SVGID_8_);fill:#677BBA;}
	.st240{clip-path:url(#SVGID_8_);fill:#667ABA;}
	.st241{clip-path:url(#SVGID_8_);fill:#6679B9;}
	.st242{clip-path:url(#SVGID_8_);fill:#6578B8;}
	.st243{clip-path:url(#SVGID_8_);fill:#6477B8;}
	.st244{clip-path:url(#SVGID_8_);fill:#6476B7;}
	.st245{clip-path:url(#SVGID_8_);fill:#6375B6;}
	.st246{clip-path:url(#SVGID_8_);fill:#6374B6;}
	.st247{clip-path:url(#SVGID_8_);fill:#6273B5;}
	.st248{clip-path:url(#SVGID_8_);fill:#6172B4;}
	.st249{clip-path:url(#SVGID_8_);fill:#6171B3;}
	.st250{clip-path:url(#SVGID_8_);fill:#6070B3;}
	.st251{clip-path:url(#SVGID_8_);fill:#5F6FB2;}
	.st252{clip-path:url(#SVGID_8_);fill:#5F6EB1;}
	.st253{clip-path:url(#SVGID_8_);fill:#5E6DB1;}
	.st254{clip-path:url(#SVGID_8_);fill:#5D6CB0;}
	.st255{clip-path:url(#SVGID_8_);fill:#5D6BAF;}
	.st256{clip-path:url(#SVGID_8_);fill:#5C6AAF;}
	.st257{clip-path:url(#SVGID_8_);fill:#5B69AE;}
	.st258{clip-path:url(#SVGID_8_);fill:#5B68AD;}
	.st259{clip-path:url(#SVGID_8_);fill:#5A67AD;}
	.st260{clip-path:url(#SVGID_8_);fill:#5A66AC;}
	.st261{clip-path:url(#SVGID_8_);fill:#5965AB;}
	.st262{clip-path:url(#SVGID_8_);fill:#5864AA;}
	.st263{clip-path:url(#SVGID_8_);fill:#5863AA;}
	.st264{clip-path:url(#SVGID_8_);fill:#5762A9;}
	.st265{clip-path:url(#SVGID_8_);fill:#5661A8;}
	.st266{clip-path:url(#SVGID_8_);fill:#5660A8;}
	.st267{clip-path:url(#SVGID_8_);fill:#555FA7;}
	.st268{clip-path:url(#SVGID_10_);fill:#7D9ED2;}
	.st269{clip-path:url(#SVGID_10_);fill:#7C9DD1;}
	.st270{clip-path:url(#SVGID_10_);fill:#7C9CD1;}
	.st271{clip-path:url(#SVGID_10_);fill:#7B9BD0;}
	.st272{clip-path:url(#SVGID_10_);fill:#7A9ACF;}
	.st273{clip-path:url(#SVGID_10_);fill:#7A99CF;}
	.st274{clip-path:url(#SVGID_10_);fill:#7998CE;}
	.st275{clip-path:url(#SVGID_10_);fill:#7897CD;}
	.st276{clip-path:url(#SVGID_10_);fill:#7896CC;}
	.st277{clip-path:url(#SVGID_10_);fill:#7795CC;}
	.st278{clip-path:url(#SVGID_10_);fill:#7794CB;}
	.st279{clip-path:url(#SVGID_10_);fill:#7693CA;}
	.st280{clip-path:url(#SVGID_10_);fill:#7592CA;}
	.st281{clip-path:url(#SVGID_10_);fill:#7591C9;}
	.st282{clip-path:url(#SVGID_10_);fill:#7490C8;}
	.st283{clip-path:url(#SVGID_10_);fill:#738FC8;}
	.st284{clip-path:url(#SVGID_10_);fill:#738EC7;}
	.st285{clip-path:url(#SVGID_10_);fill:#728DC6;}
	.st286{clip-path:url(#SVGID_10_);fill:#718CC6;}
	.st287{clip-path:url(#SVGID_10_);fill:#718BC5;}
	.st288{clip-path:url(#SVGID_10_);fill:#708AC4;}
	.st289{clip-path:url(#SVGID_10_);fill:#6F89C3;}
	.st290{clip-path:url(#SVGID_10_);fill:#6F88C3;}
	.st291{clip-path:url(#SVGID_10_);fill:#6E87C2;}
	.st292{clip-path:url(#SVGID_10_);fill:#6E86C1;}
	.st293{clip-path:url(#SVGID_10_);fill:#6D85C1;}
	.st294{clip-path:url(#SVGID_10_);fill:#6C84C0;}
	.st295{clip-path:url(#SVGID_10_);fill:#6C83BF;}
	.st296{clip-path:url(#SVGID_10_);fill:#6B82BF;}
	.st297{clip-path:url(#SVGID_10_);fill:#6A81BE;}
	.st298{clip-path:url(#SVGID_10_);fill:#6A80BD;}
	.st299{clip-path:url(#SVGID_10_);fill:#697FBD;}
	.st300{clip-path:url(#SVGID_10_);fill:#687DBC;}
	.st301{clip-path:url(#SVGID_10_);fill:#687CBB;}
	.st302{clip-path:url(#SVGID_10_);fill:#677BBA;}
	.st303{clip-path:url(#SVGID_10_);fill:#667ABA;}
	.st304{clip-path:url(#SVGID_10_);fill:#6679B9;}
	.st305{clip-path:url(#SVGID_10_);fill:#6578B8;}
	.st306{clip-path:url(#SVGID_10_);fill:#6477B8;}
	.st307{clip-path:url(#SVGID_10_);fill:#6476B7;}
	.st308{clip-path:url(#SVGID_10_);fill:#6375B6;}
	.st309{clip-path:url(#SVGID_10_);fill:#6374B6;}
	.st310{clip-path:url(#SVGID_10_);fill:#6273B5;}
	.st311{clip-path:url(#SVGID_10_);fill:#6172B4;}
	.st312{clip-path:url(#SVGID_10_);fill:#6171B3;}
	.st313{clip-path:url(#SVGID_10_);fill:#6070B3;}
	.st314{clip-path:url(#SVGID_10_);fill:#5F6FB2;}
	.st315{clip-path:url(#SVGID_10_);fill:#5F6EB1;}
	.st316{clip-path:url(#SVGID_10_);fill:#5E6DB1;}
	.st317{clip-path:url(#SVGID_10_);fill:#5D6CB0;}
	.st318{clip-path:url(#SVGID_10_);fill:#5D6BAF;}
	.st319{clip-path:url(#SVGID_10_);fill:#5C6AAF;}
	.st320{clip-path:url(#SVGID_10_);fill:#5B69AE;}
	.st321{clip-path:url(#SVGID_10_);fill:#5B68AD;}
	.st322{clip-path:url(#SVGID_10_);fill:#5A67AD;}
	.st323{clip-path:url(#SVGID_10_);fill:#5A66AC;}
	.st324{clip-path:url(#SVGID_10_);fill:#5965AB;}
	.st325{clip-path:url(#SVGID_10_);fill:#5864AA;}
	.st326{clip-path:url(#SVGID_10_);fill:#5863AA;}
	.st327{clip-path:url(#SVGID_10_);fill:#5762A9;}
	.st328{clip-path:url(#SVGID_10_);fill:#5661A8;}
	.st329{clip-path:url(#SVGID_10_);fill:#5660A8;}
	.st330{clip-path:url(#SVGID_10_);fill:#555FA7;}
	.st331{fill:url(#SVGID_11_);}
	.st332{fill:#FFFFFF;stroke:#FFFFFF;stroke-width:0.4568;stroke-miterlimit:10;}
	.st333{fill:#E63242;}
	.st334{fill:#FFFFFF;stroke:#FFFFFF;stroke-width:0.5165;stroke-miterlimit:10;}
	.st335{fill:#9A9B99;}
	.st336{fill:none;stroke:#FFFFFF;stroke-width:1.7319;stroke-miterlimit:10;}
	.st337{fill:#FFFFFF;stroke:#55575F;stroke-width:0.2758;stroke-miterlimit:10;}
	.st338{fill:#5948FF;}
	.st339{fill:#2F343E;}
	.st340{fill:#E1566B;}
	.st341{fill:#2F343E;stroke:#E1566B;stroke-width:0.0547;stroke-miterlimit:10;}
</style>
<g id="Camada_2" class="st0">
	<rect x="-497.59" y="-143.9" class="st1" width="683.22" height="683.22"/>
</g>
<g id="Camada_3" class="st0">
	<rect x="-417.45" y="-115.51" class="st2" width="463.11" height="678.52"/>
</g>
<g id="Camada_1">
	<g>
		<path class="st10" d="M6.88,27.43c-0.46-0.52-0.72-1.24-0.8-2.16c-0.05-0.63,0.03-1.26,0.22-1.87l0.01-0.03
			c0-0.01,0-0.02,0.01-0.02c0.1-0.32,0.22-0.63,0.36-0.93c0-0.01,0.01-0.02,0.01-0.02l0.01-0.02c0.08-0.18,0.16-0.35,0.24-0.52
			c0.08-0.17,0.16-0.34,0.23-0.51c0.17-0.37,0.3-0.72,0.37-1.07c0.08-0.38,0.06-0.78-0.06-1.15c-0.1-0.3-0.26-0.58-0.48-0.81
			c-0.27-0.3-0.6-0.54-0.97-0.7c-0.26-0.12-0.54-0.18-0.83-0.19c-0.34,0.01-0.67,0.1-0.98,0.26c-0.39,0.2-0.72,0.48-0.98,0.83
			c-0.14,0.19-0.25,0.4-0.32,0.62c-0.1,0.31-0.13,0.64-0.09,0.97c0.05,0.38,0.18,0.75,0.35,1.15c0.08,0.19,0.18,0.39,0.28,0.6
			c0.08,0.17,0.16,0.34,0.24,0.52c0,0.01,0.01,0.02,0.01,0.02c0,0.01,0.01,0.02,0.01,0.02c0.14,0.3,0.26,0.61,0.36,0.93l0.01,0.02
			c0,0.01,0.01,0.02,0.01,0.03c0.19,0.6,0.26,1.24,0.21,1.87c-0.07,0.92-0.34,1.64-0.8,2.16c-0.01,0.01-0.01,0.01-0.02,0.02
			c-0.01,0.01-0.01,0.01-0.02,0.02c-0.09,0.1-0.18,0.18-0.28,0.26c-0.16,0.13-0.34,0.24-0.53,0.32l-0.02,0.01l-0.02,0.01
			c-0.41,0.17-0.85,0.24-1.29,0.2l0.14-0.97c0.26,0.01,0.51-0.03,0.75-0.12l0.02-0.01l0.02-0.01c0.12-0.05,0.23-0.12,0.33-0.2
			c0.18-0.15,0.32-0.33,0.43-0.54c0.01-0.01,0.01-0.02,0.02-0.03c0.01-0.01,0.01-0.02,0.02-0.03c0.15-0.32,0.25-0.71,0.28-1.17
			c0.03-0.35,0.01-0.7-0.06-1.04c0-0.01,0-0.02-0.01-0.04c0-0.01,0-0.02-0.01-0.03c-0.08-0.37-0.2-0.73-0.35-1.08
			c0-0.01-0.01-0.02-0.01-0.03c0-0.01-0.01-0.02-0.01-0.02c-0.1-0.23-0.21-0.46-0.31-0.68c-0.08-0.18-0.17-0.36-0.25-0.54
			c-0.14-0.31-0.26-0.64-0.36-0.97c-0.16-0.6-0.2-1.23,0.02-1.93c0.2-0.61,0.58-1.15,1.08-1.56c0.27-0.23,0.58-0.42,0.91-0.56
			c0.38-0.17,0.79-0.26,1.21-0.27h0.02c0.37,0.01,0.73,0.08,1.07,0.21c0.33,0.13,0.64,0.3,0.92,0.52c0.56,0.43,1,1.01,1.21,1.67
			c0.23,0.71,0.18,1.35,0.01,1.96c-0.1,0.33-0.22,0.66-0.36,0.97c-0.07,0.17-0.16,0.34-0.23,0.5c-0.1,0.22-0.21,0.45-0.31,0.68
			L7.5,22.98l-0.01,0.03c-0.15,0.35-0.27,0.71-0.35,1.08c0,0.01,0,0.02-0.01,0.03c0,0.01,0,0.02-0.01,0.04
			c-0.07,0.34-0.09,0.69-0.06,1.04c0.04,0.47,0.13,0.86,0.28,1.17c0,0.01,0.01,0.02,0.02,0.03c0.01,0.01,0.01,0.02,0.02,0.03
			c0.11,0.21,0.26,0.4,0.44,0.55c0.1,0.08,0.21,0.14,0.32,0.2l0.02,0.01l0.02,0.01c0.24,0.1,0.51,0.14,0.77,0.12l0.07-0.01
			l0.07,0.01c0.26,0.02,0.53-0.02,0.77-0.12l0.02-0.01l0.02-0.01c0.12-0.05,0.23-0.12,0.33-0.2c0.18-0.15,0.33-0.33,0.43-0.54
			c0.01-0.01,0.01-0.02,0.02-0.03c0.01-0.01,0.01-0.02,0.02-0.03c0.15-0.32,0.25-0.71,0.28-1.17c0.03-0.35,0.01-0.7-0.06-1.04
			c0-0.01,0-0.02-0.01-0.04c0-0.01,0-0.02-0.01-0.03c-0.08-0.37-0.2-0.73-0.35-1.08l-0.01-0.03l-0.01-0.02
			c-0.1-0.23-0.21-0.46-0.31-0.68c-0.08-0.18-0.17-0.36-0.25-0.54c-0.14-0.31-0.26-0.64-0.36-0.97c-0.16-0.6-0.2-1.23,0.02-1.93
			c0.2-0.61,0.58-1.15,1.08-1.56c0.27-0.23,0.58-0.42,0.91-0.56c0.38-0.17,0.79-0.26,1.21-0.27h0.02c0.37,0.01,0.73,0.08,1.07,0.21
			c0.33,0.13,0.64,0.3,0.92,0.52c0.56,0.42,0.99,1.01,1.2,1.66c0.23,0.71,0.18,1.35,0.01,1.96c-0.1,0.33-0.22,0.66-0.36,0.97
			c-0.07,0.17-0.16,0.34-0.23,0.5c-0.1,0.22-0.21,0.45-0.31,0.68l-0.01,0.02L15.14,23c-0.15,0.35-0.27,0.71-0.35,1.08
			c0,0.01,0,0.02-0.01,0.03c0,0.01,0,0.02-0.01,0.04c-0.07,0.34-0.09,0.69-0.06,1.04c0.04,0.47,0.13,0.86,0.28,1.17
			c0.01,0.01,0.01,0.02,0.02,0.03s0.01,0.02,0.02,0.03c0.11,0.21,0.26,0.4,0.44,0.55c0.1,0.08,0.21,0.14,0.32,0.2l0.02,0.01
			l0.02,0.01c0.25,0.1,0.51,0.14,0.78,0.12l0.07-0.01l0.07,0.01c0.26,0.02,0.53-0.02,0.77-0.12l0.02-0.01l0.02-0.01
			c0.12-0.05,0.23-0.12,0.33-0.2c0.18-0.15,0.32-0.33,0.43-0.54c0.01-0.01,0.01-0.02,0.02-0.03c0.01-0.01,0.01-0.02,0.02-0.03
			c0.15-0.32,0.25-0.71,0.28-1.17c0.03-0.35,0.01-0.7-0.06-1.04c0-0.01,0-0.02-0.01-0.04c0-0.01,0-0.02-0.01-0.03
			c-0.08-0.37-0.2-0.73-0.35-1.08c0-0.01-0.01-0.02-0.01-0.03c0-0.01-0.01-0.02-0.01-0.02c-0.1-0.23-0.21-0.46-0.31-0.68
			c-0.08-0.18-0.17-0.36-0.25-0.54c-0.14-0.31-0.26-0.64-0.36-0.97c-0.16-0.6-0.2-1.23,0.02-1.93c0.2-0.61,0.58-1.15,1.08-1.56
			c0.27-0.23,0.58-0.42,0.91-0.56c0.38-0.17,0.79-0.26,1.21-0.27h0.02c0.37,0.01,0.73,0.08,1.07,0.21c0.33,0.13,0.64,0.3,0.92,0.52
			c0.56,0.43,1,1.01,1.21,1.67c0.23,0.71,0.18,1.35,0.01,1.96c-0.1,0.33-0.22,0.66-0.37,0.98c-0.07,0.17-0.16,0.34-0.23,0.5
			c-0.1,0.22-0.21,0.45-0.31,0.68l-0.01,0.02L22.79,23c-0.15,0.35-0.27,0.71-0.35,1.08c0,0.01,0,0.02-0.01,0.03
			c0,0.01,0,0.02-0.01,0.04c-0.07,0.34-0.09,0.69-0.06,1.04c0.04,0.47,0.13,0.86,0.28,1.17c0.01,0.01,0.01,0.02,0.02,0.03
			c0.01,0.01,0.01,0.02,0.02,0.03c0.1,0.21,0.25,0.39,0.42,0.54c0.1,0.08,0.21,0.15,0.33,0.2l0.02,0.01l0.02,0.01
			c0.25,0.1,0.51,0.14,0.78,0.12l0.07-0.01l0.06,0.01c0.26,0.02,0.53-0.02,0.77-0.12l0.02-0.01l0.02-0.01
			c0.12-0.05,0.23-0.12,0.33-0.2c0.18-0.15,0.32-0.33,0.43-0.54c0.01-0.01,0.01-0.02,0.02-0.03s0.01-0.02,0.02-0.03
			c0.15-0.32,0.25-0.71,0.28-1.17c0.03-0.35,0.01-0.7-0.06-1.04c0-0.01,0-0.02-0.01-0.04c0-0.01,0-0.02-0.01-0.03
			c-0.08-0.37-0.2-0.73-0.35-1.08c0-0.01-0.01-0.02-0.01-0.03l-0.01-0.02c-0.1-0.23-0.21-0.46-0.31-0.68
			c-0.08-0.18-0.17-0.36-0.25-0.54c-0.14-0.31-0.26-0.64-0.36-0.97c-0.16-0.6-0.2-1.23,0.02-1.93c0.2-0.61,0.58-1.15,1.08-1.56
			c0.27-0.23,0.58-0.42,0.91-0.56c0.38-0.17,0.79-0.26,1.21-0.27h0.02c0.37,0.01,0.73,0.08,1.07,0.21c0.33,0.13,0.64,0.3,0.92,0.52
			c0.56,0.43,1,1.01,1.21,1.67c0.23,0.71,0.18,1.35,0.01,1.96c-0.1,0.33-0.22,0.66-0.37,0.98c-0.07,0.17-0.16,0.34-0.23,0.5
			c-0.1,0.22-0.21,0.45-0.31,0.68l-0.01,0.02L30.44,23c-0.15,0.35-0.27,0.71-0.35,1.08c0,0.01,0,0.02-0.01,0.03s0,0.02-0.01,0.04
			c-0.07,0.34-0.09,0.69-0.06,1.04c0.04,0.47,0.13,0.86,0.28,1.17c0,0.01,0.01,0.02,0.02,0.03s0.01,0.02,0.02,0.03
			c0.1,0.21,0.25,0.39,0.43,0.54c0.1,0.08,0.21,0.15,0.33,0.2l0.02,0.01c0.01,0,0.02,0.01,0.02,0.01c0.24,0.1,0.49,0.14,0.75,0.12
			l0.13,0.97c-0.08,0.01-0.15,0.01-0.23,0.01c-0.37,0-0.73-0.07-1.07-0.22l-0.02-0.01l-0.02-0.01c-0.19-0.08-0.37-0.19-0.53-0.32
			c-0.1-0.08-0.2-0.17-0.28-0.26l-0.02-0.02c-0.01-0.01-0.01-0.01-0.02-0.02c-0.46-0.52-0.72-1.24-0.8-2.16
			c-0.05-0.63,0.02-1.26,0.22-1.87l0.01-0.03c0-0.01,0-0.02,0.01-0.02c0.1-0.32,0.22-0.63,0.36-0.93c0-0.01,0.01-0.02,0.01-0.02
			l0.01-0.02c0.08-0.18,0.16-0.35,0.24-0.52s0.16-0.34,0.23-0.51c0.17-0.37,0.3-0.72,0.37-1.07c0.08-0.38,0.06-0.78-0.06-1.15
			c-0.1-0.3-0.26-0.58-0.48-0.81c-0.27-0.3-0.6-0.54-0.96-0.71c-0.26-0.12-0.54-0.18-0.83-0.19c-0.34,0.01-0.67,0.1-0.98,0.26
			c-0.39,0.2-0.72,0.48-0.98,0.83l0,0c-0.14,0.19-0.25,0.4-0.32,0.62c-0.1,0.31-0.13,0.64-0.09,0.97c0.05,0.38,0.18,0.75,0.35,1.15
			c0.08,0.19,0.18,0.39,0.28,0.6c0.08,0.17,0.16,0.34,0.24,0.52c0,0.01,0.01,0.02,0.01,0.02c0,0.01,0.01,0.02,0.01,0.02
			c0.14,0.3,0.26,0.61,0.36,0.93l0.01,0.02l0.01,0.03c0.19,0.6,0.26,1.24,0.22,1.87c-0.07,0.92-0.34,1.65-0.8,2.16
			c-0.01,0.01-0.01,0.01-0.02,0.02c-0.01,0.01-0.01,0.01-0.02,0.02c-0.09,0.1-0.18,0.18-0.28,0.27c-0.16,0.13-0.34,0.24-0.53,0.32
			l-0.02,0.01l-0.02,0.01c-0.4,0.16-0.83,0.24-1.25,0.21c-0.43,0.03-0.85-0.04-1.25-0.21l-0.02-0.01l-0.02-0.01
			c-0.19-0.08-0.36-0.19-0.53-0.32c-0.1-0.08-0.2-0.17-0.28-0.26l-0.02-0.02c-0.01-0.01-0.01-0.01-0.02-0.02
			c-0.46-0.52-0.72-1.24-0.8-2.16c-0.05-0.63,0.03-1.26,0.22-1.87l0.01-0.03c0-0.01,0-0.02,0.01-0.02c0.1-0.32,0.22-0.63,0.36-0.93
			c0-0.01,0.01-0.02,0.01-0.02l0.01-0.02c0.08-0.18,0.16-0.35,0.24-0.52s0.16-0.34,0.23-0.51c0.17-0.37,0.3-0.72,0.37-1.07
			c0.08-0.38,0.06-0.78-0.06-1.15c-0.1-0.3-0.26-0.58-0.48-0.81c-0.27-0.3-0.6-0.54-0.97-0.71c-0.26-0.12-0.54-0.18-0.83-0.19
			c-0.34,0.01-0.67,0.1-0.98,0.26c-0.39,0.2-0.72,0.48-0.98,0.83l0,0c-0.14,0.19-0.25,0.4-0.32,0.62c-0.1,0.31-0.13,0.64-0.09,0.97
			c0.05,0.38,0.18,0.75,0.35,1.15c0.08,0.19,0.18,0.39,0.28,0.6c0.08,0.17,0.16,0.34,0.24,0.52c0,0.01,0.01,0.02,0.01,0.02
			c0,0.01,0.01,0.02,0.01,0.02c0.14,0.3,0.26,0.61,0.36,0.93l0.01,0.02l0.01,0.03c0.19,0.6,0.26,1.24,0.21,1.87
			c-0.08,0.92-0.34,1.64-0.8,2.16c-0.01,0.01-0.01,0.01-0.02,0.02c-0.01,0.01-0.01,0.01-0.02,0.02c-0.23,0.25-0.5,0.45-0.81,0.59
			l-0.02,0.01c-0.01,0-0.02,0.01-0.02,0.01c-0.4,0.16-0.83,0.24-1.25,0.21c-0.43,0.03-0.85-0.04-1.25-0.21l-0.02-0.01l-0.02-0.01
			c-0.19-0.08-0.37-0.19-0.53-0.32c-0.1-0.08-0.2-0.17-0.28-0.26l-0.02-0.02c-0.01-0.01-0.01-0.01-0.02-0.02
			c-0.46-0.52-0.72-1.24-0.8-2.16c-0.05-0.63,0.03-1.26,0.22-1.87l0.01-0.03c0-0.01,0-0.02,0.01-0.02c0.1-0.32,0.22-0.63,0.36-0.93
			c0-0.01,0.01-0.02,0.01-0.02l0.01-0.02c0.08-0.18,0.16-0.35,0.24-0.52s0.16-0.34,0.23-0.51c0.17-0.37,0.3-0.72,0.37-1.07
			c0.08-0.38,0.06-0.78-0.06-1.15c-0.1-0.3-0.26-0.58-0.48-0.81c-0.27-0.3-0.6-0.54-0.97-0.71c-0.26-0.12-0.54-0.18-0.83-0.19
			c-0.34,0.01-0.67,0.1-0.98,0.26c-0.39,0.2-0.72,0.48-0.98,0.83l0,0c-0.14,0.19-0.25,0.4-0.32,0.62c-0.1,0.31-0.13,0.64-0.09,0.97
			c0.05,0.38,0.18,0.75,0.35,1.15c0.08,0.19,0.18,0.39,0.28,0.6c0.08,0.17,0.16,0.34,0.24,0.52c0,0.01,0.01,0.02,0.01,0.02
			c0,0.01,0.01,0.02,0.01,0.02c0.14,0.3,0.26,0.61,0.36,0.93c0,0.01,0.01,0.02,0.01,0.02l0.01,0.03c0.19,0.6,0.26,1.24,0.22,1.87
			c-0.07,0.92-0.34,1.65-0.8,2.16c-0.01,0.01-0.01,0.01-0.02,0.02c-0.01,0.01-0.01,0.01-0.02,0.02c-0.23,0.25-0.5,0.45-0.81,0.59
			l-0.02,0.01c-0.01,0-0.02,0.01-0.02,0.01c-0.4,0.16-0.83,0.24-1.25,0.21c-0.43,0.03-0.85-0.04-1.25-0.21l-0.02-0.01l-0.02-0.01
			c-0.19-0.08-0.36-0.19-0.53-0.32c-0.1-0.08-0.2-0.17-0.28-0.26"/>
		<g>
			<path class="st11" d="M1.96,20.72c0.09,0.33,0.21,0.66,0.36,0.97L2.29,21.7l-0.02,0.01c-0.34,0.1-0.7,0.14-1.06,0.1l0.15-1.02
				c0.19,0.01,0.38,0,0.56-0.05l0.02-0.01L1.96,20.72z"/>
			<path class="st11" d="M2.82,20.06c0.01-0.01,0.01-0.02,0.02-0.04c0.01-0.01,0.02-0.02,0.02-0.04c0.19-0.33,0.31-0.77,0.35-1.3
				c0-0.04,0.01-0.08,0.01-0.12c0-0.02,0-0.03,0-0.05c0-0.02,0-0.03,0-0.05c0.01-0.42-0.05-0.84-0.18-1.25l-0.01-0.03
				c0-0.01-0.01-0.02-0.01-0.03c-0.07-0.22-0.15-0.43-0.23-0.63c0-0.01-0.01-0.02-0.01-0.02c0-0.01-0.01-0.02-0.01-0.02
				c-0.1-0.24-0.21-0.48-0.32-0.71L2.37,15.6l-0.01-0.02l-0.01-0.02c-0.46-0.98-0.87-2.01-0.48-3.22c0.15-0.45,0.39-0.86,0.7-1.2
				l0.02-0.02c0.01-0.01,0.01-0.01,0.02-0.02c0.17,0.36,0.32,0.74,0.45,1.12l-0.02,0.03c-0.01,0.01-0.01,0.02-0.02,0.03
				c-0.07,0.12-0.12,0.25-0.17,0.38c-0.21,0.67-0.08,1.26,0.18,1.91c0.01,0.01,0.01,0.02,0.01,0.04c0.01,0.01,0.01,0.02,0.02,0.04
				c0.1,0.23,0.21,0.47,0.32,0.72c0.06,0.14,0.13,0.28,0.2,0.42l0.01,0.03c0,0.01,0.01,0.02,0.01,0.03
				c0.12,0.26,0.23,0.53,0.33,0.81c0,0.01,0.01,0.02,0.01,0.02l0.01,0.02c0.11,0.32,0.19,0.64,0.25,0.98c0,0.01,0,0.02,0,0.03
				c0,0.01,0,0.02,0,0.03c0.05,0.36,0.06,0.72,0.03,1.07c-0.09,1.07-0.43,1.88-1.03,2.41c-0.01,0.01-0.01,0.01-0.02,0.02"/>
			<path class="st11" d="M6.34,11.37c-0.38-0.25-0.82-0.41-1.24-0.42c-0.43,0.01-0.86,0.17-1.24,0.42l-0.02,0.01L3.81,11.4
				c-0.13-0.34-0.28-0.66-0.43-0.96c0.01,0,0.01-0.01,0.02-0.01s0.01-0.01,0.02-0.01c0.5-0.31,1.07-0.48,1.65-0.5h0.02
				c0.59,0.02,1.16,0.19,1.65,0.5c0.01,0,0.01,0.01,0.02,0.01l0.02,0.01c-0.14,0.31-0.29,0.63-0.43,0.96l-0.02-0.01L6.34,11.37z"/>
			<path class="st11" d="M7.1,21.28c-0.01,0-0.01-0.01-0.02-0.01c-0.66-0.53-1.04-1.36-1.13-2.49C5.92,18.39,5.94,18.01,6,17.63l0,0
				c0-0.01,0-0.02,0-0.03s0-0.02,0-0.03c0.06-0.33,0.14-0.65,0.25-0.96c0-0.01,0.01-0.02,0.01-0.02l0.01-0.02
				c0.09-0.26,0.2-0.51,0.31-0.75c0-0.01,0.01-0.02,0.01-0.03l0.01-0.03c0.07-0.14,0.13-0.28,0.2-0.42
				c0.12-0.25,0.23-0.49,0.32-0.71l0.02-0.04c0-0.01,0.01-0.02,0.01-0.04c0.27-0.65,0.4-1.24,0.18-1.91
				c-0.04-0.13-0.1-0.26-0.17-0.38l-0.02-0.03c-0.01-0.01-0.01-0.02-0.02-0.03c0.12-0.38,0.27-0.76,0.45-1.12l0.02,0.02l0.02,0.02
				c0.32,0.35,0.55,0.76,0.7,1.2c0.39,1.22-0.02,2.24-0.48,3.22l-0.01,0.02c0,0.01-0.01,0.02-0.01,0.02l-0.09,0.19
				c-0.11,0.23-0.22,0.47-0.32,0.71c0,0.01-0.01,0.02-0.01,0.02S7.4,16.54,7.4,16.55c-0.07,0.17-0.14,0.35-0.2,0.53
				c0,0.01-0.01,0.02-0.01,0.03l-0.01,0.03c-0.12,0.37-0.19,0.76-0.21,1.15c0,0.01,0,0.02,0,0.04s0,0.03,0,0.04
				c0,0.11,0,0.22,0.01,0.33c0.05,0.64,0.21,1.14,0.48,1.5l0,0c0.01,0.01,0.01,0.02,0.02,0.03c0.01,0.01,0.01,0.02,0.02,0.03
				c-0.07,0.35-0.2,0.7-0.37,1.07"/>
			<path class="st11" d="M9.6,20.72c0.09,0.33,0.21,0.66,0.36,0.97L9.94,21.7l-0.02,0.01c-0.32,0.1-0.65,0.13-0.99,0.11
				c-0.28,0.02-0.57-0.01-0.84-0.07l-0.03-0.01l-0.03-0.01c0.15-0.31,0.27-0.64,0.37-0.97l0.03,0.01l0.03,0l0,0
				c0.13,0.02,0.27,0.03,0.41,0.02l0.07-0.01L9,20.79c0.19,0.01,0.38,0,0.56-0.05l0.02-0.01L9.6,20.72z"/>
			<path class="st11" d="M11.9,18.77c-0.09,1.07-0.43,1.88-1.03,2.41l0,0l-0.02,0.02l-0.02,0.02c-0.17-0.4-0.31-0.78-0.35-1.15
				c0.01-0.01,0.01-0.02,0.02-0.04l0,0c0.01-0.01,0.02-0.02,0.02-0.04l0,0c0.19-0.33,0.31-0.77,0.35-1.3c0-0.04,0.01-0.08,0.01-0.12
				l0,0c0-0.02,0-0.03,0-0.05c0-0.02,0-0.03,0-0.05l0,0c0.01-0.42-0.05-0.84-0.18-1.24l-0.01-0.03c0-0.01-0.01-0.02-0.01-0.03
				c-0.07-0.22-0.15-0.43-0.23-0.63c0-0.01-0.01-0.02-0.01-0.02c0-0.01-0.01-0.02-0.01-0.02c-0.1-0.24-0.21-0.48-0.32-0.71
				c-0.03-0.06-0.06-0.12-0.09-0.19L10,15.58l-0.01-0.02c-0.46-0.98-0.87-2.01-0.48-3.22c0.15-0.45,0.39-0.86,0.7-1.2l0.02-0.02
				c0.01-0.01,0.01-0.01,0.02-0.02c0.17,0.36,0.32,0.74,0.45,1.12l-0.02,0.03c-0.01,0.01-0.01,0.02-0.02,0.03
				c-0.07,0.12-0.12,0.25-0.17,0.38c-0.21,0.67-0.08,1.26,0.18,1.91c0.01,0.01,0.01,0.02,0.01,0.04c0.01,0.01,0.01,0.02,0.02,0.04
				c0.1,0.23,0.21,0.47,0.32,0.72c0.06,0.14,0.13,0.28,0.2,0.42l0.01,0.03c0,0.01,0.01,0.02,0.01,0.03
				c0.12,0.26,0.23,0.53,0.33,0.81c0,0.01,0.01,0.02,0.01,0.02l0.01,0.02c0.11,0.32,0.19,0.64,0.25,0.98c0,0.01,0,0.02,0,0.03
				c0,0.01,0,0.02,0,0.03C11.91,18.06,11.92,18.42,11.9,18.77z"/>
			<path class="st11" d="M13.99,11.37c-0.38-0.25-0.82-0.41-1.24-0.42c-0.43,0.01-0.86,0.17-1.24,0.42l-0.02,0.01l-0.02,0.01
				c-0.13-0.34-0.28-0.66-0.43-0.96l0.02-0.01c0.01,0,0.01-0.01,0.02-0.01c0.5-0.31,1.07-0.48,1.65-0.5h0.02
				c0.59,0.02,1.16,0.19,1.65,0.5c0.01,0,0.01,0.01,0.02,0.01l0.02,0.01c-0.14,0.31-0.29,0.63-0.43,0.96l-0.02-0.01L13.99,11.37z"/>
			<path class="st11" d="M15.5,15.55l-0.01,0.02c0,0.01-0.01,0.02-0.01,0.02l-0.09,0.19c-0.11,0.23-0.22,0.47-0.32,0.71
				c0,0.01-0.01,0.02-0.01,0.02c0,0.01-0.01,0.02-0.01,0.02c-0.07,0.17-0.14,0.35-0.2,0.53c0,0.01-0.01,0.02-0.01,0.03l-0.01,0.03
				c-0.12,0.37-0.19,0.76-0.21,1.15c0,0.01,0,0.02,0,0.04s0,0.03,0,0.04c0,0.11,0,0.22,0.01,0.33c0.05,0.64,0.21,1.14,0.48,1.5
				c0.01,0.01,0.01,0.02,0.02,0.03c0.01,0.01,0.01,0.02,0.02,0.03c-0.07,0.35-0.2,0.7-0.37,1.07c-0.01,0-0.01-0.01-0.02-0.02
				l-0.02-0.02l-0.02-0.01c-0.66-0.53-1.04-1.36-1.13-2.49c-0.03-0.38-0.02-0.77,0.05-1.14l0,0c0-0.01,0-0.02,0-0.03s0-0.02,0-0.03
				c0.06-0.33,0.14-0.65,0.25-0.96c0-0.01,0.01-0.02,0.01-0.02c0-0.01,0.01-0.02,0.01-0.02c0.09-0.26,0.2-0.51,0.31-0.75l0.01-0.03
				c0-0.01,0.01-0.02,0.01-0.03c0.06-0.14,0.13-0.28,0.19-0.42c0.12-0.25,0.23-0.49,0.33-0.71l0.02-0.04
				c0.01-0.01,0.01-0.02,0.01-0.04c0.27-0.65,0.4-1.24,0.18-1.91c-0.04-0.13-0.1-0.26-0.17-0.38l-0.02-0.03
				c-0.01-0.01-0.01-0.02-0.02-0.03c0.12-0.38,0.27-0.76,0.45-1.12l0.02,0.02l0.02,0.02c0.32,0.35,0.55,0.76,0.7,1.2
				C16.37,13.55,15.96,14.57,15.5,15.55z"/>
			<path class="st11" d="M17.25,20.72c0.09,0.33,0.21,0.66,0.36,0.97l-0.02,0.01l-0.02,0.01c-0.32,0.1-0.65,0.13-0.98,0.11
				c-0.28,0.02-0.57-0.01-0.84-0.07l-0.03-0.01l-0.03-0.01c0.15-0.31,0.27-0.64,0.36-0.97l0.03,0.01l0.03,0l0,0
				c0.13,0.02,0.27,0.03,0.41,0.02l0.07-0.01l0.07,0.01c0.19,0.01,0.38,0,0.56-0.05l0.02-0.01L17.25,20.72z"/>
			<path class="st11" d="M19.55,18.77c-0.09,1.07-0.43,1.88-1.03,2.41l0,0l-0.02,0.02l-0.02,0.02c-0.17-0.4-0.31-0.78-0.35-1.15
				c0.01-0.01,0.01-0.02,0.02-0.04l0,0c0.01-0.01,0.02-0.02,0.02-0.04l0,0c0.19-0.33,0.31-0.77,0.35-1.3c0-0.04,0.01-0.08,0.01-0.12
				l0,0c0-0.02,0-0.03,0-0.05c0-0.02,0-0.03,0-0.05l0,0c0.01-0.42-0.05-0.84-0.18-1.24c0-0.01,0-0.02-0.01-0.03l-0.01-0.03
				c-0.07-0.22-0.15-0.43-0.23-0.63c0-0.01-0.01-0.02-0.01-0.02c0-0.01-0.01-0.02-0.01-0.02c-0.1-0.24-0.21-0.48-0.32-0.71
				l-0.09-0.19l-0.01-0.02l-0.01-0.02c-0.46-0.98-0.87-2.01-0.48-3.22c0.15-0.45,0.39-0.86,0.7-1.21c0.01-0.01,0.01-0.01,0.02-0.02
				l0.02-0.02c0.17,0.36,0.32,0.74,0.45,1.12l-0.02,0.03c-0.01,0.01-0.01,0.02-0.02,0.03c-0.07,0.12-0.12,0.25-0.17,0.38
				c-0.21,0.67-0.08,1.26,0.18,1.91c0.01,0.01,0.01,0.02,0.01,0.04l0.02,0.04c0.1,0.23,0.21,0.47,0.32,0.71
				c0.06,0.14,0.13,0.28,0.2,0.42l0.01,0.03c0,0.01,0.01,0.02,0.01,0.03c0.12,0.26,0.23,0.53,0.33,0.81c0,0.01,0.01,0.02,0.01,0.02
				l0.01,0.02c0.11,0.32,0.19,0.64,0.25,0.98c0,0.01,0,0.02,0,0.03s0,0.02,0,0.03C19.56,18.05,19.57,18.42,19.55,18.77z"/>
			<path class="st11" d="M21.64,11.37c-0.38-0.25-0.81-0.41-1.24-0.42c-0.43,0.01-0.86,0.17-1.24,0.42l-0.02,0.01l-0.02,0.01
				c-0.13-0.34-0.28-0.66-0.43-0.96l0.02-0.01c0.01,0,0.01-0.01,0.02-0.01c0.5-0.31,1.07-0.48,1.65-0.5h0.02
				c0.59,0.02,1.16,0.19,1.65,0.5c0.01,0,0.01,0.01,0.02,0.01l0.02,0.01c-0.14,0.31-0.29,0.63-0.43,0.96l-0.02-0.01L21.64,11.37z"/>
			<path class="st11" d="M23.15,15.55l-0.01,0.02l-0.01,0.02c-0.03,0.06-0.06,0.12-0.09,0.19c-0.11,0.23-0.22,0.47-0.32,0.71
				c0,0.01-0.01,0.02-0.01,0.02c0,0.01-0.01,0.02-0.01,0.02c-0.07,0.17-0.14,0.35-0.2,0.53c0,0.01-0.01,0.02-0.01,0.03l-0.01,0.03
				c-0.12,0.37-0.19,0.76-0.21,1.15c0,0.01,0,0.02,0,0.04s0,0.03,0,0.04c0,0.11,0,0.22,0.01,0.33c0.05,0.64,0.21,1.14,0.48,1.5
				l0.02,0.03l0.02,0.03c-0.07,0.35-0.2,0.7-0.37,1.07c-0.01,0-0.01-0.01-0.02-0.02l-0.02-0.02l-0.02-0.01
				c-0.66-0.53-1.04-1.36-1.13-2.49c-0.03-0.38-0.02-0.77,0.05-1.14c0-0.01,0-0.02,0-0.03c0-0.01,0-0.02,0-0.03
				c0.06-0.33,0.14-0.65,0.25-0.96c0-0.01,0.01-0.02,0.01-0.02s0.01-0.02,0.01-0.02c0.09-0.26,0.2-0.51,0.31-0.75
				c0-0.01,0.01-0.02,0.01-0.03l0.01-0.03c0.07-0.14,0.13-0.28,0.2-0.42c0.12-0.25,0.23-0.49,0.32-0.71l0.02-0.04l0.01-0.04
				c0.27-0.65,0.4-1.24,0.18-1.91c-0.04-0.13-0.1-0.26-0.17-0.38l-0.02-0.03l-0.02-0.03c0.12-0.38,0.27-0.76,0.45-1.12l0.02,0.02
				l0.02,0.02c0.32,0.35,0.55,0.76,0.7,1.2C24.02,13.55,23.61,14.57,23.15,15.55z"/>
			<path class="st11" d="M24.9,20.72c0.09,0.33,0.21,0.66,0.36,0.97l-0.02,0.01l-0.02,0.01c-0.32,0.1-0.65,0.13-0.98,0.11
				c-0.28,0.02-0.57-0.01-0.84-0.07l-0.03-0.01l-0.03-0.01c0.15-0.32,0.27-0.64,0.37-0.98l0.03,0l0.03,0.01
				c0.14,0.02,0.27,0.03,0.41,0.02l0.08-0.01l0.06,0.01c0.19,0.01,0.38,0,0.56-0.05l0.02-0.01L24.9,20.72z"/>
			<path class="st11" d="M27.2,18.77c-0.09,1.07-0.43,1.88-1.03,2.41l0,0l-0.02,0.02l-0.02,0.02c-0.17-0.4-0.31-0.78-0.35-1.15
				c0.01-0.01,0.01-0.02,0.02-0.04l0,0c0.01-0.01,0.02-0.02,0.02-0.04l0,0c0.19-0.33,0.31-0.77,0.35-1.3c0-0.04,0.01-0.08,0.01-0.12
				l0,0c0-0.02,0-0.03,0-0.05c0-0.02,0-0.03,0-0.05l0,0c0.01-0.42-0.05-0.84-0.18-1.24l-0.01-0.03c0-0.01-0.01-0.02-0.01-0.03
				c-0.07-0.22-0.15-0.43-0.23-0.63c0-0.01-0.01-0.02-0.01-0.02c0-0.01-0.01-0.02-0.01-0.02c-0.1-0.24-0.21-0.48-0.32-0.71
				l-0.09-0.19l-0.01-0.02l-0.01-0.02c-0.46-0.98-0.87-2.01-0.48-3.22c0.15-0.45,0.39-0.86,0.71-1.21l0.02-0.02l0.02-0.02
				c0.17,0.36,0.32,0.74,0.45,1.12l-0.02,0.03l-0.02,0.03c-0.07,0.12-0.12,0.25-0.17,0.38c-0.21,0.67-0.08,1.26,0.18,1.91
				c0.01,0.01,0.01,0.02,0.01,0.04l0.02,0.04c0.1,0.23,0.21,0.47,0.32,0.71c0.06,0.14,0.13,0.28,0.2,0.42l0.01,0.03
				c0,0.01,0.01,0.02,0.01,0.03c0.12,0.26,0.23,0.53,0.33,0.81c0,0.01,0.01,0.02,0.01,0.02l0.01,0.02c0.11,0.32,0.19,0.64,0.25,0.98
				c0,0.01,0,0.02,0,0.03s0,0.02,0,0.03C27.21,18.05,27.22,18.41,27.2,18.77z"/>
			<path class="st11" d="M29.29,11.37c-0.38-0.25-0.81-0.41-1.24-0.42c-0.43,0.01-0.86,0.17-1.24,0.42l-0.02,0.01l-0.02,0.01
				c-0.13-0.34-0.28-0.66-0.43-0.96l0.02-0.01c0.01,0,0.01-0.01,0.02-0.01c0.5-0.31,1.07-0.48,1.65-0.5h0.02
				c0.59,0.02,1.16,0.19,1.65,0.5c0.01,0,0.01,0.01,0.02,0.01l0.02,0.01c-0.14,0.31-0.29,0.63-0.43,0.96l-0.02-0.01L29.29,11.37z"/>
			<path class="st11" d="M30.8,15.55l-0.01,0.02l-0.01,0.02l-0.09,0.19c-0.11,0.23-0.22,0.47-0.32,0.71c0,0.01-0.01,0.02-0.01,0.02
				s-0.01,0.02-0.01,0.02c-0.07,0.17-0.14,0.35-0.2,0.53c0,0.01-0.01,0.02-0.01,0.03c0,0.01-0.01,0.02-0.01,0.03
				c-0.12,0.37-0.19,0.76-0.21,1.15c0,0.01,0,0.02,0,0.04s0,0.03,0,0.04c0,0.11,0,0.22,0.01,0.33c0.05,0.64,0.21,1.14,0.48,1.5
				l0.02,0.03l0.02,0.03c-0.07,0.35-0.2,0.7-0.37,1.07c-0.01,0-0.01-0.01-0.02-0.02l-0.02-0.02l-0.02-0.01
				c-0.66-0.53-1.04-1.36-1.13-2.49c-0.03-0.38-0.02-0.77,0.05-1.14l0,0c0-0.01,0-0.02,0-0.03c0-0.01,0-0.02,0-0.03
				c0.06-0.33,0.14-0.65,0.25-0.96c0-0.01,0.01-0.02,0.01-0.02l0.01-0.02c0.09-0.26,0.2-0.51,0.31-0.75c0-0.01,0.01-0.02,0.01-0.03
				l0.01-0.03c0.07-0.14,0.13-0.28,0.2-0.42c0.12-0.25,0.23-0.49,0.32-0.71l0.02-0.04c0.01-0.01,0.01-0.02,0.01-0.04
				c0.27-0.65,0.4-1.24,0.18-1.91c-0.04-0.13-0.1-0.26-0.17-0.38l-0.02-0.03L30.1,12.2c0.12-0.38,0.27-0.76,0.45-1.12l0.02,0.02
				c0.01,0.01,0.01,0.01,0.02,0.02c0.32,0.35,0.55,0.76,0.7,1.2C31.67,13.55,31.26,14.57,30.8,15.55z"/>
			<path class="st11" d="M31.95,21.81c-0.08,0.01-0.17,0.02-0.26,0.01c-0.22,0-0.44-0.03-0.66-0.08L31,21.74l-0.03-0.01
				c0.15-0.32,0.27-0.64,0.37-0.98l0.03,0.01l0.03,0c0.14,0.02,0.27,0.03,0.41,0.02L31.95,21.81z"/>
		</g>
		<path class="st12" d="M31.72,16.88c-0.46,0-0.92-0.12-1.32-0.34c-0.11-0.06-0.22-0.14-0.32-0.22c-0.19-0.15-0.35-0.32-0.49-0.52
			c-0.35-0.5-0.57-1.15-0.63-1.95c-0.07-0.92,0.13-1.71,0.4-2.41c0.13-0.34,0.28-0.66,0.43-0.96l0.02-0.04
			c0.47-1,0.84-1.78,0.54-2.72C30.05,6.79,29.04,6.03,28.07,6c-0.96,0.02-1.98,0.79-2.27,1.71c-0.3,0.94,0.07,1.72,0.54,2.72
			l0.02,0.04c0.14,0.31,0.29,0.63,0.43,0.96c0.28,0.71,0.48,1.49,0.4,2.41c-0.06,0.8-0.28,1.45-0.63,1.95
			c-0.14,0.19-0.3,0.37-0.49,0.52c-0.1,0.08-0.21,0.15-0.32,0.22c-0.46,0.25-0.98,0.37-1.51,0.34c-0.52,0.04-1.05-0.08-1.5-0.34
			c-0.11-0.06-0.22-0.13-0.32-0.22c-0.19-0.15-0.35-0.32-0.49-0.52c-0.35-0.5-0.57-1.15-0.63-1.95c-0.07-0.92,0.13-1.71,0.4-2.41
			c0.13-0.34,0.28-0.66,0.43-0.96l0.02-0.04c0.47-0.99,0.84-1.78,0.54-2.72C22.4,6.79,21.38,6.03,20.42,6
			c-0.96,0.02-1.98,0.79-2.27,1.71c-0.3,0.94,0.07,1.73,0.54,2.72l0.02,0.04c0.14,0.31,0.29,0.63,0.43,0.96
			c0.28,0.71,0.48,1.49,0.4,2.41c-0.07,0.8-0.28,1.45-0.63,1.95c-0.14,0.19-0.3,0.37-0.49,0.52c-0.1,0.08-0.21,0.15-0.32,0.22
			c-0.46,0.25-0.98,0.37-1.51,0.34c-0.52,0.04-1.05-0.08-1.5-0.34c-0.11-0.06-0.22-0.13-0.32-0.22c-0.19-0.15-0.35-0.32-0.49-0.52
			c-0.36-0.5-0.57-1.15-0.63-1.95c-0.07-0.92,0.13-1.71,0.4-2.41c0.13-0.34,0.28-0.66,0.43-0.96l0.02-0.04
			c0.47-0.99,0.84-1.78,0.54-2.72C14.75,6.79,13.73,6.03,12.77,6c-0.96,0.02-1.98,0.79-2.27,1.71c-0.3,0.94,0.07,1.73,0.54,2.72
			l0.02,0.04c0.14,0.31,0.29,0.63,0.43,0.96c0.28,0.71,0.48,1.49,0.4,2.41c-0.06,0.8-0.28,1.45-0.63,1.95
			c-0.14,0.19-0.3,0.37-0.49,0.52c-0.1,0.08-0.21,0.15-0.32,0.22c-0.46,0.25-0.98,0.37-1.51,0.34c-0.52,0.04-1.05-0.08-1.5-0.34
			c-0.11-0.06-0.22-0.13-0.32-0.22C6.94,16.17,6.77,16,6.64,15.8C6.28,15.3,6.07,14.65,6,13.85c-0.07-0.92,0.13-1.71,0.4-2.41
			c0.13-0.34,0.28-0.66,0.43-0.96l0.02-0.04c0.47-1,0.84-1.78,0.54-2.72C7.1,6.79,6.08,6.03,5.12,6C4.17,6.03,3.15,6.79,2.85,7.71
			c-0.3,0.94,0.07,1.73,0.54,2.72l0.02,0.04c0.14,0.31,0.29,0.63,0.43,0.96c0.28,0.71,0.48,1.49,0.4,2.41
			c-0.06,0.8-0.28,1.45-0.63,1.95c-0.14,0.19-0.3,0.37-0.49,0.52c-0.1,0.08-0.21,0.15-0.32,0.22c-0.47,0.26-1.01,0.38-1.55,0.33
			l0.14-0.97c0.35,0.02,0.7-0.07,1-0.26c0.04-0.03,0.09-0.06,0.13-0.09c0.25-0.21,0.44-0.5,0.57-0.88c0.09-0.29,0.15-0.59,0.17-0.9
			c0.04-0.52-0.02-1.03-0.18-1.53c-0.12-0.38-0.27-0.76-0.45-1.12c-0.04-0.09-0.08-0.18-0.13-0.27C2.01,9.8,1.5,8.72,1.92,7.41
			c0.43-1.34,1.8-2.37,3.2-2.4h0.02c1.4,0.03,2.77,1.06,3.2,2.4c0.42,1.3-0.09,2.39-0.59,3.44c-0.04,0.09-0.08,0.18-0.13,0.27
			c-0.17,0.36-0.32,0.74-0.45,1.12c-0.16,0.49-0.22,1.01-0.19,1.53c0.02,0.3,0.08,0.61,0.17,0.9c0.13,0.38,0.32,0.68,0.58,0.89
			c0.04,0.03,0.08,0.06,0.12,0.08c0.31,0.19,0.67,0.28,1.03,0.25l0.07-0.01l0.07,0.01c0.36,0.03,0.72-0.06,1.03-0.25
			c0.04-0.03,0.09-0.06,0.13-0.09c0.25-0.21,0.44-0.5,0.57-0.88c0.09-0.29,0.15-0.59,0.17-0.9c0.04-0.52-0.03-1.04-0.19-1.53
			c-0.12-0.38-0.27-0.76-0.45-1.12c-0.04-0.09-0.08-0.18-0.13-0.27c-0.49-1.05-1-2.13-0.59-3.44c0.43-1.33,1.8-2.37,3.2-2.39h0.02
			c1.4,0.03,2.77,1.06,3.2,2.4c0.42,1.3-0.09,2.39-0.59,3.44c-0.04,0.09-0.08,0.18-0.13,0.27c-0.18,0.36-0.33,0.74-0.45,1.12
			c-0.16,0.49-0.22,1.01-0.19,1.53c0.02,0.3,0.08,0.61,0.17,0.9c0.13,0.38,0.32,0.68,0.58,0.89c0.04,0.03,0.08,0.06,0.12,0.08
			c0.31,0.19,0.67,0.28,1.03,0.25l0.07-0.01l0.07,0.01c0.36,0.03,0.72-0.06,1.03-0.25c0.04-0.03,0.09-0.06,0.13-0.09
			c0.25-0.21,0.44-0.5,0.57-0.88c0.09-0.29,0.15-0.59,0.17-0.9c0.04-0.52-0.03-1.04-0.19-1.53c-0.12-0.38-0.27-0.76-0.45-1.12
			c-0.04-0.09-0.08-0.18-0.13-0.27c-0.49-1.05-1-2.13-0.59-3.44c0.43-1.33,1.8-2.37,3.2-2.39h0.02c1.4,0.03,2.77,1.06,3.2,2.4
			c0.42,1.3-0.09,2.39-0.59,3.44c-0.04,0.09-0.08,0.18-0.13,0.27c-0.17,0.36-0.32,0.74-0.45,1.12c-0.16,0.49-0.22,1.01-0.19,1.53
			c0.02,0.3,0.08,0.61,0.17,0.9c0.13,0.38,0.32,0.67,0.57,0.88c0.04,0.03,0.08,0.06,0.13,0.09c0.31,0.19,0.67,0.28,1.03,0.25
			l0.07-0.01l0.06,0.01c0.36,0.02,0.72-0.06,1.03-0.25c0.04-0.03,0.09-0.06,0.13-0.09c0.25-0.21,0.44-0.5,0.57-0.88
			c0.09-0.29,0.15-0.59,0.17-0.9c0.04-0.52-0.03-1.04-0.19-1.53c-0.12-0.38-0.27-0.76-0.45-1.12c-0.04-0.09-0.08-0.18-0.13-0.27
			c-0.49-1.05-1.01-2.13-0.59-3.44c0.43-1.34,1.8-2.37,3.2-2.4h0.02c1.4,0.03,2.77,1.06,3.2,2.4c0.42,1.3-0.09,2.39-0.59,3.44
			c-0.04,0.09-0.08,0.18-0.13,0.27c-0.17,0.36-0.32,0.74-0.45,1.12c-0.16,0.49-0.22,1.01-0.19,1.53c0.02,0.3,0.08,0.61,0.17,0.9
			c0.13,0.38,0.32,0.67,0.57,0.88c0.04,0.03,0.08,0.06,0.13,0.09c0.3,0.19,0.65,0.28,1.01,0.26l0.13,0.97
			C31.87,16.88,31.79,16.88,31.72,16.88z"/>
	</g>
</g>
</svg>
