<svg width="160" height="122" viewBox="0 0 160 122" fill="none" xmlns="http://www.w3.org/2000/svg">
<path fill-rule="evenodd" clip-rule="evenodd" d="M158.672 115.373V115.222L158.52 115.26C158.332 115.26 158.105 115.26 157.916 115.26C156.82 115.26 155.686 115.071 154.665 114.655L154.552 114.58C154.514 114.58 154.476 114.58 154.439 114.542C154.174 114.429 153.947 114.315 153.72 114.202C153.418 114.013 153.078 113.786 152.776 113.522C152.02 112.879 151.377 112.123 150.886 111.254C150.735 111.065 150.621 110.838 150.546 110.611C150.508 110.573 150.47 110.536 150.47 110.46C150.432 110.385 150.395 110.347 150.395 110.271C149.676 108.722 149.261 106.832 149.072 104.602C148.996 104.111 148.996 103.619 148.996 103.128C148.996 101.956 149.109 100.747 149.298 99.6129C149.298 99.5373 149.336 99.4617 149.336 99.4239C149.374 99.3483 149.374 99.3105 149.374 99.2349C149.79 97.3073 150.395 95.4176 151.188 93.6034L151.226 93.4522C151.264 93.4144 151.264 93.3766 151.302 93.3388C151.831 92.1294 152.36 90.92 152.927 89.7483C153.343 88.879 153.758 88.0097 154.136 87.1404C154.892 85.5152 155.535 83.8522 156.026 82.1136C156.895 78.9388 157.16 75.6129 155.95 71.9089C154.854 68.4695 152.549 65.4081 149.601 63.1782C148.958 62.6869 148.278 62.2333 147.598 61.8176C146.728 61.3262 145.821 60.9105 144.876 60.5325C143.1 59.8522 141.21 59.4743 139.283 59.4365H139.207C137.015 59.4743 134.898 59.9656 132.895 60.8349C132.215 61.1373 131.572 61.4774 130.93 61.8554C129.985 62.3845 129.078 62.9892 128.246 63.6695C126.546 65.068 125.109 66.731 124.013 68.6585C123.409 69.679 122.917 70.7751 122.539 71.9089C121.406 75.5373 121.595 78.8255 122.426 81.9625C122.917 83.6632 123.522 85.3262 124.278 86.9514C124.694 87.8963 125.147 88.8412 125.563 89.7483C126.13 90.9577 126.697 92.1294 127.226 93.3388C127.226 93.3766 127.264 93.4144 127.264 93.4522C127.264 93.5278 127.302 93.5656 127.302 93.6034C128.095 95.4176 128.7 97.3073 129.116 99.2349C129.116 99.3105 129.154 99.3861 129.154 99.4239C129.154 99.4995 129.191 99.5373 129.191 99.6129C129.418 100.747 129.532 101.956 129.532 103.128C129.532 103.619 129.494 104.111 129.456 104.602C129.267 106.87 128.851 108.759 128.133 110.309L128.057 110.46C128.02 110.536 127.982 110.573 127.944 110.649C127.869 110.876 127.755 111.065 127.642 111.254C127.15 112.123 126.508 112.879 125.752 113.522C125.45 113.786 125.109 113.975 124.807 114.202C124.543 114.315 124.316 114.429 124.089 114.542L123.976 114.58L123.862 114.655C122.804 115.071 121.708 115.26 120.612 115.26C120.423 115.26 120.196 115.26 120.007 115.26L119.667 115.185L119.251 115.26C119.062 115.26 118.835 115.26 118.609 115.26C117.513 115.26 116.417 115.071 115.396 114.655L115.283 114.618L115.169 114.542C114.943 114.429 114.716 114.315 114.489 114.202C114.149 114.013 113.809 113.786 113.506 113.522C112.75 112.879 112.108 112.123 111.617 111.254C111.465 111.065 111.39 110.838 111.276 110.611C111.239 110.573 111.201 110.536 111.201 110.46C111.163 110.385 111.125 110.347 111.125 110.271C110.407 108.722 109.991 106.832 109.802 104.602C109.765 104.111 109.727 103.619 109.727 103.128C109.727 101.956 109.84 100.747 110.067 99.6129C110.067 99.5373 110.067 99.4617 110.105 99.4239C110.105 99.3483 110.105 99.3105 110.143 99.2349C110.558 97.3073 111.125 95.4176 111.919 93.6034L111.995 93.4522C111.995 93.4144 112.032 93.3766 112.032 93.3388C112.561 92.1294 113.128 90.92 113.695 89.7483C114.073 88.879 114.489 88.0097 114.867 87.1404C115.623 85.5152 116.265 83.8144 116.757 82.1136C117.664 78.9388 117.891 75.6129 116.719 71.9089C115.623 68.4695 113.28 65.4081 110.332 63.1782C109.689 62.6869 109.046 62.2333 108.328 61.8176C107.459 61.3262 106.552 60.9105 105.645 60.5325C103.869 59.8522 101.979 59.4743 100.051 59.4365H99.9378C97.7457 59.4743 95.5914 59.9656 93.626 60.8349C92.9457 61.1373 92.2654 61.4774 91.6229 61.8554C90.678 62.3845 89.7709 62.9892 88.9394 63.6695C87.2764 65.068 85.8402 66.731 84.7441 68.6585C84.1394 69.679 83.648 70.7751 83.2701 71.9089C82.0984 75.5373 82.3252 78.8255 83.1567 81.9625C83.648 83.6632 84.2528 85.3262 84.9709 86.9514C85.3866 87.8963 85.8402 88.8412 86.2937 89.7483C86.8228 90.9577 87.3898 92.1294 87.9189 93.3388C87.9189 93.3766 87.9567 93.4144 87.9567 93.4522L88.0323 93.6034C88.826 95.4176 89.4307 97.3073 89.8465 99.2349C89.8465 99.3105 89.8465 99.3483 89.8843 99.4239C89.8843 99.4995 89.8843 99.5373 89.8843 99.6129C90.1111 100.747 90.2244 101.956 90.2244 103.128C90.2244 103.619 90.1866 104.111 90.1866 104.602C89.9977 106.87 89.5441 108.759 88.826 110.309L88.7504 110.46C88.7126 110.536 88.7126 110.573 88.6748 110.649C88.5614 110.876 88.4481 111.065 88.3347 111.254C87.8433 112.123 87.2008 112.879 86.4449 113.522C86.1425 113.786 85.8402 114.013 85.5 114.202C85.2733 114.315 85.0465 114.429 84.8197 114.542L84.6685 114.58C84.6307 114.618 84.5929 114.618 84.5551 114.655C83.5347 115.071 82.4386 115.26 81.3047 115.26C81.1158 115.26 80.9268 115.26 80.7378 115.26L80.3221 115.222L79.9441 115.26C79.7173 115.26 79.4906 115.298 79.2638 115.298C78.2055 115.298 77.1095 115.071 76.1268 114.655L75.9756 114.618L75.8622 114.542C75.6354 114.429 75.4087 114.315 75.1819 114.202C74.8795 114.013 74.5772 113.824 74.2748 113.597C73.4811 112.917 72.8008 112.161 72.3095 111.254C72.1961 111.065 72.0827 110.838 71.9693 110.649C71.9693 110.573 71.9315 110.536 71.8937 110.46C71.8937 110.385 71.8559 110.347 71.8181 110.271C71.1378 108.722 70.6843 106.832 70.4953 104.602C70.4575 104.111 70.4197 103.619 70.4197 103.128C70.4197 101.956 70.5331 100.747 70.7599 99.6129C70.7599 99.5373 70.7977 99.4617 70.7977 99.4239C70.7977 99.3483 70.7977 99.3105 70.8354 99.2349C71.2512 97.3073 71.8559 95.4176 72.6118 93.6034L72.6874 93.4522C72.7252 93.4144 72.7252 93.3766 72.7252 93.3388C73.2543 92.1294 73.8213 90.92 74.3882 89.7483C74.804 88.879 75.1819 88.0097 75.5977 87.1404C76.3158 85.5152 76.9583 83.8522 77.4496 82.1136C78.3567 78.9766 78.5835 75.6129 77.4118 71.9089C76.3158 68.4695 74.0103 65.4081 71.0622 63.1782C70.4197 62.6869 69.7394 62.2333 69.0213 61.8176C68.1898 61.3262 67.2827 60.9105 66.3378 60.5325C64.5614 59.8522 62.6717 59.4743 60.7441 59.4365H60.6307C58.4764 59.4743 56.3221 59.9656 54.3189 60.8349C53.6386 61.1373 52.9961 61.4774 52.3158 61.8554C51.4087 62.3845 50.5016 62.9892 49.6701 63.6695C47.9693 65.068 46.5331 66.731 45.437 68.6585C44.8323 69.679 44.341 70.7751 43.963 71.9089C42.7914 75.5373 43.0181 78.8633 43.8496 81.9625C44.341 83.6632 44.9457 85.3262 45.7016 86.9514C46.1173 87.8963 46.5709 88.8412 46.9866 89.7483C47.5536 90.9577 48.1205 92.1294 48.6118 93.3388C48.6496 93.3766 48.6496 93.4144 48.6874 93.49C48.6874 93.5278 48.7252 93.5656 48.7252 93.6034C49.5189 95.4176 50.1236 97.3073 50.5394 99.2349C50.5394 99.3105 50.5772 99.3861 50.5772 99.4239C50.5772 99.4995 50.615 99.5373 50.615 99.6129C50.8417 100.747 50.9173 101.956 50.9173 103.128C50.9173 103.619 50.9173 104.111 50.8795 104.602C50.6906 106.87 50.2748 108.759 49.5567 110.309L49.4811 110.46C49.4433 110.536 49.4433 110.573 49.4055 110.649C49.2921 110.838 49.1787 111.065 49.1032 111.254C48.574 112.123 47.9315 112.879 47.1378 113.522C46.8354 113.786 46.5331 114.013 46.1929 114.202C45.9662 114.315 45.7394 114.429 45.5126 114.542L45.3992 114.618L45.248 114.655C44.2654 115.071 43.1693 115.26 42.0732 115.26C41.8465 115.26 41.6575 115.26 41.4307 115.26L41.0528 115.222L40.6748 115.26C40.4481 115.26 40.2213 115.298 39.9945 115.298C38.8984 115.298 37.8402 115.071 36.8197 114.655L36.7063 114.618L36.5551 114.542C36.3661 114.429 36.1394 114.315 35.9126 114.202C35.5724 114.013 35.2701 113.824 35.0055 113.597C34.2118 112.917 33.5315 112.161 33.0024 111.254C32.889 111.065 32.7756 110.838 32.7 110.649C32.6622 110.573 32.6244 110.536 32.6244 110.46C32.5866 110.385 32.5488 110.347 32.511 110.271C31.8307 108.722 31.3772 106.832 31.1882 104.602C31.1504 104.111 31.1504 103.619 31.1504 103.128C31.1504 101.956 31.226 100.747 31.4528 99.6129C31.4528 99.5373 31.4906 99.4617 31.4906 99.4239C31.5284 99.3483 31.5284 99.3105 31.5284 99.2349C31.9441 97.3073 32.5488 95.4176 33.3425 93.6034L33.3803 93.4522C33.4181 93.4144 33.4181 93.3766 33.4559 93.3388C33.985 92.1294 34.5142 90.92 35.0811 89.7483C35.4969 88.879 35.9126 88.0097 36.2906 87.1404C37.0465 85.5152 37.6512 83.8522 38.1803 82.1136C39.0496 78.9766 39.2764 75.6129 38.1047 71.9089C37.0087 68.4695 34.7032 65.4081 31.7551 63.1782C31.1126 62.6869 30.4323 62.2333 29.752 61.8176C28.8827 61.3262 27.9756 60.9105 27.0307 60.5325C25.2543 59.8522 23.3646 59.4743 21.437 59.4365H21.3236C19.1693 59.4743 17.015 59.9656 15.0118 60.8349C14.3315 61.1373 13.689 61.4774 13.0465 61.8554C12.1016 62.3845 11.1945 62.9892 10.363 63.6695C8.66223 65.068 7.22601 66.731 6.12994 68.6585C5.56302 69.679 5.07166 70.7751 4.65591 71.9089C3.52206 75.5373 3.71103 78.8633 4.58032 81.9625C5.07166 83.6632 5.67639 85.3262 6.3945 86.9514C6.84805 87.8963 7.26379 88.8412 7.71735 89.7483C8.24646 90.9577 8.81342 92.1294 9.34253 93.3388C9.34253 93.3766 9.38034 93.4144 9.38034 93.49C9.41812 93.5278 9.41812 93.5656 9.45593 93.6034C10.2496 95.4176 10.8543 97.3073 11.2323 99.2349C11.2323 99.3105 11.2701 99.3861 11.2701 99.4239C11.3079 99.4995 11.3079 99.5373 11.3079 99.6129C11.5347 100.747 11.648 101.956 11.648 103.128C11.648 103.619 11.6103 104.111 11.5724 104.602C11.4213 106.87 10.9677 108.759 10.2496 110.309L10.174 110.46C10.1362 110.536 10.1362 110.573 10.0984 110.649C9.98505 110.876 9.87167 111.065 9.75827 111.254C9.26694 112.123 8.62442 112.917 7.86853 113.559C7.52835 113.786 7.22601 114.013 6.88583 114.202C6.65906 114.353 6.43231 114.466 6.20554 114.58L6.09213 114.618L5.94095 114.655C4.95828 115.071 3.86221 115.298 2.72836 115.298C2.5394 115.298 2.3504 115.298 2.12363 115.26H2.01025L1.25433 120.74L1.36774 120.778C1.85907 120.816 2.31262 120.854 2.76614 120.854C4.65591 120.854 6.54569 120.476 8.32205 119.72L8.43546 119.644C8.47324 119.644 8.51105 119.607 8.54883 119.607C8.96457 119.418 9.34253 119.229 9.75827 119.002C10.2874 118.662 10.8166 118.322 11.3079 117.944C11.7992 117.528 12.2906 117.074 12.7063 116.621L12.8197 116.507C12.8575 116.507 12.8953 116.432 12.8953 116.394C15.352 113.71 16.7504 109.893 17.1662 105.055C17.2039 104.413 17.2418 103.77 17.2418 103.09C17.2418 100.444 16.826 97.8365 16.0323 95.3042C16.0323 95.2664 15.9945 95.2286 15.9945 95.1908C15.9567 95.153 15.9567 95.0774 15.9567 95.0396C15.4276 93.4144 14.8228 91.827 14.1047 90.2774C14.1047 90.2396 14.067 90.2018 14.067 90.164L13.9914 90.0507C13.5756 89.1058 13.1977 88.2365 12.7819 87.405C12.2528 86.3089 11.7614 85.2506 11.3079 84.2302C10.4008 82.1136 9.72049 80.1105 9.53152 78.1073C9.49371 77.7294 9.45593 77.3892 9.45593 77.0113C9.45593 75.8396 9.6449 74.7058 10.0229 73.6097C10.2496 72.8916 10.552 72.2113 10.9299 71.531C11.0811 71.3042 11.2323 71.0774 11.3835 70.8506C12.5551 69.1121 14.067 67.7136 15.8811 66.6554C16.0701 66.542 16.2591 66.4664 16.4481 66.353C17.9599 65.5593 19.6606 65.068 21.3992 64.9924C22.8732 65.068 24.2717 65.4081 25.6323 65.9751C26.048 66.2018 26.5016 66.4286 26.9173 66.6554C28.3158 67.4869 29.563 68.5073 30.6213 69.7546C31.0748 70.2837 31.4906 70.8884 31.8685 71.531C32.2465 72.1735 32.5866 72.8916 32.8134 73.6097C33.1536 74.7058 33.3425 75.8774 33.3425 77.0491C33.3425 77.7294 33.3047 78.4475 33.1536 79.1278C32.8512 80.942 32.1331 82.7562 31.2638 84.7215C30.8858 85.5908 30.4701 86.4601 30.0544 87.3672C29.6386 88.2365 29.2228 89.1436 28.8071 90.0507L28.7693 90.164L28.6937 90.2774C28.0134 91.827 27.4087 93.4144 26.8795 95.0396L26.8417 95.1908L26.804 95.3042C25.9724 97.8365 25.5945 100.444 25.5945 103.09C25.5945 103.733 25.5945 104.413 25.6701 105.055C26.048 109.893 27.4843 113.673 29.9032 116.394L30.0165 116.507L30.0921 116.621C30.5457 117.074 30.9992 117.528 31.5284 117.906C32.0197 118.322 32.5488 118.699 33.1158 119.002C33.4937 119.229 33.8717 119.418 34.2496 119.607L34.4008 119.644L34.5142 119.72C36.2906 120.476 38.1803 120.854 40.1079 120.854C40.4102 120.854 40.7126 120.816 41.0528 120.816C41.3551 120.816 41.6953 120.854 41.9977 120.854C43.9252 120.854 45.815 120.476 47.5914 119.72L47.7047 119.682L47.8181 119.607C48.2339 119.418 48.6496 119.229 49.0276 119.002C49.5567 118.699 50.0858 118.322 50.615 117.944C51.1063 117.528 51.5598 117.074 52.0134 116.621L52.089 116.507C52.1268 116.507 52.1646 116.432 52.2024 116.394C54.6213 113.71 56.0575 109.893 56.4355 105.055C56.511 104.413 56.5488 103.77 56.5488 103.09C56.5488 100.444 56.1331 97.8365 55.3016 95.3042C55.3016 95.2664 55.3016 95.2286 55.2638 95.1908C55.2638 95.153 55.2638 95.0774 55.226 95.0396C54.7346 93.4144 54.0921 91.827 53.4118 90.2774C53.374 90.2396 53.374 90.2018 53.3362 90.164L53.2984 90.0507C52.8827 89.1058 52.4669 88.2365 52.0512 87.405C51.5598 86.3089 51.0685 85.2506 50.615 84.2302C49.7079 82.1136 48.9898 80.1105 48.8008 78.1073C48.763 77.7294 48.763 77.3892 48.763 77.0113C48.763 75.8396 48.952 74.7058 49.2921 73.6097C49.5567 72.8916 49.8213 72.2113 50.1992 71.5688C50.3504 71.3042 50.5016 71.0774 50.6528 70.8506C51.8244 69.1499 53.374 67.7136 55.1882 66.6554C55.3772 66.542 55.5662 66.4664 55.7551 66.353C57.2669 65.5593 58.9677 65.068 60.6685 64.9924C62.1425 65.068 63.5788 65.4081 64.9016 65.9751C65.3551 66.2018 65.7709 66.4286 66.2244 66.6554C67.5851 67.4869 68.8701 68.5073 69.8906 69.7546C70.3819 70.2837 70.7977 70.8884 71.1756 71.531C71.5536 72.1735 71.8559 72.8916 72.1205 73.6097C72.4606 74.7058 72.6496 75.8774 72.6496 77.0491C72.6496 77.7294 72.574 78.4475 72.4606 79.1278C72.1205 80.942 71.4402 82.7562 70.5709 84.7215C70.1929 85.5908 69.7772 86.4601 69.3614 87.3672C68.9457 88.2365 68.5299 89.1436 68.1142 90.0507L68.0386 90.164L68.0008 90.2774C67.2827 91.827 66.678 93.4144 66.1488 95.0396L66.1111 95.1908L66.0732 95.3042C65.2795 97.8365 64.8638 100.482 64.8638 103.128C64.8638 103.77 64.9016 104.413 64.9394 105.055C65.3174 109.893 66.7536 113.71 69.1725 116.394L69.2859 116.507L69.3614 116.621C69.815 117.074 70.3063 117.528 70.7977 117.944C71.289 118.322 71.8181 118.699 72.3851 119.002C72.763 119.229 73.141 119.418 73.5567 119.607C73.5945 119.644 73.6323 119.644 73.6701 119.682L73.7835 119.72C75.5598 120.476 77.4496 120.854 79.3772 120.854C79.6795 120.854 80.0197 120.816 80.3221 120.816C80.6622 120.816 80.9646 120.854 81.3047 120.854C83.2323 120.854 85.1221 120.476 86.8984 119.72L87.0118 119.682L87.1252 119.607C87.541 119.455 87.9189 119.229 88.2969 119.002C88.8638 118.699 89.3929 118.322 89.8843 117.944C90.3756 117.528 90.8669 117.074 91.2827 116.621L91.3961 116.507C91.4339 116.507 91.4717 116.432 91.5095 116.394C93.9284 113.71 95.3646 109.893 95.7425 105.055C95.7803 104.413 95.8181 103.77 95.8181 103.09C95.8181 100.444 95.4024 97.8365 94.6087 95.3042C94.6087 95.2664 94.5709 95.2286 94.5709 95.1908C94.5709 95.153 94.5331 95.0774 94.5331 95.0396C94.004 93.4144 93.3992 91.827 92.6811 90.2774C92.6811 90.2396 92.6433 90.2018 92.6433 90.164L92.5677 90.0507C92.1898 89.1058 91.7362 88.2365 91.3583 87.405C90.8292 86.3089 90.3378 85.2506 89.8843 84.2302C88.9772 82.1136 88.2969 80.1105 88.1079 78.1073C88.0701 77.7294 88.0701 77.3892 88.0701 77.0113C88.0701 75.8396 88.2213 74.7058 88.5992 73.6097C88.826 72.8916 89.1284 72.2113 89.5063 71.5688C89.6197 71.3042 89.7709 71.0774 89.9599 70.8506C91.1315 69.1499 92.6811 67.7136 94.4575 66.6554C94.6465 66.5798 94.8354 66.4664 95.0244 66.353C96.5362 65.5593 98.237 65.068 99.9756 64.9924C101.45 65.068 102.886 65.4081 104.209 66.0128C104.662 66.2018 105.078 66.4286 105.494 66.6554C106.892 67.4869 108.139 68.5073 109.198 69.7546C109.651 70.2837 110.105 70.8884 110.445 71.4932C110.823 72.1735 111.163 72.8538 111.39 73.6097C111.768 74.7058 111.919 75.8774 111.919 77.0491C111.919 77.7294 111.881 78.4475 111.73 79.1278C111.428 80.942 110.709 82.794 109.84 84.7215C109.462 85.5908 109.084 86.4601 108.631 87.3672C108.215 88.2365 107.799 89.1436 107.383 90.0507L107.346 90.164L107.308 90.2774C106.59 91.827 105.985 93.4144 105.456 95.0396L105.418 95.1908L105.38 95.3042C104.587 97.8365 104.171 100.444 104.171 103.128C104.171 103.77 104.171 104.413 104.246 105.055C104.624 109.893 106.061 113.71 108.48 116.394L108.555 116.507L108.669 116.621C109.122 117.074 109.576 117.528 110.105 117.944C110.596 118.322 111.125 118.699 111.692 119.002C112.07 119.229 112.448 119.418 112.826 119.607C112.864 119.644 112.902 119.644 112.977 119.682L113.091 119.72C114.867 120.476 116.757 120.854 118.684 120.854C118.987 120.854 119.289 120.816 119.629 120.816C119.932 120.816 120.272 120.854 120.574 120.854C122.502 120.854 124.391 120.476 126.168 119.72L126.281 119.682L126.395 119.607C126.81 119.455 127.188 119.229 127.566 119.002C128.133 118.699 128.662 118.322 129.154 117.944C129.683 117.528 130.136 117.074 130.552 116.621L130.665 116.507C130.703 116.507 130.741 116.432 130.779 116.394C133.198 113.71 134.634 109.893 135.012 105.055C135.05 104.413 135.087 103.77 135.087 103.09C135.087 100.444 134.672 97.8365 133.878 95.3042L133.84 95.1908C133.84 95.153 133.84 95.0774 133.802 95.0396C133.273 93.4144 132.669 91.827 131.95 90.2774L131.913 90.164L131.875 90.0507C131.459 89.1058 131.043 88.2365 130.628 87.3672C130.098 86.2711 129.607 85.2129 129.191 84.2302C128.246 82.1136 127.566 80.1105 127.377 78.1073C127.339 77.7294 127.339 77.3514 127.339 76.9735C127.339 75.8396 127.528 74.668 127.869 73.5719C128.095 72.8916 128.398 72.2113 128.776 71.531C128.927 71.3042 129.078 71.0774 129.229 70.8506C130.401 69.1121 131.95 67.7136 133.727 66.6554C133.916 66.542 134.105 66.4664 134.294 66.353C135.843 65.5593 137.506 65.068 139.245 64.9924C140.719 65.068 142.155 65.4081 143.478 65.9751C143.932 66.2018 144.347 66.4286 144.763 66.6554C146.161 67.4869 147.446 68.5073 148.467 69.7546C148.958 70.2837 149.374 70.8884 149.714 71.4932C150.092 72.1735 150.432 72.8538 150.659 73.6097C151.037 74.7058 151.226 75.8774 151.226 77.0491C151.226 77.7294 151.15 78.4475 150.999 79.1278C150.697 80.942 150.017 82.7562 149.147 84.7215C148.769 85.5908 148.354 86.4601 147.9 87.3672C147.484 88.2365 147.069 89.1436 146.691 90.0507L146.615 90.164C146.615 90.2018 146.577 90.2396 146.577 90.2774C145.859 91.827 145.254 93.4144 144.725 95.0396C144.725 95.0774 144.687 95.153 144.687 95.1908C144.687 95.2286 144.65 95.2664 144.65 95.3042C143.856 97.8365 143.44 100.444 143.44 103.09C143.44 103.733 143.478 104.413 143.516 105.055C143.932 109.893 145.33 113.71 147.787 116.394L147.862 116.507L147.976 116.621C148.845 117.566 149.865 118.359 150.999 119.04C151.339 119.229 151.755 119.455 152.133 119.607L152.246 119.682C152.284 119.682 152.322 119.72 152.36 119.72C154.136 120.476 156.064 120.854 157.991 120.854C157.991 120.854 158.029 120.854 158.067 120.854C158.483 120.854 158.898 120.816 159.314 120.778L159.428 120.74L158.672 115.373V115.373Z" stroke="#92D1D9" stroke-miterlimit="8"/>
<path fill-rule="evenodd" clip-rule="evenodd" d="M4.73151 81.6601C5.18506 83.3987 5.82758 85.0617 6.54568 86.6491L6.43231 86.6869L6.28113 86.7247C4.99609 87.1404 3.63544 87.3294 2.27481 87.3294C1.78348 87.3294 1.32993 87.3294 0.876404 87.2538L1.59451 82.0003C1.82129 82.0381 2.04803 82.0381 2.23703 82.0381C2.99292 82.0381 3.74884 81.9247 4.46695 81.7357L4.58032 81.6979L4.73151 81.6601V81.6601Z" fill="#92D1D9"/>
<path fill-rule="evenodd" clip-rule="evenodd" d="M9.15358 78.2963C9.19136 78.2207 9.22917 78.1829 9.26695 78.1073C9.30473 78.0318 9.34254 77.994 9.38032 77.9184C10.363 76.2176 11.0055 73.9877 11.1945 71.2664C11.2323 71.0396 11.2323 70.8506 11.2323 70.6617V70.3971V70.1703C11.2323 70.0569 11.2323 69.9436 11.2323 69.8302C11.2323 67.7892 10.9299 65.7483 10.3252 63.7829L10.2874 63.6318C10.2874 63.594 10.2874 63.5184 10.2496 63.4806C9.90947 62.3845 9.49373 61.2885 9.07799 60.2302C9.04018 60.1924 9.04018 60.1546 9.00239 60.1168C9.00239 60.079 8.96458 60.0412 8.96458 60.0034C8.43547 58.7562 7.86851 57.5467 7.30159 56.3373L6.84807 55.3924L6.77248 55.2412L6.73466 55.1278C4.39137 50.101 2.27483 44.8475 4.27797 38.5735C4.65593 37.4774 5.10948 36.3814 5.71419 35.3609C6.31892 34.3026 7.03703 33.3199 7.86851 32.4129L7.98192 32.2995C8.0197 32.2617 8.05751 32.2239 8.09529 32.1861C8.96458 34.0381 9.75828 35.9656 10.363 37.931L10.2874 38.0822C10.2496 38.1199 10.2496 38.1955 10.2118 38.2333C9.83388 38.8759 9.56932 39.5184 9.34254 40.1987C8.24647 43.638 8.9268 46.6995 10.2874 50.0255C10.3252 50.101 10.363 50.1388 10.363 50.2144C10.4008 50.29 10.4386 50.3278 10.4386 50.4034C10.9299 51.5751 11.4969 52.7845 12.1016 54.0695C12.4418 54.7877 12.7819 55.5058 13.1221 56.2239L13.1976 56.3751C13.1976 56.4129 13.2355 56.4507 13.2355 56.4884C13.8402 57.8491 14.4071 59.2097 14.9362 60.6459C14.9362 60.6837 14.974 60.7215 14.974 60.7593L15.0118 60.8727C15.5787 62.5357 15.9945 64.1987 16.2591 65.8995C16.2591 65.9373 16.2969 65.9751 16.2969 66.0507C16.2969 66.0884 16.2969 66.1262 16.2969 66.164C16.4859 67.3357 16.5614 68.5073 16.5614 69.7168C16.5614 70.3593 16.5614 71.0396 16.4859 71.6821C16.0701 77.1625 14.2559 81.3199 11.1945 84.0412C11.1567 84.079 11.1189 84.079 11.0811 84.1168L9.15358 78.2963V78.2963Z" fill="#92D1D9"/>
<path fill-rule="evenodd" clip-rule="evenodd" d="M27.2575 33.6601C25.2921 32.3751 23.0622 31.5436 20.8701 31.5058C18.6779 31.5436 16.448 32.3751 14.4827 33.6601L14.3693 33.7357L14.2559 33.8113C13.5756 32.0727 12.8197 30.4475 12.1016 28.8601C12.1016 28.8601 12.1394 28.8223 12.215 28.8223C12.2528 28.7845 12.2528 28.7467 12.2906 28.7467C12.4417 28.6711 12.5551 28.5577 12.7063 28.5199C15.163 27.0837 17.9598 26.29 20.7945 26.1766H20.9079C23.7803 26.29 26.5394 27.0837 29.0339 28.5199C29.1472 28.5577 29.2607 28.6711 29.4118 28.7467C29.4496 28.7467 29.4874 28.7845 29.5252 28.8223L29.6386 28.8601C28.8827 30.4475 28.1268 32.0727 27.4465 33.8113L27.3331 33.7357L27.2575 33.6601V33.6601Z" fill="#92D1D9"/>
<path fill-rule="evenodd" clip-rule="evenodd" d="M31.1504 84.5325C31.1126 84.5325 31.1126 84.4948 31.0748 84.4569C27.6732 81.7735 25.7457 77.4648 25.2543 71.6821C25.2165 71.0396 25.1787 70.3593 25.1787 69.7168C25.1787 68.394 25.2921 67.1089 25.4811 65.7861C25.4811 65.7483 25.4811 65.7105 25.5189 65.6727C25.5189 65.6349 25.5189 65.5971 25.5189 65.5593C25.8213 63.8585 26.2748 62.1955 26.8417 60.6081C26.8417 60.5703 26.8795 60.5325 26.8795 60.4948L26.9173 60.3436C27.4086 59.0207 27.9378 57.7357 28.5425 56.5262C28.5425 56.4507 28.5803 56.4129 28.5803 56.3751L28.6559 56.2239C28.996 55.5058 29.3362 54.7877 29.6386 54.0695C30.2433 52.7845 30.8102 51.5751 31.3394 50.4034L31.4149 50.2144C31.4149 50.1388 31.4527 50.101 31.4905 50.0255C32.8512 46.6995 33.5315 43.638 32.4354 40.1987C32.2086 39.5184 31.9063 38.8759 31.5661 38.2333L31.4905 38.0822C31.4527 38.0444 31.4149 37.9688 31.3771 37.931C32.0197 35.9656 32.7756 34.0381 33.6826 32.1861L33.7961 32.2995L33.8716 32.4129C34.7031 33.3199 35.4212 34.3026 36.026 35.3609C36.6307 36.3814 37.122 37.4774 37.4622 38.5735C39.4653 44.8475 37.3488 50.101 35.0055 55.1278L34.9677 55.2412C34.9299 55.3168 34.9299 55.3546 34.8921 55.3924L34.4386 56.3373C33.8716 57.5467 33.3047 58.7562 32.7756 60.0034C32.7756 60.0412 32.7378 60.079 32.7378 60.1168C32.7378 60.1546 32.7 60.1924 32.7 60.2302C32.322 61.1373 31.9819 62.0444 31.6417 62.9892C31.6417 63.027 31.6417 63.0648 31.6039 63.1026L31.5661 63.2538C30.9614 65.1436 30.5834 67.1467 30.5078 69.1499V69.3388V69.5656C30.5078 70.0947 30.5457 70.6617 30.5834 71.2664C30.848 74.5546 31.6795 77.1247 33.0401 78.9388C33.0779 78.9766 33.1157 79.0522 33.1535 79.09C33.1913 79.1278 33.2291 79.1656 33.2669 79.2034C32.9268 81.0176 32.2464 82.794 31.3771 84.6837L31.1504 84.5325V84.5325Z" fill="#92D1D9"/>
<path fill-rule="evenodd" clip-rule="evenodd" d="M44.0008 81.6601C44.4921 83.3987 45.0969 85.0617 45.8528 86.6491L45.7016 86.6869L45.5882 86.7625C44.2654 87.1404 42.8669 87.3294 41.4685 87.3294C41.1661 87.3294 40.826 87.3294 40.5236 87.3294C40.1835 87.3294 39.8811 87.3294 39.541 87.3294C38.4071 87.3294 37.2732 87.216 36.1772 86.9514L36.026 86.9136L35.9126 86.8759C36.6685 85.2507 37.311 83.5877 37.8024 81.8869L37.9157 81.9247H38.0669C38.5205 82.0003 38.974 82.0759 39.4654 82.0759C39.6921 82.0759 39.9189 82.0381 40.1457 82.0381L40.5236 81.9625L40.9016 82.0381C41.0905 82.0381 41.3173 82.0381 41.5441 82.0381C42.3 82.0381 43.0181 81.9625 43.7362 81.7735L43.8874 81.7357L44.0008 81.6601V81.6601Z" fill="#92D1D9"/>
<path fill-rule="evenodd" clip-rule="evenodd" d="M55.7929 71.6821C55.3393 77.1625 53.563 81.3199 50.4638 84.0412L50.3504 84.1168L50.2748 84.2302C49.3677 82.1514 48.6496 80.2239 48.4228 78.2963C48.4606 78.2207 48.4984 78.1829 48.5362 78.1073C48.574 78.0318 48.6118 77.994 48.6496 77.9184C49.6323 76.2176 50.2748 73.9877 50.4638 71.2664C50.5015 71.0396 50.5015 70.8506 50.5015 70.6617V70.3971V70.1703C50.5015 70.0569 50.5015 69.9814 50.5015 69.868C50.5015 67.7892 50.1992 65.7483 49.5945 63.7829L49.5567 63.6318C49.5567 63.594 49.5567 63.5562 49.5189 63.4806C49.1787 62.3845 48.763 61.3262 48.3472 60.2302C48.3094 60.1924 48.2716 60.1546 48.2716 60.1168C48.2716 60.079 48.2338 60.0412 48.2338 60.0034C47.7047 58.7562 47.1378 57.5467 46.5709 56.3373C46.4197 56.0349 46.2685 55.6947 46.1173 55.3924L46.0417 55.2412L46.0039 55.1278C43.6606 50.101 41.5441 44.8475 43.5472 38.5735C43.9252 37.4774 44.3787 36.3814 44.9834 35.3609C45.5882 34.3026 46.3063 33.3199 47.1378 32.4129L47.2134 32.2995C47.2511 32.2617 47.289 32.2239 47.3267 32.1861C48.2338 34.0381 48.9897 35.9656 49.6323 37.931L49.5567 38.0822C49.5189 38.1577 49.4811 38.1955 49.4433 38.2711C49.1031 38.8759 48.8008 39.5184 48.6118 40.1987C47.5157 43.638 48.1583 46.6995 49.5567 50.0255C49.5567 50.101 49.5945 50.1388 49.6323 50.2144C49.6323 50.29 49.6701 50.3278 49.7078 50.4034C50.1992 51.5751 50.7661 52.7845 51.3708 54.0695C51.711 54.7877 52.0512 55.5058 52.3535 56.2239L52.4291 56.3751C52.4669 56.4129 52.4669 56.4507 52.5047 56.4884C53.0716 57.8491 53.6763 59.2097 54.1677 60.6459C54.1677 60.6837 54.2055 60.7215 54.2433 60.7593L54.2811 60.8727C54.8102 62.5357 55.2638 64.1987 55.5283 65.8995C55.5283 65.9373 55.5283 65.9751 55.5661 66.0507C55.5661 66.0884 55.5661 66.1262 55.5661 66.164C55.7551 67.3735 55.8307 68.6207 55.8307 69.8302C55.8307 70.4727 55.8307 71.0774 55.7929 71.6821V71.6821Z" fill="#92D1D9"/>
<path fill-rule="evenodd" clip-rule="evenodd" d="M66.5268 33.6601C64.5992 32.3751 62.3315 31.5436 60.1394 31.5058C57.985 31.5436 55.7173 32.3751 53.7898 33.6601L53.6764 33.7357L53.563 33.8113C52.8827 32.0727 52.1268 30.4475 51.3708 28.8601L51.4843 28.8223C51.522 28.7845 51.522 28.7845 51.5598 28.7467H51.5976C51.7488 28.6711 51.8622 28.5577 52.0134 28.4821C54.4701 27.0837 57.2669 26.29 60.1016 26.1766H60.215C63.0496 26.29 65.8464 27.0837 68.3031 28.5199C68.4543 28.5577 68.5677 28.6711 68.7189 28.7467C68.7567 28.7467 68.7567 28.7845 68.8323 28.8223L68.9456 28.8601C68.1898 30.4475 67.4338 32.0727 66.7535 33.8113L66.6401 33.7357L66.5268 33.6601V33.6601Z" fill="#92D1D9"/>
<path fill-rule="evenodd" clip-rule="evenodd" d="M74.2748 55.1278L74.237 55.2412C74.1992 55.279 74.1992 55.3546 74.1614 55.3924L73.7457 56.3373C73.1787 57.5467 72.574 58.7562 72.0827 60.0034C72.0449 60.0412 72.0071 60.079 72.0071 60.1168C72.0071 60.1546 71.9693 60.1924 71.9693 60.2302C71.5913 61.1373 71.2512 62.0444 70.9488 62.9892C70.911 63.027 70.911 63.0648 70.911 63.1026L70.8354 63.2538C70.2307 65.1436 69.8528 67.1467 69.7772 69.1499V69.3388V69.5278C69.7772 70.0947 69.8149 70.6617 69.8528 71.2664C70.1173 74.5546 70.9488 77.1247 72.3094 78.9388C72.3472 78.9766 72.385 79.0144 72.4228 79.0522C72.4606 79.1278 72.4984 79.1656 72.5362 79.2034C72.196 80.9798 71.5157 82.794 70.6465 84.6837C70.6086 84.6837 70.6086 84.6459 70.5331 84.6081L70.4575 84.5325L70.3441 84.4569C66.9803 81.7735 65.015 77.4648 64.5614 71.6821C64.4858 71.0396 64.4858 70.3593 64.4858 69.7168C64.4858 68.394 64.5614 67.0711 64.7882 65.7861C64.7882 65.7483 64.7882 65.7105 64.7882 65.6727C64.826 65.6349 64.7882 65.5593 64.826 65.5215C65.1283 63.8585 65.5441 62.1955 66.111 60.6081C66.111 60.5703 66.1488 60.5325 66.1866 60.457C66.1866 60.4192 66.2244 60.3814 66.2244 60.3436C66.7157 59.0207 67.2449 57.7357 67.774 56.4884L67.8496 56.3751C67.8874 56.2995 67.8874 56.2617 67.9252 56.2239C68.2654 55.5058 68.6055 54.7499 68.9079 54.0695C69.5126 52.7845 70.1173 51.5751 70.6086 50.4034L70.6842 50.2144C70.6842 50.1388 70.722 50.0632 70.7598 50.0255C72.1205 46.6617 72.8008 43.638 71.7047 40.1987C71.4779 39.5184 71.1756 38.8759 70.8354 38.2333L70.7598 38.0822C70.722 38.0444 70.6842 37.9688 70.6465 37.931C71.289 35.9656 72.0827 34.0381 72.952 32.1861L73.0653 32.2995L73.1409 32.4129C73.9724 33.2822 74.6905 34.3026 75.2953 35.3609C75.9 36.3814 76.3913 37.4396 76.7693 38.5735C78.7346 44.8475 76.6181 50.101 74.2748 55.1278V55.1278Z" fill="#92D1D9"/>
<path fill-rule="evenodd" clip-rule="evenodd" d="M83.2701 81.6601C83.7614 83.3987 84.3661 85.0617 85.1221 86.6491L85.0087 86.6869L84.8575 86.7625C83.5347 87.1404 82.1362 87.3294 80.7756 87.3294C80.4355 87.3294 80.1331 87.3294 79.7929 87.3294C79.4906 87.3294 79.1882 87.3294 78.8481 87.3294C77.7142 87.3294 76.5803 87.216 75.4843 86.9514L75.3331 86.9136L75.2197 86.8759C75.9378 85.2507 76.5803 83.5877 77.0717 81.8869L77.2228 81.9247H77.3362C77.7898 82.0003 78.2811 82.0759 78.7346 82.0759C78.9614 82.0759 79.1882 82.0381 79.415 82.0381L79.7929 81.9625L80.1709 82.0381C80.3976 82.0381 80.6244 82.0381 80.8134 82.0381C81.5693 82.0381 82.3252 81.9625 83.0433 81.7735L83.1567 81.7357L83.2701 81.6601V81.6601Z" fill="#92D1D9"/>
<path fill-rule="evenodd" clip-rule="evenodd" d="M89.7709 84.0412L89.6575 84.1168L89.5441 84.2302C88.637 82.1514 87.9567 80.2239 87.7299 78.2963C87.7677 78.2207 87.8055 78.1829 87.8433 78.1073C87.8811 78.0318 87.9189 77.994 87.9567 77.9184C88.9394 76.2176 89.5441 73.9877 89.7709 71.2664C89.7709 71.0396 89.8087 70.8506 89.8087 70.6617V70.3971V70.1703C89.8087 70.0569 89.8087 69.9814 89.8087 69.868C89.8087 67.827 89.5063 65.7483 88.9016 63.7829C88.9016 63.7074 88.8638 63.6696 88.8638 63.6318L88.826 63.5184C88.4858 62.3845 88.0701 61.3262 87.6165 60.268C87.6165 60.1924 87.5787 60.1546 87.5787 60.1168C87.5409 60.079 87.5409 60.0412 87.5032 60.0034C86.974 58.7562 86.4449 57.5467 85.8402 56.3373L85.4244 55.3924L85.3488 55.279L85.311 55.1278C82.9677 50.101 80.8512 44.8475 82.8165 38.5735C83.1945 37.4774 83.6858 36.3814 84.2906 35.3609C84.8953 34.3026 85.6134 33.3199 86.4449 32.4129C86.4827 32.3751 86.5205 32.3373 86.5205 32.2995L86.6339 32.1861C87.5409 34.0381 88.2969 35.9656 88.9394 37.931L88.8638 38.0822C88.826 38.1199 88.7882 38.1955 88.7504 38.2333C88.4102 38.8759 88.1079 39.5184 87.9189 40.1987C86.8228 43.638 87.4653 46.6617 88.8638 50.0255C88.8638 50.0632 88.9016 50.1388 88.9394 50.2144L89.015 50.4034C89.5063 51.5751 90.0732 52.7845 90.678 54.0695C91.0181 54.7499 91.3583 55.5058 91.6606 56.2239L91.7362 56.3751C91.774 56.4129 91.774 56.4507 91.8118 56.4884C92.3787 57.8113 92.9835 59.1719 93.4748 60.6459C93.5126 60.6837 93.5126 60.7215 93.5126 60.7593L93.5882 60.8727C94.1173 62.4979 94.5709 64.1987 94.8354 65.8995C94.8354 65.9373 94.8354 65.9751 94.8732 66.0129C94.8732 66.0507 94.8732 66.1262 94.8732 66.164C95.0622 67.3357 95.1378 68.5451 95.1378 69.7546C95.1378 70.3971 95.1 71.0396 95.0622 71.6821C94.6087 77.1625 92.8323 81.3199 89.7709 84.0412V84.0412Z" fill="#92D1D9"/>
<path fill-rule="evenodd" clip-rule="evenodd" d="M105.834 33.6601C103.868 32.3751 101.639 31.5436 99.4464 31.5058C97.2543 31.5436 95.0244 32.3751 93.0968 33.6601L92.9835 33.7357L92.8701 33.8113C92.1898 32.0727 91.3961 30.4475 90.6779 28.8601L90.7913 28.8223C90.7913 28.7845 90.8291 28.7845 90.8291 28.7467C90.8669 28.7467 90.8669 28.7467 90.9047 28.7467C91.0181 28.6711 91.1693 28.5577 91.3205 28.4821C93.7772 27.0837 96.5362 26.29 99.4087 26.1766H99.4843C102.357 26.29 105.116 27.0837 107.61 28.5199C107.724 28.5577 107.875 28.6711 107.988 28.7467C108.026 28.7467 108.064 28.7845 108.102 28.8223L108.215 28.8601C107.497 30.4475 106.703 32.0727 106.023 33.8113L105.909 33.7357L105.834 33.6601V33.6601Z" fill="#92D1D9"/>
<path fill-rule="evenodd" clip-rule="evenodd" d="M113.582 55.1278L113.506 55.2412L113.469 55.3924C113.317 55.6947 113.166 55.9971 113.015 56.3373C112.448 57.5467 111.881 58.7562 111.352 60.0034C111.314 60.0412 111.314 60.079 111.276 60.1168C111.276 60.1546 111.276 60.1924 111.239 60.2302C110.861 61.1373 110.52 62.0444 110.218 62.9892C110.218 63.027 110.18 63.0648 110.18 63.1026L110.143 63.2538C109.5 65.1436 109.16 67.1467 109.084 69.1499V69.3388V69.5278C109.084 70.0947 109.084 70.6617 109.122 71.2664C109.387 74.5546 110.218 77.1247 111.617 78.9388L111.73 79.09L111.843 79.2034C111.465 80.9798 110.785 82.794 109.954 84.6837C109.916 84.6837 109.878 84.6459 109.84 84.6081L109.727 84.5325L109.651 84.4569C106.25 81.7735 104.284 77.4648 103.831 71.6821C103.793 71.0396 103.755 70.3593 103.755 69.7168C103.755 68.394 103.868 67.0711 104.057 65.7861C104.057 65.7483 104.095 65.7105 104.095 65.6727C104.095 65.6349 104.095 65.5593 104.095 65.5215C104.398 63.8585 104.851 62.1955 105.418 60.6081C105.418 60.5703 105.456 60.5325 105.456 60.457C105.494 60.4192 105.494 60.3814 105.494 60.3436C105.985 59.0207 106.514 57.7357 107.081 56.4884C107.119 56.4507 107.157 56.4129 107.157 56.3751L107.232 56.2239C107.572 55.5058 107.875 54.7499 108.215 54.0695C108.82 52.7845 109.387 51.5751 109.878 50.4034L109.954 50.2144L110.067 50.0255C111.428 46.6617 112.07 43.638 110.974 40.1987C110.785 39.5184 110.483 38.8759 110.143 38.2333L110.067 38.0822L109.954 37.931C110.596 35.9656 111.352 34.0381 112.259 32.1861L112.372 32.2995L112.448 32.4129C113.28 33.3199 113.998 34.3026 114.602 35.3609C115.207 36.3814 115.661 37.4396 116.039 38.5735C118.042 44.8475 115.925 50.101 113.582 55.1278V55.1278Z" fill="#92D1D9"/>
<path fill-rule="evenodd" clip-rule="evenodd" d="M122.577 81.6601C123.068 83.3987 123.673 85.0617 124.391 86.6491L124.278 86.6869L124.165 86.7625C122.842 87.1404 121.443 87.3294 120.045 87.3294C119.743 87.3294 119.402 87.3294 119.1 87.3294C118.798 87.3294 118.457 87.3294 118.155 87.3294C117.021 87.3294 115.887 87.216 114.754 86.9514L114.64 86.9136L114.489 86.8759C115.245 85.2507 115.887 83.5877 116.379 81.8869H116.53L116.643 81.9247C117.097 82.0003 117.588 82.0381 118.08 82.0381C118.306 82.0381 118.533 82.0381 118.76 82.0381L119.138 81.9625L119.478 82.0381C119.667 82.0381 119.894 82.0381 120.12 82.0381C120.876 82.0381 121.594 81.9625 122.35 81.7357H122.464L122.577 81.6601V81.6601Z" fill="#92D1D9"/>
<path fill-rule="evenodd" clip-rule="evenodd" d="M129.04 84.0412L128.927 84.1168L128.813 84.2302C127.944 82.1514 127.226 80.2239 126.999 78.2963C127.037 78.2207 127.075 78.1829 127.113 78.1073C127.15 78.0318 127.188 77.994 127.226 77.9184C128.209 76.2176 128.813 73.9877 129.04 71.2664C129.04 71.0396 129.078 70.8506 129.078 70.6617V70.3971V70.1703C129.078 70.0947 129.078 69.9814 129.078 69.868C129.078 67.827 128.776 65.7483 128.171 63.7829L128.133 63.6318C128.095 63.594 128.095 63.5562 128.095 63.5184C127.755 62.3845 127.339 61.3262 126.886 60.268C126.886 60.2302 126.848 60.1924 126.848 60.1168C126.81 60.079 126.81 60.0412 126.772 60.0034C126.243 58.7562 125.676 57.5467 125.109 56.3373L124.694 55.3924L124.618 55.279L124.58 55.1278C122.237 50.101 120.12 44.8475 122.086 38.6113C122.464 37.4774 122.955 36.4192 123.522 35.3987C124.165 34.3404 124.883 33.3199 125.752 32.4129L125.828 32.2995L125.941 32.1861C126.81 34.0381 127.604 35.9656 128.246 37.931L128.133 38.0822L128.058 38.2333C127.68 38.8759 127.415 39.5184 127.188 40.1987C126.092 43.6003 126.772 46.6617 128.133 50.0255C128.133 50.0632 128.171 50.1388 128.209 50.2144L128.284 50.3656C128.776 51.5751 129.343 52.7845 129.947 54.0695C130.287 54.7499 130.628 55.468 130.968 56.2239L131.006 56.3373C131.043 56.4129 131.043 56.4507 131.081 56.4884C131.686 57.8113 132.253 59.1719 132.782 60.6081C132.782 60.6837 132.782 60.7215 132.82 60.7593L132.857 60.8727C133.424 62.4979 133.84 64.1609 134.105 65.8995C134.105 65.9373 134.143 65.9751 134.143 66.0129C134.143 66.0507 134.143 66.0884 134.143 66.164C134.332 67.3357 134.407 68.5451 134.407 69.7546C134.407 70.3971 134.407 71.0396 134.332 71.6821C133.916 77.1625 132.102 81.3199 129.04 84.0412V84.0412Z" fill="#92D1D9"/>
<path fill-rule="evenodd" clip-rule="evenodd" d="M145.103 33.6601C143.138 32.3751 140.908 31.5436 138.716 31.5058C136.524 31.5436 134.294 32.3751 132.366 33.6601L132.253 33.7357L132.139 33.8113C131.459 32.0727 130.665 30.4475 129.947 28.8601L130.061 28.8223C130.061 28.7845 130.098 28.7845 130.136 28.7467H130.174C130.287 28.6711 130.439 28.5577 130.552 28.4821C133.046 27.0837 135.806 26.29 138.678 26.1766H138.754C141.626 26.29 144.423 27.0837 146.88 28.5199C146.993 28.5577 147.144 28.6711 147.258 28.7467C147.295 28.7467 147.333 28.7845 147.371 28.8223L147.484 28.8601C146.766 30.4475 146.01 32.0727 145.33 33.8113L145.217 33.7357L145.103 33.6601V33.6601Z" fill="#92D1D9"/>
<path fill-rule="evenodd" clip-rule="evenodd" d="M152.851 55.1278L152.813 55.2412L152.738 55.3924L152.284 56.3373C151.717 57.5467 151.15 58.7562 150.621 60.0034C150.621 60.0412 150.583 60.079 150.583 60.1168C150.583 60.1546 150.546 60.1924 150.508 60.2302C150.13 61.1373 149.79 62.0444 149.487 62.9892C149.487 63.027 149.45 63.0648 149.45 63.1026C149.45 63.1404 149.412 63.1782 149.412 63.2538C148.769 65.1436 148.429 67.1467 148.354 69.1499V69.3388V69.5278C148.354 70.0947 148.354 70.6617 148.391 71.2664C148.656 74.5546 149.487 77.1247 150.886 78.9388L150.999 79.09L151.113 79.2034C150.772 80.9798 150.092 82.794 149.223 84.6837C149.185 84.6837 149.147 84.6459 149.109 84.6081L148.996 84.5325L148.92 84.4569C145.519 81.7735 143.591 77.4648 143.1 71.6821C143.062 71.0396 143.024 70.3593 143.024 69.7168C143.024 68.394 143.138 67.0711 143.327 65.7861C143.327 65.7483 143.327 65.7105 143.365 65.6727C143.402 65.6349 143.402 65.5593 143.402 65.5215C143.705 63.8585 144.12 62.1955 144.687 60.6081C144.725 60.5703 144.725 60.5325 144.725 60.457L144.763 60.3436C145.254 59.0207 145.821 57.7357 146.388 56.4884C146.388 56.4507 146.426 56.4129 146.426 56.3751L146.502 56.2239C146.842 55.5058 147.182 54.7499 147.522 54.0695C148.127 52.7845 148.656 51.5751 149.185 50.4034L149.261 50.2144C149.261 50.1388 149.298 50.101 149.336 50.0255C150.697 46.6617 151.377 43.638 150.281 40.1987C150.054 39.5184 149.752 38.8759 149.412 38.2333L149.336 38.0822L149.223 37.931C149.865 35.9656 150.621 34.0381 151.528 32.1861L151.642 32.2995C151.68 32.3373 151.717 32.3751 151.717 32.4129C152.549 33.3199 153.267 34.3026 153.909 35.3609C154.476 36.3814 154.968 37.4396 155.308 38.5735C157.311 44.8475 155.194 50.101 152.851 55.1278V55.1278Z" fill="#92D1D9"/>
<path fill-rule="evenodd" clip-rule="evenodd" d="M158.747 87.2916C158.332 87.3294 157.954 87.3294 157.538 87.3294C157.5 87.3294 157.462 87.3294 157.424 87.3294C156.291 87.3294 155.157 87.216 154.023 86.9514L153.909 86.9136L153.758 86.8759C154.514 85.2506 155.157 83.5876 155.648 81.8869H155.761L155.913 81.9247C156.404 82.0003 156.857 82.0381 157.349 82.0381C157.576 82.0381 157.802 82.0381 158.029 82.0381L158.747 87.2916V87.2916Z" fill="#92D1D9"/>
<path fill-rule="evenodd" clip-rule="evenodd" d="M158.294 56.7152L158.256 56.6018H158.143C157.916 56.6396 157.689 56.6396 157.5 56.6396C155.988 56.6396 154.552 56.2239 153.267 55.5058C153.154 55.4302 153.078 55.3924 152.965 55.3546C152.776 55.2034 152.587 55.0522 152.398 54.901C151.075 53.805 150.092 52.2554 149.45 50.2144C149.034 48.8538 148.769 47.4176 148.656 45.9814C148.618 45.49 148.618 44.9987 148.618 44.5074C148.618 42.4286 148.92 40.3877 149.525 38.4601C150.168 36.457 150.924 34.4916 151.831 32.6018C152.057 32.1105 152.322 31.6192 152.549 31.1278C155.081 25.6853 157.727 20.0916 155.572 13.2885C153.343 6.29633 146.199 0.929397 138.905 0.778214H138.791C131.535 0.929398 124.354 6.29633 122.124 13.2507C119.969 20.0538 122.615 25.6853 125.147 31.09C125.374 31.5814 125.639 32.0727 125.865 32.6018C126.772 34.4916 127.528 36.4192 128.171 38.4223C128.776 40.3877 129.078 42.4286 129.078 44.4696C129.078 44.9609 129.078 45.4522 129.04 45.9436C128.927 47.3798 128.662 48.816 128.246 50.2144C127.604 52.2176 126.621 53.805 125.336 54.8633C125.147 55.0522 124.92 55.1656 124.732 55.3168C124.618 55.3546 124.543 55.4302 124.467 55.468C123.144 56.2239 121.708 56.6396 120.196 56.6396C120.007 56.6396 119.818 56.6018 119.591 56.6018L119.251 56.5262L118.835 56.6018C118.609 56.6018 118.382 56.6396 118.155 56.6396C116.681 56.6396 115.245 56.2239 113.96 55.5058C113.884 55.4302 113.771 55.3924 113.695 55.3546C113.506 55.2034 113.28 55.0522 113.091 54.901C111.768 53.805 110.785 52.2554 110.143 50.2144C109.765 48.8538 109.5 47.4176 109.387 45.9814C109.349 45.49 109.311 44.9987 109.311 44.5074C109.311 42.4286 109.651 40.3877 110.256 38.4601C110.898 36.457 111.654 34.4916 112.561 32.6018C112.788 32.1105 113.015 31.6192 113.242 31.1278C115.812 25.6853 118.457 20.0916 116.303 13.2885C114.035 6.29633 106.892 0.929397 99.6354 0.778214H99.522C92.2276 0.929398 85.0843 6.29633 82.8543 13.2507C80.6622 20.0538 83.3079 25.6853 85.878 31.09C86.1047 31.5814 86.3315 32.1105 86.5583 32.6018C87.5031 34.4916 88.2591 36.4192 88.9016 38.4223C89.5063 40.3877 89.8087 42.4286 89.8087 44.4696C89.8087 44.9609 89.8087 45.4522 89.7709 45.9436C89.6575 47.3798 89.3929 48.816 88.9772 50.2144C88.3347 52.2176 87.352 53.805 86.0291 54.8633C85.8401 55.0522 85.6512 55.1656 85.4244 55.3168C85.3488 55.3924 85.2354 55.4302 85.1599 55.5058C83.8748 56.2239 82.4008 56.6396 80.9268 56.6396C80.7378 56.6396 80.511 56.6018 80.3221 56.6018L79.9063 56.5262L79.5284 56.6018C79.3394 56.6018 79.1126 56.6396 78.8858 56.6396C77.4496 56.6396 76.0134 56.2239 74.7283 55.5058C74.6528 55.4302 74.5394 55.3924 74.426 55.3168C74.237 55.2034 74.048 55.0522 73.8969 54.901C72.5362 53.8428 71.5536 52.2554 70.8732 50.2144C70.4575 48.816 70.1929 47.3798 70.1173 45.9436C70.0795 45.4522 70.0417 44.9609 70.0417 44.4696C70.0417 42.4286 70.3441 40.3877 70.9866 38.4223C71.5913 36.4192 72.385 34.4916 73.2921 32.6018C73.5189 32.0727 73.7457 31.5814 73.9724 31.09C76.5425 25.6853 79.1882 20.0538 76.9961 13.2507C74.8039 6.29633 67.6228 0.929397 60.3661 0.778214H60.2527C52.9583 0.929398 45.815 6.29633 43.5851 13.2507C41.3929 20.0538 44.0386 25.6853 46.6087 31.09C46.8354 31.5814 47.0622 32.0727 47.289 32.6018C48.1961 34.4916 48.9898 36.4192 49.6323 38.4223C50.237 40.3877 50.5394 42.4286 50.5394 44.4696C50.5394 44.9609 50.5394 45.4522 50.5016 45.9436C50.3882 47.3798 50.1236 48.816 49.7079 50.2144C49.0654 52.2176 48.0827 53.805 46.7599 54.8633C46.5709 55.0144 46.3819 55.1656 46.1551 55.3168C46.0795 55.3546 45.9662 55.4302 45.8528 55.5058C44.6055 56.2239 43.1315 56.6018 41.6575 56.6018C41.4685 56.6018 41.2417 56.6018 41.0528 56.6018L40.6748 56.5262L40.2591 56.6018C40.0323 56.6018 39.8055 56.6396 39.5787 56.6396C38.1047 56.6396 36.6685 56.2239 35.4213 55.5058C35.3457 55.468 35.2323 55.3924 35.1189 55.3546C34.9299 55.2034 34.7787 55.09 34.5898 54.9388C33.2669 53.8806 32.2465 52.2932 31.6039 50.2144C31.1882 48.8538 30.9236 47.4176 30.8102 45.9814C30.8102 45.49 30.7724 44.9987 30.7724 44.5074C30.7724 42.4286 31.0748 40.3877 31.6795 38.4601C32.3221 36.457 33.1158 34.4916 34.0228 32.6018C34.2496 32.1105 34.4764 31.6192 34.7032 31.1278C37.2732 25.6853 39.9189 20.0916 37.7268 13.2885C35.4969 6.29633 28.3157 0.929397 21.0591 0.778214H20.9457C13.689 0.929398 6.50787 6.29633 4.27795 13.2507C2.12363 20.0538 4.76929 25.6853 7.33936 31.1278C7.56613 31.6192 7.79291 32.1105 8.01968 32.6018C8.92676 34.4916 9.68268 36.4192 10.3252 38.4223C10.9299 40.3877 11.2701 42.4286 11.2701 44.5074C11.2701 44.9987 11.2323 45.49 11.1945 45.9436C11.0811 47.4176 10.8165 48.816 10.4386 50.2144C9.79605 52.2176 8.81339 53.805 7.49054 54.901C7.26379 55.0522 7.0748 55.2034 6.88583 55.3546C6.77243 55.3924 6.69684 55.4302 6.58347 55.5058C5.29843 56.2617 3.86221 56.6396 2.38818 56.6396C2.16141 56.6396 1.97244 56.6396 1.74567 56.6018H1.63229L0.838593 62.1199H0.951965C1.4433 62.1955 1.89685 62.1955 2.3504 62.1955C4.76929 62.1955 7.11261 61.5908 9.19135 60.4192C9.22913 60.4192 9.22913 60.4192 9.26694 60.3814C9.83386 60.079 10.363 59.701 10.8921 59.2853C11.837 58.5294 12.6685 57.6601 13.3488 56.7152C15.2764 54.0695 16.4102 50.6302 16.7504 46.4349C17.1284 41.6349 16.0701 37.553 14.6339 33.8491C13.9536 32.1483 13.1976 30.4853 12.4417 28.9357C12.4039 28.8601 12.3661 28.8223 12.3661 28.7467C9.98505 23.6822 8.09528 19.6759 9.60709 14.9514C11.0811 10.3404 16.1835 6.48531 20.9835 6.37192C25.8213 6.48531 30.9236 10.3404 32.4354 14.9514C33.9095 19.6759 32.0197 23.6822 29.6386 28.7467C29.6008 28.8223 29.6008 28.8601 29.563 28.9357C28.8449 30.4853 28.0512 32.1483 27.3709 33.8491C25.9346 37.553 24.8764 41.6349 25.2543 46.4349C25.5945 50.6302 26.7283 54.0695 28.6181 56.7152C29.3362 57.6601 30.1677 58.5294 31.1126 59.2853C31.6039 59.6633 32.0953 60.0412 32.6622 60.3436C32.7 60.3814 32.7756 60.4192 32.8134 60.4192C34.9299 61.5908 37.311 62.1955 39.6921 62.1955C40.0323 62.1955 40.3347 62.1955 40.637 62.1577C40.9394 62.1955 41.2795 62.1955 41.5819 62.1955C44.0008 62.1955 46.3819 61.5908 48.4606 60.4192C48.4984 60.4192 48.5362 60.4192 48.574 60.3814C49.1409 60.079 49.6701 59.701 50.1614 59.2853C51.1063 58.5294 51.9378 57.6601 52.6559 56.7152C54.5457 54.0695 55.6795 50.6302 56.0197 46.4349C56.3976 41.6349 55.3394 37.553 53.9031 33.8491C53.2228 32.1483 52.4669 30.4853 51.711 28.9357L51.6354 28.7467C49.2543 23.6822 47.3646 19.6759 48.8386 14.9514C50.3126 10.3404 55.4528 6.48531 60.2906 6.37192C65.0905 6.48531 70.1929 10.3404 71.7047 14.9514C73.2165 19.6759 71.3268 23.6822 68.9079 28.7467C68.9079 28.8223 68.8701 28.8601 68.8323 28.9357C68.0764 30.4853 67.3205 32.1483 66.6402 33.8491C65.2039 37.553 64.1457 41.6349 64.5236 46.4349C64.8638 50.6302 65.9977 54.0695 67.9252 56.7152C68.6433 57.6601 69.4748 58.5294 70.3819 59.2853C70.911 59.701 71.4024 60.0412 71.9693 60.3814C72.0071 60.3814 72.0449 60.4192 72.0827 60.4192C74.1992 61.5908 76.5803 62.1955 78.9614 62.1955C79.2638 62.1955 79.6039 62.1955 79.9063 62.1577C80.2465 62.1955 80.5488 62.1955 80.889 62.1955C83.2701 62.1955 85.6512 61.5908 87.7677 60.4192C87.8055 60.4192 87.8433 60.3814 87.9189 60.3436C88.448 60.0412 88.9772 59.6633 89.4685 59.2853C90.4134 58.5294 91.2449 57.6601 91.9252 56.7152C93.8528 54.0695 94.9866 50.6302 95.3268 46.4349C95.7047 41.6349 94.6465 37.553 93.1725 33.8491C92.5299 32.1483 91.7362 30.4853 91.0181 28.9357L90.9047 28.7467C88.5236 23.6822 86.6717 19.6759 88.1457 14.9514C89.6197 10.3404 94.7599 6.48531 99.5598 6.37192C104.398 6.48531 109.5 10.3404 110.974 14.9514C112.486 19.6759 110.596 23.6822 108.215 28.7467C108.177 28.8223 108.139 28.8601 108.139 28.9357C107.383 30.4853 106.628 32.1483 105.947 33.8491C104.511 37.553 103.453 41.6349 103.831 46.4349C104.171 50.6302 105.305 54.0695 107.194 56.7152C107.913 57.6601 108.744 58.5294 109.651 59.2853C110.18 59.701 110.709 60.0412 111.239 60.3814C111.276 60.3814 111.314 60.4192 111.352 60.4192C113.469 61.5908 115.85 62.1955 118.231 62.1955C118.571 62.1955 118.873 62.1955 119.176 62.1577C119.516 62.1955 119.856 62.1955 120.158 62.1955C122.577 62.1955 124.958 61.5908 127.075 60.4192C127.113 60.4192 127.113 60.3814 127.15 60.3814C127.717 60.0412 128.246 59.701 128.776 59.2853C129.683 58.5294 130.514 57.6601 131.232 56.7152C133.122 54.0695 134.256 50.6302 134.596 46.4349C135.012 41.6349 133.954 37.553 132.48 33.8491C131.799 32.1483 131.043 30.4853 130.287 28.9357L130.212 28.7467C127.831 23.6822 125.941 19.6759 127.453 14.9514C128.927 10.3404 134.029 6.48531 138.867 6.37192C143.667 6.48531 148.769 10.3404 150.281 14.9514C151.755 19.6759 149.865 23.6822 147.522 28.7467C147.484 28.8223 147.446 28.8601 147.409 28.9357C146.691 30.4853 145.897 32.1483 145.217 33.8491C143.78 37.553 142.722 41.6349 143.1 46.4349C143.44 50.6302 144.574 54.0695 146.502 56.7152C147.182 57.6601 148.013 58.5294 148.958 59.2853C149.45 59.6633 149.979 60.0412 150.546 60.3814C150.583 60.3814 150.621 60.4192 150.659 60.4192C152.776 61.5908 155.119 62.1955 157.538 62.1955C157.576 62.1955 157.613 62.1955 157.651 62.1955C158.067 62.1955 158.483 62.1955 158.861 62.1199H159.012L158.294 56.7152V56.7152Z" stroke="#92D1D9" stroke-miterlimit="8"/>
</svg>
