<svg width="17" height="23" viewBox="0 0 17 23" fill="none"
    xmlns="http://www.w3.org/2000/svg">
    <path fill-rule="evenodd" clip-rule="evenodd" d="M5.9904 9.41348H1.03849C0.704761 9.41348 0.402918 9.21512 0.270548 8.90875C0.138188 8.60238 0.200469 8.24662 0.429239 8.00363L7.89091 0.263208C8.04899 0.0952689 8.2694 0 8.50004 0C8.73068 0 8.95109 0.0952689 9.10917 0.263208L16.5707 8.00363C16.7995 8.24662 16.8619 8.60238 16.7295 8.90875C16.5972 9.21512 16.2954 9.41348 15.9616 9.41348H11.0096L11.0097 21.0096C11.0097 21.5619 10.562 22.0096 10.0097 22.0096L6.99052 22.0096C6.43824 22.0096 5.99053 21.5619 5.99052 21.0096L5.9904 9.41348Z" fill="currentColor"/>
</svg>
