<?xml version="1.0" encoding="utf-8"?>
<!-- Generator: Adobe Illustrator 25.3.1, SVG Export Plug-In . SVG Version: 6.00 Build 0)  -->
<svg version="1.1" xmlns="http://www.w3.org/2000/svg" xmlns:xlink="http://www.w3.org/1999/xlink" x="0px" y="0px"
	 viewBox="0 0 33 33" style="enable-background:new 0 0 33 33;" xml:space="preserve">
<style type="text/css">
	.st0{display:none;}
	.st1{display:inline;fill:#616160;}
	.st2{display:inline;fill:#575756;stroke:#FFFFFF;stroke-width:0.6467;stroke-miterlimit:10;}
	.st3{fill:#FFFFFF;}
	.st4{fill:#30343F;}
	.st5{opacity:0.76;fill:#30343F;}
	.st6{opacity:0.3;fill:#30343F;}
	.st7{opacity:0.75;}
	.st8{fill:#55575F;}
	.st9{fill:none;stroke:#30343F;stroke-width:1.7954;stroke-miterlimit:10;}
	.st10{opacity:0.76;fill:#FFFFFF;stroke:#FFFFFF;stroke-width:0.3681;stroke-miterlimit:10;}
	.st11{fill:#FFFFFF;stroke:#FFFFFF;stroke-width:0.3681;stroke-miterlimit:10;}
	.st12{opacity:0.3;fill:#FFFFFF;stroke:#FFFFFF;stroke-width:0.3681;stroke-miterlimit:10;}
	.st13{fill:#FFFFFF;stroke:#FFFFFF;stroke-width:0.3133;stroke-miterlimit:10;}
	.st14{fill:#A0666C;}
	.st15{opacity:0.5;}
	.st16{clip-path:url(#SVGID_2_);fill:#7D9ED2;}
	.st17{clip-path:url(#SVGID_2_);fill:#7C9DD1;}
	.st18{clip-path:url(#SVGID_2_);fill:#7C9CD1;}
	.st19{clip-path:url(#SVGID_2_);fill:#7B9BD0;}
	.st20{clip-path:url(#SVGID_2_);fill:#7A9ACF;}
	.st21{clip-path:url(#SVGID_2_);fill:#7A99CF;}
	.st22{clip-path:url(#SVGID_2_);fill:#7998CE;}
	.st23{clip-path:url(#SVGID_2_);fill:#7897CD;}
	.st24{clip-path:url(#SVGID_2_);fill:#7896CC;}
	.st25{clip-path:url(#SVGID_2_);fill:#7795CC;}
	.st26{clip-path:url(#SVGID_2_);fill:#7794CB;}
	.st27{clip-path:url(#SVGID_2_);fill:#7693CA;}
	.st28{clip-path:url(#SVGID_2_);fill:#7592CA;}
	.st29{clip-path:url(#SVGID_2_);fill:#7591C9;}
	.st30{clip-path:url(#SVGID_2_);fill:#7490C8;}
	.st31{clip-path:url(#SVGID_2_);fill:#738FC8;}
	.st32{clip-path:url(#SVGID_2_);fill:#738EC7;}
	.st33{clip-path:url(#SVGID_2_);fill:#728DC6;}
	.st34{clip-path:url(#SVGID_2_);fill:#718CC6;}
	.st35{clip-path:url(#SVGID_2_);fill:#718BC5;}
	.st36{clip-path:url(#SVGID_2_);fill:#708AC4;}
	.st37{clip-path:url(#SVGID_2_);fill:#6F89C3;}
	.st38{clip-path:url(#SVGID_2_);fill:#6F88C3;}
	.st39{clip-path:url(#SVGID_2_);fill:#6E87C2;}
	.st40{clip-path:url(#SVGID_2_);fill:#6E86C1;}
	.st41{clip-path:url(#SVGID_2_);fill:#6D85C1;}
	.st42{clip-path:url(#SVGID_2_);fill:#6C84C0;}
	.st43{clip-path:url(#SVGID_2_);fill:#6C83BF;}
	.st44{clip-path:url(#SVGID_2_);fill:#6B82BF;}
	.st45{clip-path:url(#SVGID_2_);fill:#6A81BE;}
	.st46{clip-path:url(#SVGID_2_);fill:#6A80BD;}
	.st47{clip-path:url(#SVGID_2_);fill:#697FBD;}
	.st48{clip-path:url(#SVGID_2_);fill:#687DBC;}
	.st49{clip-path:url(#SVGID_2_);fill:#687CBB;}
	.st50{clip-path:url(#SVGID_2_);fill:#677BBA;}
	.st51{clip-path:url(#SVGID_2_);fill:#667ABA;}
	.st52{clip-path:url(#SVGID_2_);fill:#6679B9;}
	.st53{clip-path:url(#SVGID_2_);fill:#6578B8;}
	.st54{clip-path:url(#SVGID_2_);fill:#6477B8;}
	.st55{clip-path:url(#SVGID_2_);fill:#6476B7;}
	.st56{clip-path:url(#SVGID_2_);fill:#6375B6;}
	.st57{clip-path:url(#SVGID_2_);fill:#6374B6;}
	.st58{clip-path:url(#SVGID_2_);fill:#6273B5;}
	.st59{clip-path:url(#SVGID_2_);fill:#6172B4;}
	.st60{clip-path:url(#SVGID_2_);fill:#6171B3;}
	.st61{clip-path:url(#SVGID_2_);fill:#6070B3;}
	.st62{clip-path:url(#SVGID_2_);fill:#5F6FB2;}
	.st63{clip-path:url(#SVGID_2_);fill:#5F6EB1;}
	.st64{clip-path:url(#SVGID_2_);fill:#5E6DB1;}
	.st65{clip-path:url(#SVGID_2_);fill:#5D6CB0;}
	.st66{clip-path:url(#SVGID_2_);fill:#5D6BAF;}
	.st67{clip-path:url(#SVGID_2_);fill:#5C6AAF;}
	.st68{clip-path:url(#SVGID_2_);fill:#5B69AE;}
	.st69{clip-path:url(#SVGID_2_);fill:#5B68AD;}
	.st70{clip-path:url(#SVGID_2_);fill:#5A67AD;}
	.st71{clip-path:url(#SVGID_2_);fill:#5A66AC;}
	.st72{clip-path:url(#SVGID_2_);fill:#5965AB;}
	.st73{clip-path:url(#SVGID_2_);fill:#5864AA;}
	.st74{clip-path:url(#SVGID_2_);fill:#5863AA;}
	.st75{clip-path:url(#SVGID_2_);fill:#5762A9;}
	.st76{clip-path:url(#SVGID_2_);fill:#5661A8;}
	.st77{clip-path:url(#SVGID_2_);fill:#5660A8;}
	.st78{clip-path:url(#SVGID_2_);fill:#555FA7;}
	.st79{clip-path:url(#SVGID_4_);fill:#7D9ED2;}
	.st80{clip-path:url(#SVGID_4_);fill:#7C9DD1;}
	.st81{clip-path:url(#SVGID_4_);fill:#7C9CD1;}
	.st82{clip-path:url(#SVGID_4_);fill:#7B9BD0;}
	.st83{clip-path:url(#SVGID_4_);fill:#7A9ACF;}
	.st84{clip-path:url(#SVGID_4_);fill:#7A99CF;}
	.st85{clip-path:url(#SVGID_4_);fill:#7998CE;}
	.st86{clip-path:url(#SVGID_4_);fill:#7897CD;}
	.st87{clip-path:url(#SVGID_4_);fill:#7896CC;}
	.st88{clip-path:url(#SVGID_4_);fill:#7795CC;}
	.st89{clip-path:url(#SVGID_4_);fill:#7794CB;}
	.st90{clip-path:url(#SVGID_4_);fill:#7693CA;}
	.st91{clip-path:url(#SVGID_4_);fill:#7592CA;}
	.st92{clip-path:url(#SVGID_4_);fill:#7591C9;}
	.st93{clip-path:url(#SVGID_4_);fill:#7490C8;}
	.st94{clip-path:url(#SVGID_4_);fill:#738FC8;}
	.st95{clip-path:url(#SVGID_4_);fill:#738EC7;}
	.st96{clip-path:url(#SVGID_4_);fill:#728DC6;}
	.st97{clip-path:url(#SVGID_4_);fill:#718CC6;}
	.st98{clip-path:url(#SVGID_4_);fill:#718BC5;}
	.st99{clip-path:url(#SVGID_4_);fill:#708AC4;}
	.st100{clip-path:url(#SVGID_4_);fill:#6F89C3;}
	.st101{clip-path:url(#SVGID_4_);fill:#6F88C3;}
	.st102{clip-path:url(#SVGID_4_);fill:#6E87C2;}
	.st103{clip-path:url(#SVGID_4_);fill:#6E86C1;}
	.st104{clip-path:url(#SVGID_4_);fill:#6D85C1;}
	.st105{clip-path:url(#SVGID_4_);fill:#6C84C0;}
	.st106{clip-path:url(#SVGID_4_);fill:#6C83BF;}
	.st107{clip-path:url(#SVGID_4_);fill:#6B82BF;}
	.st108{clip-path:url(#SVGID_4_);fill:#6A81BE;}
	.st109{clip-path:url(#SVGID_4_);fill:#6A80BD;}
	.st110{clip-path:url(#SVGID_4_);fill:#697FBD;}
	.st111{clip-path:url(#SVGID_4_);fill:#687DBC;}
	.st112{clip-path:url(#SVGID_4_);fill:#687CBB;}
	.st113{clip-path:url(#SVGID_4_);fill:#677BBA;}
	.st114{clip-path:url(#SVGID_4_);fill:#667ABA;}
	.st115{clip-path:url(#SVGID_4_);fill:#6679B9;}
	.st116{clip-path:url(#SVGID_4_);fill:#6578B8;}
	.st117{clip-path:url(#SVGID_4_);fill:#6477B8;}
	.st118{clip-path:url(#SVGID_4_);fill:#6476B7;}
	.st119{clip-path:url(#SVGID_4_);fill:#6375B6;}
	.st120{clip-path:url(#SVGID_4_);fill:#6374B6;}
	.st121{clip-path:url(#SVGID_4_);fill:#6273B5;}
	.st122{clip-path:url(#SVGID_4_);fill:#6172B4;}
	.st123{clip-path:url(#SVGID_4_);fill:#6171B3;}
	.st124{clip-path:url(#SVGID_4_);fill:#6070B3;}
	.st125{clip-path:url(#SVGID_4_);fill:#5F6FB2;}
	.st126{clip-path:url(#SVGID_4_);fill:#5F6EB1;}
	.st127{clip-path:url(#SVGID_4_);fill:#5E6DB1;}
	.st128{clip-path:url(#SVGID_4_);fill:#5D6CB0;}
	.st129{clip-path:url(#SVGID_4_);fill:#5D6BAF;}
	.st130{clip-path:url(#SVGID_4_);fill:#5C6AAF;}
	.st131{clip-path:url(#SVGID_4_);fill:#5B69AE;}
	.st132{clip-path:url(#SVGID_4_);fill:#5B68AD;}
	.st133{clip-path:url(#SVGID_4_);fill:#5A67AD;}
	.st134{clip-path:url(#SVGID_4_);fill:#5A66AC;}
	.st135{clip-path:url(#SVGID_4_);fill:#5965AB;}
	.st136{clip-path:url(#SVGID_4_);fill:#5864AA;}
	.st137{clip-path:url(#SVGID_4_);fill:#5863AA;}
	.st138{clip-path:url(#SVGID_4_);fill:#5762A9;}
	.st139{clip-path:url(#SVGID_4_);fill:#5661A8;}
	.st140{clip-path:url(#SVGID_4_);fill:#5660A8;}
	.st141{clip-path:url(#SVGID_4_);fill:#555FA7;}
	.st142{clip-path:url(#SVGID_6_);fill:#7D9ED2;}
	.st143{clip-path:url(#SVGID_6_);fill:#7C9DD1;}
	.st144{clip-path:url(#SVGID_6_);fill:#7C9CD1;}
	.st145{clip-path:url(#SVGID_6_);fill:#7B9BD0;}
	.st146{clip-path:url(#SVGID_6_);fill:#7A9ACF;}
	.st147{clip-path:url(#SVGID_6_);fill:#7A99CF;}
	.st148{clip-path:url(#SVGID_6_);fill:#7998CE;}
	.st149{clip-path:url(#SVGID_6_);fill:#7897CD;}
	.st150{clip-path:url(#SVGID_6_);fill:#7896CC;}
	.st151{clip-path:url(#SVGID_6_);fill:#7795CC;}
	.st152{clip-path:url(#SVGID_6_);fill:#7794CB;}
	.st153{clip-path:url(#SVGID_6_);fill:#7693CA;}
	.st154{clip-path:url(#SVGID_6_);fill:#7592CA;}
	.st155{clip-path:url(#SVGID_6_);fill:#7591C9;}
	.st156{clip-path:url(#SVGID_6_);fill:#7490C8;}
	.st157{clip-path:url(#SVGID_6_);fill:#738FC8;}
	.st158{clip-path:url(#SVGID_6_);fill:#738EC7;}
	.st159{clip-path:url(#SVGID_6_);fill:#728DC6;}
	.st160{clip-path:url(#SVGID_6_);fill:#718CC6;}
	.st161{clip-path:url(#SVGID_6_);fill:#718BC5;}
	.st162{clip-path:url(#SVGID_6_);fill:#708AC4;}
	.st163{clip-path:url(#SVGID_6_);fill:#6F89C3;}
	.st164{clip-path:url(#SVGID_6_);fill:#6F88C3;}
	.st165{clip-path:url(#SVGID_6_);fill:#6E87C2;}
	.st166{clip-path:url(#SVGID_6_);fill:#6E86C1;}
	.st167{clip-path:url(#SVGID_6_);fill:#6D85C1;}
	.st168{clip-path:url(#SVGID_6_);fill:#6C84C0;}
	.st169{clip-path:url(#SVGID_6_);fill:#6C83BF;}
	.st170{clip-path:url(#SVGID_6_);fill:#6B82BF;}
	.st171{clip-path:url(#SVGID_6_);fill:#6A81BE;}
	.st172{clip-path:url(#SVGID_6_);fill:#6A80BD;}
	.st173{clip-path:url(#SVGID_6_);fill:#697FBD;}
	.st174{clip-path:url(#SVGID_6_);fill:#687DBC;}
	.st175{clip-path:url(#SVGID_6_);fill:#687CBB;}
	.st176{clip-path:url(#SVGID_6_);fill:#677BBA;}
	.st177{clip-path:url(#SVGID_6_);fill:#667ABA;}
	.st178{clip-path:url(#SVGID_6_);fill:#6679B9;}
	.st179{clip-path:url(#SVGID_6_);fill:#6578B8;}
	.st180{clip-path:url(#SVGID_6_);fill:#6477B8;}
	.st181{clip-path:url(#SVGID_6_);fill:#6476B7;}
	.st182{clip-path:url(#SVGID_6_);fill:#6375B6;}
	.st183{clip-path:url(#SVGID_6_);fill:#6374B6;}
	.st184{clip-path:url(#SVGID_6_);fill:#6273B5;}
	.st185{clip-path:url(#SVGID_6_);fill:#6172B4;}
	.st186{clip-path:url(#SVGID_6_);fill:#6171B3;}
	.st187{clip-path:url(#SVGID_6_);fill:#6070B3;}
	.st188{clip-path:url(#SVGID_6_);fill:#5F6FB2;}
	.st189{clip-path:url(#SVGID_6_);fill:#5F6EB1;}
	.st190{clip-path:url(#SVGID_6_);fill:#5E6DB1;}
	.st191{clip-path:url(#SVGID_6_);fill:#5D6CB0;}
	.st192{clip-path:url(#SVGID_6_);fill:#5D6BAF;}
	.st193{clip-path:url(#SVGID_6_);fill:#5C6AAF;}
	.st194{clip-path:url(#SVGID_6_);fill:#5B69AE;}
	.st195{clip-path:url(#SVGID_6_);fill:#5B68AD;}
	.st196{clip-path:url(#SVGID_6_);fill:#5A67AD;}
	.st197{clip-path:url(#SVGID_6_);fill:#5A66AC;}
	.st198{clip-path:url(#SVGID_6_);fill:#5965AB;}
	.st199{clip-path:url(#SVGID_6_);fill:#5864AA;}
	.st200{clip-path:url(#SVGID_6_);fill:#5863AA;}
	.st201{clip-path:url(#SVGID_6_);fill:#5762A9;}
	.st202{clip-path:url(#SVGID_6_);fill:#5661A8;}
	.st203{clip-path:url(#SVGID_6_);fill:#5660A8;}
	.st204{clip-path:url(#SVGID_6_);fill:#555FA7;}
	.st205{clip-path:url(#SVGID_8_);fill:#7D9ED2;}
	.st206{clip-path:url(#SVGID_8_);fill:#7C9DD1;}
	.st207{clip-path:url(#SVGID_8_);fill:#7C9CD1;}
	.st208{clip-path:url(#SVGID_8_);fill:#7B9BD0;}
	.st209{clip-path:url(#SVGID_8_);fill:#7A9ACF;}
	.st210{clip-path:url(#SVGID_8_);fill:#7A99CF;}
	.st211{clip-path:url(#SVGID_8_);fill:#7998CE;}
	.st212{clip-path:url(#SVGID_8_);fill:#7897CD;}
	.st213{clip-path:url(#SVGID_8_);fill:#7896CC;}
	.st214{clip-path:url(#SVGID_8_);fill:#7795CC;}
	.st215{clip-path:url(#SVGID_8_);fill:#7794CB;}
	.st216{clip-path:url(#SVGID_8_);fill:#7693CA;}
	.st217{clip-path:url(#SVGID_8_);fill:#7592CA;}
	.st218{clip-path:url(#SVGID_8_);fill:#7591C9;}
	.st219{clip-path:url(#SVGID_8_);fill:#7490C8;}
	.st220{clip-path:url(#SVGID_8_);fill:#738FC8;}
	.st221{clip-path:url(#SVGID_8_);fill:#738EC7;}
	.st222{clip-path:url(#SVGID_8_);fill:#728DC6;}
	.st223{clip-path:url(#SVGID_8_);fill:#718CC6;}
	.st224{clip-path:url(#SVGID_8_);fill:#718BC5;}
	.st225{clip-path:url(#SVGID_8_);fill:#708AC4;}
	.st226{clip-path:url(#SVGID_8_);fill:#6F89C3;}
	.st227{clip-path:url(#SVGID_8_);fill:#6F88C3;}
	.st228{clip-path:url(#SVGID_8_);fill:#6E87C2;}
	.st229{clip-path:url(#SVGID_8_);fill:#6E86C1;}
	.st230{clip-path:url(#SVGID_8_);fill:#6D85C1;}
	.st231{clip-path:url(#SVGID_8_);fill:#6C84C0;}
	.st232{clip-path:url(#SVGID_8_);fill:#6C83BF;}
	.st233{clip-path:url(#SVGID_8_);fill:#6B82BF;}
	.st234{clip-path:url(#SVGID_8_);fill:#6A81BE;}
	.st235{clip-path:url(#SVGID_8_);fill:#6A80BD;}
	.st236{clip-path:url(#SVGID_8_);fill:#697FBD;}
	.st237{clip-path:url(#SVGID_8_);fill:#687DBC;}
	.st238{clip-path:url(#SVGID_8_);fill:#687CBB;}
	.st239{clip-path:url(#SVGID_8_);fill:#677BBA;}
	.st240{clip-path:url(#SVGID_8_);fill:#667ABA;}
	.st241{clip-path:url(#SVGID_8_);fill:#6679B9;}
	.st242{clip-path:url(#SVGID_8_);fill:#6578B8;}
	.st243{clip-path:url(#SVGID_8_);fill:#6477B8;}
	.st244{clip-path:url(#SVGID_8_);fill:#6476B7;}
	.st245{clip-path:url(#SVGID_8_);fill:#6375B6;}
	.st246{clip-path:url(#SVGID_8_);fill:#6374B6;}
	.st247{clip-path:url(#SVGID_8_);fill:#6273B5;}
	.st248{clip-path:url(#SVGID_8_);fill:#6172B4;}
	.st249{clip-path:url(#SVGID_8_);fill:#6171B3;}
	.st250{clip-path:url(#SVGID_8_);fill:#6070B3;}
	.st251{clip-path:url(#SVGID_8_);fill:#5F6FB2;}
	.st252{clip-path:url(#SVGID_8_);fill:#5F6EB1;}
	.st253{clip-path:url(#SVGID_8_);fill:#5E6DB1;}
	.st254{clip-path:url(#SVGID_8_);fill:#5D6CB0;}
	.st255{clip-path:url(#SVGID_8_);fill:#5D6BAF;}
	.st256{clip-path:url(#SVGID_8_);fill:#5C6AAF;}
	.st257{clip-path:url(#SVGID_8_);fill:#5B69AE;}
	.st258{clip-path:url(#SVGID_8_);fill:#5B68AD;}
	.st259{clip-path:url(#SVGID_8_);fill:#5A67AD;}
	.st260{clip-path:url(#SVGID_8_);fill:#5A66AC;}
	.st261{clip-path:url(#SVGID_8_);fill:#5965AB;}
	.st262{clip-path:url(#SVGID_8_);fill:#5864AA;}
	.st263{clip-path:url(#SVGID_8_);fill:#5863AA;}
	.st264{clip-path:url(#SVGID_8_);fill:#5762A9;}
	.st265{clip-path:url(#SVGID_8_);fill:#5661A8;}
	.st266{clip-path:url(#SVGID_8_);fill:#5660A8;}
	.st267{clip-path:url(#SVGID_8_);fill:#555FA7;}
	.st268{clip-path:url(#SVGID_10_);fill:#7D9ED2;}
	.st269{clip-path:url(#SVGID_10_);fill:#7C9DD1;}
	.st270{clip-path:url(#SVGID_10_);fill:#7C9CD1;}
	.st271{clip-path:url(#SVGID_10_);fill:#7B9BD0;}
	.st272{clip-path:url(#SVGID_10_);fill:#7A9ACF;}
	.st273{clip-path:url(#SVGID_10_);fill:#7A99CF;}
	.st274{clip-path:url(#SVGID_10_);fill:#7998CE;}
	.st275{clip-path:url(#SVGID_10_);fill:#7897CD;}
	.st276{clip-path:url(#SVGID_10_);fill:#7896CC;}
	.st277{clip-path:url(#SVGID_10_);fill:#7795CC;}
	.st278{clip-path:url(#SVGID_10_);fill:#7794CB;}
	.st279{clip-path:url(#SVGID_10_);fill:#7693CA;}
	.st280{clip-path:url(#SVGID_10_);fill:#7592CA;}
	.st281{clip-path:url(#SVGID_10_);fill:#7591C9;}
	.st282{clip-path:url(#SVGID_10_);fill:#7490C8;}
	.st283{clip-path:url(#SVGID_10_);fill:#738FC8;}
	.st284{clip-path:url(#SVGID_10_);fill:#738EC7;}
	.st285{clip-path:url(#SVGID_10_);fill:#728DC6;}
	.st286{clip-path:url(#SVGID_10_);fill:#718CC6;}
	.st287{clip-path:url(#SVGID_10_);fill:#718BC5;}
	.st288{clip-path:url(#SVGID_10_);fill:#708AC4;}
	.st289{clip-path:url(#SVGID_10_);fill:#6F89C3;}
	.st290{clip-path:url(#SVGID_10_);fill:#6F88C3;}
	.st291{clip-path:url(#SVGID_10_);fill:#6E87C2;}
	.st292{clip-path:url(#SVGID_10_);fill:#6E86C1;}
	.st293{clip-path:url(#SVGID_10_);fill:#6D85C1;}
	.st294{clip-path:url(#SVGID_10_);fill:#6C84C0;}
	.st295{clip-path:url(#SVGID_10_);fill:#6C83BF;}
	.st296{clip-path:url(#SVGID_10_);fill:#6B82BF;}
	.st297{clip-path:url(#SVGID_10_);fill:#6A81BE;}
	.st298{clip-path:url(#SVGID_10_);fill:#6A80BD;}
	.st299{clip-path:url(#SVGID_10_);fill:#697FBD;}
	.st300{clip-path:url(#SVGID_10_);fill:#687DBC;}
	.st301{clip-path:url(#SVGID_10_);fill:#687CBB;}
	.st302{clip-path:url(#SVGID_10_);fill:#677BBA;}
	.st303{clip-path:url(#SVGID_10_);fill:#667ABA;}
	.st304{clip-path:url(#SVGID_10_);fill:#6679B9;}
	.st305{clip-path:url(#SVGID_10_);fill:#6578B8;}
	.st306{clip-path:url(#SVGID_10_);fill:#6477B8;}
	.st307{clip-path:url(#SVGID_10_);fill:#6476B7;}
	.st308{clip-path:url(#SVGID_10_);fill:#6375B6;}
	.st309{clip-path:url(#SVGID_10_);fill:#6374B6;}
	.st310{clip-path:url(#SVGID_10_);fill:#6273B5;}
	.st311{clip-path:url(#SVGID_10_);fill:#6172B4;}
	.st312{clip-path:url(#SVGID_10_);fill:#6171B3;}
	.st313{clip-path:url(#SVGID_10_);fill:#6070B3;}
	.st314{clip-path:url(#SVGID_10_);fill:#5F6FB2;}
	.st315{clip-path:url(#SVGID_10_);fill:#5F6EB1;}
	.st316{clip-path:url(#SVGID_10_);fill:#5E6DB1;}
	.st317{clip-path:url(#SVGID_10_);fill:#5D6CB0;}
	.st318{clip-path:url(#SVGID_10_);fill:#5D6BAF;}
	.st319{clip-path:url(#SVGID_10_);fill:#5C6AAF;}
	.st320{clip-path:url(#SVGID_10_);fill:#5B69AE;}
	.st321{clip-path:url(#SVGID_10_);fill:#5B68AD;}
	.st322{clip-path:url(#SVGID_10_);fill:#5A67AD;}
	.st323{clip-path:url(#SVGID_10_);fill:#5A66AC;}
	.st324{clip-path:url(#SVGID_10_);fill:#5965AB;}
	.st325{clip-path:url(#SVGID_10_);fill:#5864AA;}
	.st326{clip-path:url(#SVGID_10_);fill:#5863AA;}
	.st327{clip-path:url(#SVGID_10_);fill:#5762A9;}
	.st328{clip-path:url(#SVGID_10_);fill:#5661A8;}
	.st329{clip-path:url(#SVGID_10_);fill:#5660A8;}
	.st330{clip-path:url(#SVGID_10_);fill:#555FA7;}
	.st331{fill:url(#SVGID_11_);}
	.st332{fill:#FFFFFF;stroke:#FFFFFF;stroke-width:0.4568;stroke-miterlimit:10;}
	.st333{fill:#E63242;}
	.st334{fill:#FFFFFF;stroke:#FFFFFF;stroke-width:0.5165;stroke-miterlimit:10;}
	.st335{fill:#9A9B99;}
	.st336{fill:none;stroke:#FFFFFF;stroke-width:1.7319;stroke-miterlimit:10;}
	.st337{fill:#FFFFFF;stroke:#55575F;stroke-width:0.2758;stroke-miterlimit:10;}
	.st338{fill:#5948FF;}
	.st339{fill:#2F343E;}
	.st340{fill:#E1566B;}
	.st341{fill:#2F343E;stroke:#E1566B;stroke-width:0.0547;stroke-miterlimit:10;}
</style>
<g id="Camada_2" class="st0">
	<rect x="-107.85" y="-255.26" class="st1" width="683.22" height="683.22"/>
</g>
<g id="Camada_3" class="st0">
	<rect x="-27.71" y="-226.87" class="st2" width="463.11" height="678.52"/>
</g>
<g id="Camada_1">
	<g>
		<g>
			<path class="st3" d="M30.75,20.81c-0.68-1.19-1.74-1.81-3.11-1.86c-0.43-0.02-0.68,0.27-0.59,0.65c0.07,0.31,0.32,0.39,0.6,0.41
				c1.36,0.09,2.3,0.94,2.48,2.27c0.14,1.03-0.24,1.89-1.08,2.47c-0.82,0.57-1.74,0.63-2.64,0.19c-0.97-0.47-1.4-1.29-1.45-2.34
				c-0.05-1.08-0.52-1.91-1.52-2.36c-0.39-0.17-0.84-0.21-1.27-0.29c-0.4-0.07-0.74-0.37-0.81-0.74c-0.05-0.26-0.09-0.52-0.13-0.78
				c-0.4-2.28-0.79-4.56-1.19-6.84c-0.4-2.28-0.8-4.56-1.2-6.84c-0.12-0.71-0.45-1.01-1.18-1.01c-0.52,0-1.04,0-1.59,0
				c0-0.62,0.01-1.21,0-1.8c-0.01-0.78-0.56-1.33-1.34-1.33c-1.19,0-2.37,0-3.56,0c-0.78,0-1.33,0.54-1.34,1.33
				c-0.01,0.51,0,1.02,0,1.53c0,0.09-0.01,0.17-0.02,0.27c-0.55,0-1.07,0-1.6,0c-0.62,0-0.98,0.32-1.09,0.94
				C6.91,5.82,6.71,6.95,6.51,8.07c-0.38,2.19-0.76,4.38-1.13,6.57C5,16.84,4.62,19.03,4.24,21.22c-0.38,2.17-0.76,4.34-1.13,6.51
				c-0.12,0.73,0.27,1.18,1.02,1.19c1.26,0,2.52,0,3.77,0h0.36c0,0.52,0.02,1.01,0,1.49c-0.03,0.79,0.25,1.37,1.03,1.64h7.36
				c0.03-0.02,0.06-0.05,0.1-0.06c0.61-0.23,0.94-0.7,0.95-1.36c0-0.27,0-0.53,0-0.8v-0.92h0.39c1.27,0,2.54,0,3.8,0
				c0.63,0,1.05-0.47,0.95-1.08c-0.27-1.56-0.55-3.11-0.82-4.67c-0.13-0.73-0.25-1.46-0.38-2.18c0.29,0.03,0.54,0.05,0.79,0.08
				c0.62,0.07,1.08,0.37,1.31,0.95c0.1,0.25,0.12,0.54,0.14,0.81c0.12,2.14,2,3.71,4.13,3.44C30.61,25.94,32.05,23.08,30.75,20.81z
				 M19.82,16.73c-0.76-0.2-1.48-0.38-2.29-0.59c0.69-0.4,1.32-0.75,1.99-1.13C19.62,15.59,19.71,16.13,19.82,16.73z M18.52,9.21
				c0.09,0.5,0.17,0.95,0.23,1.4l0.23,1.28c0.11,0.64,0.23,1.24,0.32,1.85c0.01,0.07-0.07,0.19-0.14,0.23
				c-0.98,0.57-1.96,1.13-2.95,1.68c-0.09,0.05-0.24,0.07-0.35,0.04c-0.7-0.17-0.88-0.23-1.65-0.43l0,0c0,0,0,0,0,0l-1.77-0.48l0,0
				l0,0c0,0-1.94-0.48-2.81-0.71C12.62,12.45,15.55,10.84,18.52,9.21z M10.93,1.94c0-0.09,0.2-0.25,0.3-0.25
				c1.16-0.02,2.33-0.01,3.49-0.01c0.17,0,0.3,0.07,0.3,0.27c0,0.59,0,1.18,0,1.8h-4.11C10.91,3.14,10.9,2.54,10.93,1.94z
				 M8.16,5.04c0.02-0.08,0.15-0.2,0.23-0.2c1.34-0.01,2.67-0.01,4.04,0.06c-1.55,0.89-3.11,1.78-4.71,2.69
				C7.86,6.7,8,5.87,8.16,5.04z M6.74,13.08L7.11,11c0.13-0.72,0.24-1.36,0.36-2c0.01-0.06,0.11-0.11,0.17-0.15
				c2.28-1.31,4.57-2.62,6.86-3.92c0.09-0.05,0.21-0.1,0.31-0.1c0.61,0,2.43,0,2.43,0l0,0l0,0c0,0,0.3,0.01,0.4,0.02
				c0.02,0,0.06,0.02,0.08,0.04c0.06,0.06,0.09,0.3,0.09,0.3l0.12,0.61l0.04,0.29c0.12,0.69,0.23,1.33,0.35,2
				c-0.09,0.05-0.18,0.1-0.28,0.16c-3.22,1.77-6.43,3.54-9.65,5.32c-0.18,0.1-0.35,0.13-0.54,0.07c-0.31-0.09-0.63-0.17-0.95-0.25
				c-0.17-0.04-0.22-0.13-0.17-0.28C6.74,13.1,6.74,13.09,6.74,13.08z M6.17,16.39c0.11-0.65,0.23-1.32,0.36-2.01
				c4.13,1.07,8.22,2.13,12.37,3.21c-0.92,0.53-1.78,1.03-2.65,1.53c-0.06,0.03-0.13,0.06-0.2,0.1c-0.19,0.1-0.19,0.14-0.43,0.24
				c-0.23,0.15-0.16,0.11-0.34,0.2c-0.16,0.11-0.25,0.17-0.41,0.27c-0.16,0.1-0.28,0.17-0.4,0.24c-0.71,0.41-1.41,0.82-2.12,1.22
				c-0.09,0.05-0.23,0.09-0.33,0.06c-2.13-0.56-4.25-1.12-6.43-1.7c0.13-0.76,0.26-1.49,0.39-2.26 M7.39,24.26
				c-0.98,0.57-1.91,1.11-2.9,1.68c0.16-0.9,0.3-1.73,0.45-2.6c0,0.02,0.06-0.27,0.06-0.27l0.04-0.28l0.09-0.51
				c0.09-0.5,0.17-0.98,0.26-1.49c1.82,0.49,3.61,0.96,5.47,1.46c-0.76,0.44-1.47,0.85-2.18,1.26 M20.6,21.29
				c0.09,0.48,0.17,0.92,0.24,1.36c0.1,0.64,0.1,0.64-0.46,0.98c-2.24,1.34-4.48,2.69-6.73,4.03c-0.2,0.12-0.45,0.18-0.69,0.19
				c-0.91,0.02-1.81,0.01-2.72,0.01l0,0l0,0l0,0c0,0,0.43,0,0,0l-2.45-0.01l0,0c0,0-2.19,0.01-3.28,0.01h-0.3
				c-0.04-0.36,0.07-0.57,0.38-0.75c5.05-2.91,10.08-5.84,15.12-8.76c0.1-0.06,0.19-0.11,0.35-0.19c0.12,0.67,0.24,1.3,0.33,1.93
				 M16.53,30.79c0,0.07-0.12,0.16-0.2,0.19C16.26,31.02,16.15,31,16.06,31c-2.09,0-4.19,0-6.28,0c-0.45,0-0.48-0.03-0.48-0.49
				c0-0.52,0-1.04,0-1.59h7.25C16.54,29.55,16.55,30.17,16.53,30.79z M21.73,27.83h-6.29c1.93-1.16,3.8-2.28,5.7-3.42
				C21.34,25.57,21.53,26.68,21.73,27.83z"/>
			<path class="st3" d="M16.71,32.21L9.25,32.2c-0.79-0.27-1.18-0.88-1.14-1.8c0.01-0.33,0.01-0.67,0.01-1.01c0-0.1,0-0.21,0-0.32
				l-1.15,0c-0.94,0-1.89,0-2.83,0c-0.42,0-0.75-0.13-0.96-0.38c-0.21-0.25-0.28-0.59-0.21-0.99c0.25-1.49,0.51-2.98,0.77-4.47
				L6.54,6.96C6.68,6.2,6.81,5.43,6.94,4.67c0.12-0.7,0.55-1.06,1.24-1.07c0.36,0,0.71,0,1.08,0h0.37c0-0.04,0.01-0.07,0.01-0.11
				c0-0.19,0-0.37,0-0.56c0-0.33,0-0.65,0-0.98c0.02-0.87,0.64-1.48,1.5-1.48c1.19,0,2.37,0,3.56,0c0.87,0,1.49,0.61,1.5,1.48
				c0.01,0.41,0.01,0.81,0,1.23l0,0.42l0.39,0l1.04,0c0.8,0,1.2,0.34,1.34,1.14c0.25,1.47,0.51,2.94,0.77,4.41l0.43,2.43
				c0.33,1.89,0.66,3.78,0.99,5.67l0.25,1.48c0.03,0.16,0.05,0.32,0.08,0.48c0.06,0.29,0.34,0.54,0.68,0.61
				c0.11,0.02,0.21,0.04,0.32,0.05c0.33,0.05,0.68,0.11,0.99,0.25c1.01,0.45,1.56,1.29,1.62,2.49c0.05,1.06,0.5,1.78,1.37,2.21
				c0.86,0.42,1.71,0.36,2.48-0.18c0.8-0.55,1.15-1.35,1.02-2.32c-0.17-1.25-1.04-2.05-2.33-2.14c-0.17-0.01-0.63-0.04-0.75-0.53
				c-0.05-0.23-0.01-0.44,0.12-0.6c0.14-0.17,0.37-0.26,0.63-0.25c1.45,0.05,2.54,0.7,3.25,1.94l0,0c0.63,1.1,0.67,2.45,0.1,3.59
				c-0.57,1.15-1.67,1.94-2.95,2.1c-1.07,0.14-2.11-0.16-2.93-0.84c-0.83-0.69-1.32-1.66-1.38-2.74c-0.01-0.26-0.04-0.53-0.13-0.76
				c-0.2-0.5-0.6-0.79-1.18-0.85l-0.58-0.06l0.61,3.49c0.19,1.05,0.37,2.1,0.55,3.15c0.06,0.33-0.02,0.65-0.22,0.88
				c-0.21,0.25-0.52,0.38-0.88,0.39c-0.86,0-1.72,0-2.58,0l-1.46,0l0,1c0,0.18,0,0.37,0,0.55c-0.01,0.72-0.38,1.25-1.05,1.5
				L16.71,32.21z M9.33,31.89h7.29c0.03-0.02,0.06-0.04,0.09-0.05c0.55-0.21,0.84-0.62,0.84-1.21c0-0.18,0-0.37,0-0.55v-1.32l1.77,0
				c0.86,0,1.72,0,2.58,0c0.27,0,0.5-0.1,0.64-0.27c0.14-0.16,0.19-0.38,0.15-0.62c-0.18-1.05-0.36-2.1-0.55-3.15l-0.68-3.9l1,0.1
				c0.7,0.08,1.2,0.44,1.45,1.05c0.11,0.27,0.13,0.59,0.15,0.86c0.06,1,0.51,1.89,1.26,2.52c0.75,0.62,1.71,0.9,2.68,0.77
				c1.17-0.15,2.18-0.87,2.7-1.93c0.52-1.05,0.49-2.28-0.09-3.29l0,0c-0.65-1.13-1.65-1.73-2.98-1.78c-0.16-0.01-0.3,0.04-0.38,0.13
				c-0.07,0.08-0.09,0.19-0.06,0.32c0.04,0.19,0.17,0.27,0.46,0.29c1.45,0.1,2.43,1,2.62,2.41c0.15,1.09-0.25,2-1.15,2.62
				c-0.87,0.6-1.84,0.67-2.8,0.2c-0.97-0.47-1.49-1.3-1.54-2.48c-0.05-1.08-0.53-1.82-1.43-2.22c-0.27-0.12-0.58-0.17-0.91-0.22
				c-0.11-0.02-0.22-0.04-0.33-0.06c-0.48-0.09-0.85-0.44-0.94-0.86c-0.03-0.16-0.06-0.33-0.08-0.49l-0.25-1.47
				c-0.33-1.89-0.66-3.78-0.99-5.67l-0.43-2.43c-0.26-1.47-0.52-2.94-0.77-4.41c-0.11-0.64-0.38-0.87-1.02-0.87h-1.75l0-0.74
				c0-0.41,0-0.82,0-1.22c-0.01-0.7-0.49-1.17-1.19-1.17c-1.19,0-2.37,0-3.56,0c-0.69,0-1.17,0.47-1.19,1.17
				c-0.01,0.32,0,0.64,0,0.97c0,0.19,0,0.38,0,0.56c0,0.06-0.01,0.13-0.01,0.19L9.93,3.92l-0.67,0c-0.37,0-0.72,0-1.08,0
				c-0.54,0-0.84,0.26-0.93,0.8C7.12,5.49,6.99,6.25,6.86,7.01L4.05,23.28c-0.26,1.49-0.52,2.98-0.77,4.47
				c-0.05,0.31,0,0.56,0.14,0.73c0.15,0.18,0.4,0.27,0.72,0.27c0.94,0,1.89,0,2.83,0h1.47v0.16c0,0.16,0,0.32,0,0.47
				c0,0.35,0.01,0.69-0.01,1.02C8.4,31.19,8.68,31.66,9.33,31.89z M16.2,31.16c-0.03,0-0.05,0-0.08,0l-0.06,0c-2.09,0-4.19,0-6.28,0
				c-0.54,0-0.64-0.1-0.64-0.65v-1.74h7.56l0,0.59c0,0.48,0,0.96-0.01,1.44v0c-0.01,0.2-0.28,0.33-0.29,0.33
				C16.33,31.16,16.27,31.16,16.2,31.16z M16.06,30.84l0.07,0c0.05,0,0.11,0,0.13-0.01c0.04-0.02,0.09-0.06,0.11-0.08
				c0.01-0.47,0.01-0.94,0.01-1.41l0-0.27H9.46v1.43c0,0.08,0,0.28,0.03,0.31c0.03,0.03,0.22,0.03,0.3,0.03
				C11.88,30.84,13.97,30.84,16.06,30.84z M11.73,28.02c-0.25,0-0.5,0-0.74,0L7.79,28c0,0-2.19,0.01-3.28,0.01H4.06l-0.02-0.14
				c-0.05-0.42,0.09-0.69,0.46-0.9c4.25-2.45,8.5-4.92,12.75-7.38l2.92-1.69l0.12,0.66c0.09,0.51,0.18,1.01,0.25,1.5l-0.32,0.05
				c-0.07-0.49-0.16-0.98-0.25-1.49l-0.04-0.21l-0.15,0.08l-2.38,1.38c-4.25,2.46-8.49,4.93-12.75,7.38
				c-0.22,0.13-0.31,0.25-0.31,0.45h0.15c1.09,0,3.28-0.01,3.28-0.01l2.45,0.01l0.19,0v0l0.56,0c0.65,0,1.32,0,1.97-0.01
				c0.22-0.01,0.44-0.07,0.61-0.16c1.73-1.02,3.45-2.06,5.17-3.09l1.56-0.94c0.47-0.28,0.47-0.28,0.39-0.82
				c-0.05-0.31-0.1-0.61-0.16-0.93l-0.08-0.43l0.31-0.06l0.08,0.43c0.06,0.32,0.12,0.63,0.16,0.94c0.11,0.71,0.08,0.77-0.53,1.14
				L18.9,24.7c-1.72,1.03-3.44,2.07-5.17,3.09c-0.21,0.13-0.49,0.2-0.76,0.21C12.56,28.01,12.14,28.02,11.73,28.02z M21.92,27.99
				h-7.05l6.39-3.84L21.92,27.99z M16.02,27.67h5.52l-0.52-3.01L16.02,27.67z M4.28,26.25l0.49-2.78h0l0.03-0.16l0.13,0.02
				L4.8,23.31c0.01-0.02,0.06-0.27,0.06-0.27l0.12-0.79l0.29-1.66l6.01,1.6l-0.76,0.44c-0.6,0.35-1.18,0.69-1.76,1.02L8.6,23.37
				c0.58-0.33,1.16-0.67,1.76-1.02l0.09-0.05l-4.93-1.31l-0.36,2.11c-0.03,0.12-0.05,0.21-0.07,0.28l0,0l-0.4,2.26l2.6-1.51
				l0.16,0.28L4.28,26.25z M12.09,21.61c-0.04,0-0.08,0-0.11-0.01c-1.77-0.46-3.53-0.93-5.33-1.41L5.4,19.86l0.42-2.4l0.31,0.05
				l-0.37,2.12l0.96,0.26c1.8,0.48,3.56,0.95,5.33,1.41c0.04,0.01,0.13,0,0.21-0.05c0.55-0.31,1.1-0.63,1.66-0.95l0.47-0.27
				c0.07-0.04,0.15-0.09,0.23-0.14l0.16-0.1c0.16-0.09,0.24-0.15,0.39-0.25l0.1-0.05c0.07-0.04,0.07-0.04,0.19-0.11l0.07-0.05
				c0.17-0.07,0.21-0.1,0.28-0.14c0.04-0.03,0.09-0.06,0.16-0.1c0.03-0.02,0.07-0.03,0.1-0.05c0.03-0.02,0.06-0.03,0.09-0.05
				c0.69-0.4,1.39-0.8,2.11-1.21l0.2-0.12L6.65,14.58l-0.33,1.84l-0.31-0.06l0.38-2.18l12.92,3.35l-0.88,0.51
				c-0.72,0.42-1.41,0.82-2.11,1.22c-0.04,0.02-0.07,0.04-0.11,0.06c-0.03,0.01-0.06,0.03-0.09,0.04c-0.06,0.04-0.11,0.06-0.14,0.09
				c-0.07,0.05-0.14,0.09-0.3,0.16l-0.04,0.03c-0.13,0.09-0.13,0.09-0.22,0.13l-0.07,0.03c-0.15,0.1-0.24,0.16-0.4,0.26l-0.16,0.1
				c-0.09,0.05-0.16,0.1-0.24,0.14l-0.47,0.27c-0.55,0.32-1.1,0.64-1.66,0.95C12.34,21.57,12.21,21.61,12.09,21.61z M20.02,16.94
				l-2.91-0.75l2.52-1.44L20.02,16.94z M17.95,16.08l1.67,0.43l-0.22-1.26L17.95,16.08z M15.97,15.88c-0.05,0-0.1-0.01-0.15-0.02
				c-0.52-0.13-0.75-0.19-1.15-0.29l-2.27-0.61c0,0-1.94-0.48-2.81-0.71l-0.39-0.1l9.42-5.18l0.1,0.6c0.06,0.36,0.12,0.7,0.17,1.03
				l0.31,1.74c0.08,0.47,0.17,0.93,0.24,1.39c0.02,0.15-0.1,0.32-0.21,0.39c-1.05,0.61-2.02,1.16-2.95,1.69
				C16.2,15.85,16.08,15.88,15.97,15.88z M10.07,14.04c0.95,0.25,2.42,0.61,2.42,0.61l2.27,0.61c0.39,0.1,0.63,0.17,1.14,0.29
				c0.07,0.02,0.17,0,0.23-0.03c0.93-0.52,1.9-1.07,2.95-1.68c0.02-0.01,0.06-0.06,0.06-0.09c-0.07-0.44-0.15-0.9-0.24-1.37
				l-0.31-1.75c-0.05-0.34-0.1-0.67-0.17-1.03L18.4,9.45L10.07,14.04z M8.05,13.83c-0.08,0-0.16-0.01-0.24-0.04
				c-0.33-0.1-0.68-0.18-0.94-0.24c-0.13-0.03-0.22-0.09-0.27-0.17c-0.05-0.08-0.06-0.19-0.02-0.31l0-0.01l0.45-2.55
				c0.09-0.54,0.18-1.03,0.28-1.53c0.02-0.13,0.15-0.2,0.24-0.25c2.29-1.31,4.58-2.62,6.87-3.92c0.1-0.05,0.24-0.12,0.39-0.12
				c0.61-0.01,2.43,0,2.43,0c0,0,0.31,0.01,0.42,0.03c0.04,0.01,0.13,0.03,0.18,0.09c0.08,0.08,0.12,0.27,0.13,0.38l0.15,0.9
				l0.37,2.11l-0.38,0.21l-1.76,0.97c-2.63,1.45-5.26,2.9-7.89,4.35C8.33,13.79,8.19,13.83,8.05,13.83z M6.88,13.21
				c0,0,0.02,0.01,0.07,0.02c0.26,0.06,0.61,0.15,0.96,0.25c0.15,0.04,0.27,0.03,0.42-0.06c2.63-1.45,5.26-2.9,7.89-4.35l1.94-1.07
				l-0.48-2.79c-0.02-0.09-0.04-0.2-0.06-0.23c-0.08,0-0.36-0.01-0.36-0.01c0,0-0.53,0-1.12,0c-0.5,0-1.03,0-1.31,0
				c-0.06,0-0.15,0.03-0.24,0.08c-2.29,1.3-4.57,2.61-6.86,3.92C7.69,9.01,7.63,9.04,7.62,9.06c-0.08,0.46-0.17,0.96-0.26,1.5
				l-0.46,2.59C6.88,13.19,6.88,13.21,6.88,13.21L6.88,13.21z M7.5,7.89l0.15-0.91C7.77,6.31,7.88,5.66,8,5.01v0
				c0.03-0.14,0.22-0.33,0.38-0.33c1.1-0.01,2.56-0.01,4.05,0.05l0.55,0.03L7.5,7.89z M8.31,5.07C8.19,5.72,8.08,6.37,7.97,7.04
				L7.93,7.28l3.94-2.25c-1.29-0.05-2.52-0.04-3.48-0.03C8.37,5,8.32,5.05,8.31,5.07z M15.18,3.91h-4.43l0-0.61
				c0-0.45,0-0.91,0.02-1.36l0,0c0.01-0.19,0.28-0.4,0.46-0.41c1.02-0.02,2.06-0.01,3.06-0.01l0.44,0c0.28,0,0.46,0.17,0.46,0.43
				c0,0.41,0,0.82,0,1.25L15.18,3.91z M11.07,3.59h3.8v-0.4c0-0.42,0-0.83,0-1.24c0-0.06,0-0.11-0.14-0.11l-0.44,0
				c-1,0-2.04,0-3.05,0.01c-0.04,0.01-0.12,0.08-0.15,0.12c-0.02,0.44-0.02,0.87-0.02,1.33L11.07,3.59z"/>
		</g>
	</g>
</g>
</svg>
